<svg width="27" height="26" viewBox="0 0 27 26" fill="none" xmlns="http://www.w3.org/2000/svg">
<g id="Section &#226;&#134;&#146; SVG" clip-path="url(#clip0_1_2529)">
<g id="Group 3976">
<path id="Path 15107" d="M7.01093 14.5836C8.29548 14.5747 9.53106 15.0758 10.4464 15.9769C11.3617 16.8781 11.8818 18.1056 11.8927 19.3898C11.8818 20.6741 11.3617 21.9016 10.4464 22.8028C9.53106 23.7039 8.29548 24.205 7.01093 24.1961C5.72671 24.2045 4.4916 23.7032 3.5767 22.8021C2.66181 21.901 2.14188 20.6738 2.13104 19.3898C2.14188 18.1059 2.66181 16.8787 3.5767 15.9776C4.4916 15.0765 5.72671 14.5752 7.01093 14.5836Z" stroke="#FFB115" stroke-width="2.79649"/>
<path id="Path 15106" d="M4.75464 14.1549L21.19 19.2557C21.5385 19.3949 21.9217 19.4222 22.2864 19.334C26.1892 18.0401 26.1892 3.14603 22.2864 1.85405C21.9217 1.76567 21.5385 1.79304 21.19 1.93235L4.75464 7.03129C3.99388 7.26682 3.32851 7.73965 2.85594 8.38057C2.38337 9.02149 2.12842 9.79683 2.12842 10.5931C2.12842 11.3893 2.38337 12.1647 2.85594 12.8056C3.32851 13.4465 3.99388 13.9194 4.75464 14.1549Z" stroke="#FFB115" stroke-width="2.79649" stroke-linejoin="round"/>
</g>
</g>
<defs>
<clipPath id="clip0_1_2529">
<rect width="25.88" height="25.5" fill="white" transform="translate(0.732544 0.249023)"/>
</clipPath>
</defs>
</svg>
