<?xml version="1.0" encoding="utf-8"?>
<!-- Generator: Adobe Illustrator 27.5.0, SVG Export Plug-In . SVG Version: 6.00 Build 0)  -->
<svg version="1.1" id="Layer_1" xmlns="http://www.w3.org/2000/svg" xmlns:xlink="http://www.w3.org/1999/xlink" x="0px" y="0px"
	 viewBox="0 0 337.49 353.812" style="enable-background:new 0 0 337.49 353.812;" xml:space="preserve">
<g>
	<g>
		<path style="fill:#FFFFFF;" d="M242.397,200.78c0.002-0.003,0.004-0.005,0.006-0.008c0.006-0.008,0.011-0.016,0.018-0.024
			L242.397,200.78z"/>
		<path style="fill:#FFFFFF;" d="M33.25,316.902c2.117,9.395,6.539,21.55,17.315,22.918l19.286,4.287
			c0.553,0.158,1.114,0.283,1.681,0.373l0.959,0.213c3.375,0.752,6.91-0.07,9.608-2.234c0.681-0.546,1.29-1.163,1.821-1.836
			c1.171-1.071,2.158-2.266,2.988-3.476h0.225c5.485,0,10.688-1.802,15.044-5.208c1.18-0.922,2.286-1.961,3.322-3.131
			c0.045-0.05,0.116-0.129,0.159-0.179c0.331-0.382,0.651-0.773,0.943-1.155c0.054-0.07,0.124-0.165,0.187-0.25
			c0.486-0.651,0.948-1.339,1.373-2.043c0.122-0.202,0.244-0.405,0.351-0.594c0.191-0.336,0.374-0.676,0.549-1.02
			c0.169-0.333,0.328-0.674,0.501-1.056c0.18-0.4,0.349-0.804,0.5-1.195c0.17-0.436,0.329-0.877,0.48-1.342
			c0.08-0.248,0.157-0.496,0.233-0.758c0.188-0.652,0.341-1.26,0.467-1.867l0.066-0.336c0.122-0.63,0.218-1.27,0.296-1.957
			c0.023-0.207,0.044-0.414,0.059-0.588c0.071-0.799,0.106-1.528,0.106-2.228v-96.778c0-0.917-0.055-1.85-0.169-2.846
			c-0.032-0.29-0.075-0.576-0.125-0.887c-0.104-0.687-0.223-1.322-0.362-1.921c-0.071-0.307-0.147-0.609-0.236-0.94
			c-0.171-0.625-0.372-1.263-0.61-1.924c-0.082-0.237-0.167-0.472-0.262-0.71c-0.681-1.719-1.551-3.362-2.584-4.875
			c-0.131-0.193-0.268-0.382-0.418-0.582c-0.399-0.551-0.814-1.079-1.219-1.552c-0.2-0.235-0.405-0.463-0.616-0.693
			c-0.393-0.428-0.801-0.839-1.255-1.268c-0.251-0.239-0.504-0.474-0.797-0.729c-0.295-0.254-0.597-0.495-0.903-0.732
			c-0.337-0.28-0.681-0.55-1.038-0.803c-0.234-0.165-0.473-0.321-0.717-0.466c-3.98-2.591-8.571-3.957-13.325-3.957h-1.707
			c-0.505-0.585-1.031-1.124-1.58-1.618c-0.512-0.637-1.097-1.223-1.747-1.744c-1.542-1.237-3.357-2.036-5.26-2.352
			c2.632-33.335,11.031-61.314,24.547-81.502c7.163-10.668,15.772-19.15,25.637-25.271c3.307,0.457,6.713-0.026,10.421-1.56
			c0.088-0.037,0.176-0.074,0.263-0.113c10.688-4.741,23.013-7.145,36.633-7.145c18.515,0,34.167,3.08,46.462,9.124
			c3.401,1.698,7.113,2.544,11.026,2.493c7.998,5.608,14.607,12.765,20.122,21.773c11.626,18.996,18.263,45.998,20.186,82.28
			c-1.749,0.359-3.411,1.129-4.839,2.274c-0.653,0.524-1.24,1.112-1.754,1.753c-0.545,0.492-1.068,1.028-1.57,1.61h-1.706
			c-4.755,0-9.344,1.366-13.324,3.956c-0.239,0.144-0.475,0.296-0.705,0.459c-0.352,0.248-0.691,0.512-1.057,0.815
			c-0.302,0.234-0.6,0.471-0.923,0.75c-0.277,0.24-0.544,0.489-0.826,0.758c-0.405,0.384-0.797,0.779-1.195,1.21
			c-0.216,0.235-0.427,0.47-0.627,0.705c-0.404,0.474-0.794,0.971-1.209,1.541c-0.15,0.2-0.298,0.403-0.434,0.602
			c-0.54,0.794-1.007,1.565-1.383,2.276c-0.062,0.114-0.124,0.235-0.185,0.357c-0.359,0.699-0.694,1.442-0.995,2.201
			c-0.101,0.255-0.194,0.513-0.292,0.794c-0.222,0.619-0.419,1.241-0.585,1.85c-0.086,0.314-0.165,0.63-0.238,0.946
			c-0.141,0.611-0.26,1.24-0.37,1.966c-0.045,0.276-0.086,0.554-0.119,0.845c-0.114,1-0.169,1.933-0.169,2.852v96.778
			c0,0.703,0.034,1.431,0.106,2.241c0.017,0.191,0.036,0.38,0.06,0.59c0.078,0.688,0.174,1.323,0.293,1.934l0.072,0.368
			c0.126,0.601,0.278,1.205,0.469,1.866c0.073,0.251,0.15,0.498,0.232,0.751c0.144,0.443,0.301,0.879,0.465,1.302
			c0.162,0.418,0.335,0.828,0.524,1.249c0.153,0.338,0.309,0.673,0.485,1.022c0.174,0.342,0.355,0.679,0.565,1.049
			c0.102,0.18,0.207,0.356,0.333,0.563c0.432,0.718,0.901,1.414,1.397,2.076c0.046,0.063,0.097,0.131,0.136,0.183
			c0.311,0.407,0.633,0.802,0.968,1.188c0.025,0.029,0.051,0.058,0.076,0.087c0.013,0.015,0.033,0.037,0.052,0.058
			c1.016,1.156,2.143,2.221,3.35,3.166c0.035,0.027,0.071,0.055,0.107,0.082c4.338,3.358,9.503,5.132,14.945,5.132h0.224
			c0.828,1.206,1.812,2.398,2.978,3.466c0.532,0.677,1.144,1.297,1.829,1.846c2.042,1.638,4.563,2.507,7.132,2.507
			c0.825,0,1.655-0.09,2.475-0.272l0.952-0.212c0.576-0.092,1.147-0.219,1.709-0.38l19.27-4.282
			c10.776-1.368,15.198-13.523,17.314-22.918c9.575-2.923,11.16-14.299,12.131-27.753c0.669-9.277,0.77-19.406,0.77-24.617
			c0-5.224-0.1-15.374-0.77-24.656c-0.972-13.472-2.559-24.861-12.165-27.778c-0.063-0.019-0.127-0.038-0.19-0.056
			c-0.534-2.223-1.109-4.256-1.723-6.089c-0.191-53.341-7.31-126.514-62.455-161.708c-1.89-3.945-5.165-7.204-9.519-9.345
			c-19.104-9.383-41.945-14.141-67.889-14.141c-20.469,0-39.413,3.819-56.269,11.334c-4.364,1.927-7.632,4.957-9.536,8.712
			c-47.815,27.345-74.07,86.547-74.07,167.422c0,0.017,0,0.033,0,0.049c-0.345,1.184-0.677,2.44-0.995,3.766
			c-0.062,0.018-0.125,0.036-0.187,0.055c-9.607,2.917-11.193,14.306-12.164,27.779c-0.669,9.279-0.769,19.43-0.769,24.655
			c0,5.212,0.1,15.342,0.769,24.617C22.092,302.603,23.677,313.979,33.25,316.902z"/>
		<path style="fill:#F1F1F1;" d="M241.314,199.697c0.002-0.003,0.004-0.005,0.006-0.008c0.006-0.008,0.011-0.016,0.018-0.024
			L241.314,199.697z"/>
		<path style="fill:#F1F1F1;" d="M32.167,315.819c2.117,9.395,6.539,21.55,17.315,22.918l19.286,4.287
			c0.553,0.158,1.114,0.283,1.681,0.373l0.959,0.213c3.375,0.752,6.91-0.07,9.608-2.234c0.681-0.546,1.29-1.163,1.821-1.836
			c1.171-1.071,2.158-2.266,2.988-3.476h0.226c5.485,0,10.688-1.802,15.044-5.208c1.181-0.922,2.282-1.965,3.322-3.131
			c0.045-0.05,0.116-0.129,0.159-0.179c0.331-0.382,0.651-0.773,0.943-1.155c0.054-0.07,0.124-0.165,0.187-0.25
			c0.484-0.653,0.948-1.339,1.373-2.043c0.122-0.202,0.243-0.405,0.351-0.594c0.191-0.336,0.374-0.676,0.549-1.021
			c0.169-0.333,0.328-0.673,0.502-1.056c0.18-0.4,0.349-0.804,0.5-1.195c0.17-0.436,0.329-0.877,0.48-1.341
			c0.08-0.248,0.157-0.496,0.233-0.758c0.188-0.652,0.341-1.26,0.467-1.867l0.066-0.336c0.122-0.629,0.219-1.27,0.296-1.957
			c0.023-0.207,0.044-0.414,0.059-0.588c0.07-0.799,0.106-1.528,0.106-2.228v-96.779c0-0.917-0.055-1.85-0.169-2.846
			c-0.033-0.29-0.076-0.575-0.125-0.887c-0.107-0.687-0.223-1.322-0.362-1.921c-0.07-0.307-0.147-0.609-0.236-0.94
			c-0.171-0.625-0.376-1.262-0.61-1.924c-0.083-0.236-0.167-0.472-0.262-0.71c-0.681-1.72-1.551-3.362-2.584-4.875
			c-0.131-0.193-0.27-0.381-0.418-0.582c-0.404-0.548-0.814-1.079-1.219-1.552c-0.2-0.235-0.405-0.463-0.616-0.693
			c-0.393-0.428-0.801-0.839-1.255-1.268c-0.251-0.239-0.504-0.475-0.797-0.729c-0.294-0.254-0.597-0.495-0.903-0.732
			c-0.337-0.28-0.681-0.55-1.038-0.803c-0.234-0.165-0.473-0.321-0.717-0.466c-3.98-2.591-8.57-3.957-13.325-3.957h-1.707
			c-0.505-0.585-1.031-1.124-1.58-1.618c-0.513-0.637-1.097-1.223-1.747-1.744c-1.542-1.237-3.358-2.035-5.26-2.352
			c2.632-33.335,11.031-61.314,24.547-81.501c7.164-10.668,15.772-19.15,25.638-25.271c3.307,0.457,6.713-0.026,10.421-1.561
			c0.088-0.037,0.176-0.074,0.263-0.113c10.688-4.741,23.013-7.145,36.633-7.145c18.515,0,34.186,3.043,46.462,9.124
			c3.406,1.688,7.113,2.544,11.026,2.493c7.998,5.608,14.607,12.765,20.123,21.772c11.626,18.996,18.263,45.998,20.186,82.28
			c-1.749,0.359-3.411,1.129-4.839,2.274c-0.653,0.524-1.239,1.112-1.754,1.753c-0.545,0.492-1.068,1.028-1.57,1.61h-1.706
			c-4.755,0-9.344,1.366-13.324,3.956c-0.239,0.144-0.475,0.296-0.705,0.459c-0.352,0.248-0.691,0.512-1.057,0.815
			c-0.302,0.234-0.6,0.471-0.923,0.75c-0.277,0.24-0.544,0.489-0.826,0.758c-0.405,0.384-0.797,0.779-1.195,1.21
			c-0.216,0.235-0.427,0.47-0.627,0.705c-0.404,0.474-0.79,0.974-1.209,1.541c-0.149,0.201-0.298,0.403-0.434,0.602
			c-0.54,0.794-1.004,1.567-1.383,2.276c-0.061,0.114-0.123,0.235-0.185,0.357c-0.354,0.701-0.694,1.442-0.995,2.201
			c-0.101,0.255-0.193,0.513-0.292,0.794c-0.219,0.62-0.419,1.241-0.585,1.85c-0.086,0.314-0.165,0.629-0.238,0.946
			c-0.141,0.611-0.256,1.241-0.37,1.966c-0.043,0.277-0.086,0.554-0.119,0.845c-0.114,1-0.169,1.933-0.169,2.852v96.779
			c0,0.703,0.034,1.431,0.106,2.241c0.017,0.191,0.036,0.38,0.06,0.59c0.078,0.688,0.174,1.322,0.293,1.934l0.072,0.368
			c0.126,0.601,0.278,1.205,0.469,1.866c0.073,0.251,0.15,0.498,0.232,0.751c0.144,0.443,0.301,0.879,0.465,1.302
			c0.162,0.418,0.335,0.828,0.524,1.249c0.153,0.338,0.309,0.673,0.485,1.021c0.174,0.342,0.355,0.679,0.565,1.049
			c0.102,0.179,0.207,0.356,0.333,0.563c0.432,0.718,0.904,1.412,1.397,2.076c0.047,0.063,0.097,0.131,0.136,0.183
			c0.31,0.408,0.634,0.801,0.968,1.188c0.025,0.029,0.051,0.058,0.076,0.087c0.013,0.015,0.033,0.037,0.053,0.059
			c1.021,1.152,2.143,2.22,3.35,3.166c0.035,0.027,0.071,0.055,0.107,0.082c4.359,3.329,9.503,5.132,14.945,5.132h0.224
			c0.827,1.206,1.812,2.398,2.978,3.466c0.532,0.677,1.144,1.297,1.829,1.846c2.042,1.638,4.563,2.507,7.132,2.507
			c0.825,0,1.655-0.09,2.475-0.272l0.952-0.212c0.576-0.092,1.147-0.219,1.709-0.38l19.27-4.282
			c10.776-1.368,15.198-13.523,17.314-22.918c9.575-2.923,11.16-14.299,12.131-27.753c0.669-9.277,0.77-19.406,0.77-24.617
			c0-5.224-0.1-15.374-0.77-24.656c-0.972-13.472-2.559-24.861-12.165-27.778c-0.063-0.019-0.127-0.038-0.19-0.056
			c-0.534-2.223-1.109-4.256-1.723-6.089c-0.191-53.341-7.31-126.514-62.455-161.708c-1.89-3.945-5.165-7.204-9.519-9.345
			c-19.104-9.383-41.945-14.141-67.889-14.141c-20.469,0-39.413,3.819-56.269,11.334c-4.364,1.927-7.632,4.957-9.536,8.712
			c-47.815,27.346-74.07,86.547-74.07,167.422c0,0.017,0,0.033,0,0.049c-0.345,1.184-0.677,2.44-0.995,3.766
			c-0.062,0.018-0.125,0.036-0.187,0.055c-9.607,2.917-11.193,14.306-12.164,27.779c-0.669,9.279-0.769,19.43-0.769,24.655
			c0,5.212,0.1,15.342,0.769,24.617C21.009,301.519,22.594,312.896,32.167,315.819z"/>
		<path style="fill:#E2E2E2;" d="M240.231,198.614c0.002-0.003,0.004-0.005,0.006-0.008c0.006-0.008,0.011-0.016,0.017-0.024
			L240.231,198.614z"/>
		<path style="fill:#E2E2E2;" d="M31.084,314.736c2.117,9.395,6.539,21.55,17.315,22.918l19.286,4.287
			c0.553,0.158,1.114,0.283,1.681,0.373l0.959,0.213c3.375,0.752,6.91-0.07,9.608-2.234c0.681-0.546,1.291-1.163,1.821-1.836
			c1.171-1.071,2.158-2.266,2.988-3.476h0.225c5.485,0,10.688-1.802,15.044-5.208c1.18-0.922,2.282-1.965,3.322-3.131
			c0.045-0.05,0.116-0.13,0.159-0.179c0.331-0.382,0.651-0.773,0.943-1.155c0.054-0.07,0.124-0.165,0.187-0.25
			c0.484-0.653,0.948-1.339,1.373-2.043c0.122-0.202,0.244-0.405,0.351-0.594c0.191-0.336,0.374-0.676,0.549-1.021
			c0.169-0.333,0.328-0.673,0.501-1.056c0.18-0.4,0.349-0.804,0.5-1.195c0.17-0.436,0.329-0.877,0.48-1.341
			c0.08-0.248,0.157-0.496,0.233-0.758c0.188-0.652,0.341-1.26,0.467-1.867l0.066-0.336c0.122-0.629,0.218-1.27,0.296-1.957
			c0.023-0.207,0.044-0.414,0.059-0.588c0.07-0.799,0.106-1.528,0.106-2.228v-96.779c0-0.917-0.055-1.85-0.169-2.846
			c-0.033-0.29-0.076-0.575-0.125-0.887c-0.107-0.687-0.223-1.322-0.362-1.921c-0.071-0.307-0.147-0.609-0.236-0.94
			c-0.171-0.625-0.376-1.262-0.61-1.924c-0.083-0.236-0.168-0.472-0.262-0.71c-0.68-1.719-1.551-3.362-2.584-4.875
			c-0.131-0.193-0.27-0.381-0.418-0.582c-0.404-0.548-0.814-1.079-1.219-1.552c-0.2-0.235-0.405-0.463-0.616-0.693
			c-0.393-0.428-0.801-0.839-1.255-1.268c-0.251-0.239-0.504-0.475-0.797-0.729c-0.294-0.254-0.597-0.495-0.903-0.732
			c-0.337-0.28-0.68-0.55-1.038-0.803c-0.234-0.165-0.473-0.32-0.717-0.466c-3.98-2.591-8.57-3.957-13.325-3.957h-1.707
			c-0.505-0.585-1.031-1.124-1.58-1.618c-0.512-0.637-1.097-1.223-1.747-1.744c-1.542-1.237-3.357-2.035-5.26-2.352
			c2.632-33.335,11.031-61.314,24.547-81.501c7.164-10.668,15.772-19.15,25.637-25.272c3.307,0.457,6.713-0.025,10.421-1.56
			c0.088-0.037,0.176-0.074,0.263-0.113c10.688-4.741,23.013-7.145,36.633-7.145c18.515,0,34.186,3.043,46.462,9.124
			c3.406,1.687,7.113,2.544,11.026,2.493c7.998,5.608,14.607,12.765,20.123,21.772c11.626,18.996,18.263,45.998,20.186,82.28
			c-1.749,0.359-3.411,1.129-4.839,2.274c-0.653,0.524-1.24,1.112-1.754,1.752c-0.545,0.492-1.068,1.028-1.57,1.61h-1.706
			c-4.755,0-9.344,1.366-13.324,3.956c-0.239,0.144-0.475,0.296-0.705,0.459c-0.352,0.248-0.691,0.512-1.057,0.816
			c-0.302,0.234-0.6,0.471-0.923,0.75c-0.277,0.24-0.544,0.489-0.826,0.758c-0.405,0.384-0.797,0.779-1.195,1.21
			c-0.216,0.235-0.427,0.47-0.627,0.705c-0.404,0.474-0.79,0.974-1.209,1.541c-0.149,0.201-0.298,0.403-0.434,0.602
			c-0.54,0.794-1.004,1.567-1.383,2.276c-0.061,0.114-0.123,0.235-0.185,0.357c-0.354,0.701-0.694,1.442-0.995,2.201
			c-0.101,0.255-0.193,0.513-0.292,0.794c-0.218,0.62-0.419,1.241-0.585,1.85c-0.086,0.314-0.165,0.63-0.238,0.946
			c-0.141,0.611-0.256,1.241-0.37,1.966c-0.044,0.277-0.086,0.554-0.119,0.845c-0.114,1-0.169,1.933-0.169,2.852v96.779
			c0,0.703,0.034,1.431,0.106,2.241c0.017,0.191,0.036,0.38,0.06,0.59c0.078,0.687,0.174,1.322,0.293,1.934l0.072,0.368
			c0.126,0.601,0.278,1.205,0.469,1.866c0.073,0.251,0.15,0.498,0.232,0.75c0.144,0.443,0.301,0.879,0.465,1.302
			c0.162,0.418,0.335,0.829,0.524,1.249c0.153,0.338,0.309,0.673,0.485,1.022c0.173,0.342,0.355,0.679,0.565,1.049
			c0.102,0.179,0.207,0.356,0.333,0.563c0.432,0.718,0.904,1.412,1.397,2.076c0.047,0.063,0.097,0.131,0.136,0.183
			c0.31,0.408,0.634,0.801,0.968,1.188c0.025,0.029,0.051,0.058,0.076,0.087c0.013,0.015,0.033,0.037,0.052,0.058
			c1.021,1.152,2.143,2.221,3.35,3.166c0.035,0.027,0.071,0.055,0.107,0.082c4.36,3.329,9.503,5.132,14.945,5.132h0.224
			c0.828,1.206,1.812,2.398,2.978,3.466c0.532,0.677,1.144,1.297,1.829,1.846c2.042,1.638,4.563,2.507,7.132,2.507
			c0.825,0,1.655-0.09,2.475-0.272l0.952-0.211c0.576-0.092,1.147-0.219,1.709-0.38l19.27-4.282
			c10.776-1.368,15.198-13.523,17.314-22.918c9.575-2.923,11.16-14.299,12.131-27.753c0.669-9.277,0.77-19.406,0.77-24.617
			c0-5.224-0.1-15.374-0.77-24.655c-0.972-13.472-2.559-24.861-12.165-27.778c-0.063-0.019-0.127-0.038-0.19-0.056
			c-0.534-2.223-1.109-4.256-1.723-6.089c-0.191-53.341-7.31-126.514-62.455-161.708c-1.89-3.945-5.165-7.204-9.519-9.345
			c-19.104-9.383-41.945-14.141-67.889-14.141c-20.469,0-39.413,3.819-56.269,11.334c-4.364,1.927-7.632,4.957-9.536,8.712
			c-47.815,27.345-74.07,86.547-74.07,167.422c0,0.017,0,0.033,0,0.049c-0.345,1.184-0.677,2.44-0.995,3.766
			c-0.062,0.018-0.125,0.036-0.187,0.055c-9.607,2.917-11.193,14.306-12.164,27.779c-0.669,9.279-0.769,19.43-0.769,24.655
			c0,5.213,0.1,15.342,0.769,24.617C19.926,300.436,21.511,311.813,31.084,314.736z"/>
		<path style="fill:#D4D4D4;" d="M239.148,197.531c0.002-0.003,0.004-0.005,0.006-0.008c0.006-0.008,0.012-0.016,0.018-0.024
			L239.148,197.531z"/>
		<path style="fill:#D4D4D4;" d="M30.001,313.653c2.117,9.395,6.539,21.55,17.315,22.918l19.286,4.287
			c0.553,0.158,1.114,0.283,1.681,0.373l0.959,0.213c3.375,0.752,6.91-0.07,9.608-2.234c0.681-0.547,1.291-1.163,1.821-1.836
			c1.171-1.071,2.158-2.266,2.988-3.476h0.226c5.485,0,10.688-1.802,15.044-5.208c1.181-0.922,2.282-1.965,3.322-3.131
			c0.045-0.05,0.116-0.129,0.159-0.179c0.331-0.382,0.651-0.773,0.943-1.155c0.054-0.07,0.124-0.165,0.187-0.25
			c0.484-0.653,0.948-1.339,1.373-2.043c0.122-0.202,0.243-0.405,0.351-0.594c0.191-0.336,0.374-0.676,0.549-1.021
			c0.169-0.333,0.328-0.673,0.502-1.056c0.18-0.4,0.349-0.804,0.5-1.195c0.17-0.436,0.329-0.877,0.48-1.341
			c0.08-0.248,0.157-0.496,0.233-0.758c0.188-0.652,0.341-1.26,0.467-1.867l0.066-0.336c0.122-0.629,0.218-1.27,0.296-1.957
			c0.023-0.207,0.044-0.414,0.059-0.588c0.07-0.799,0.106-1.528,0.106-2.228v-96.779c0-0.917-0.055-1.85-0.169-2.846
			c-0.033-0.29-0.076-0.575-0.125-0.887c-0.107-0.687-0.223-1.322-0.362-1.921c-0.071-0.307-0.147-0.609-0.236-0.94
			c-0.171-0.625-0.376-1.262-0.61-1.924c-0.083-0.236-0.168-0.472-0.262-0.71c-0.68-1.72-1.551-3.362-2.584-4.875
			c-0.131-0.193-0.27-0.381-0.418-0.582c-0.404-0.548-0.814-1.079-1.219-1.552c-0.2-0.235-0.405-0.463-0.616-0.693
			c-0.393-0.428-0.801-0.839-1.255-1.268c-0.251-0.239-0.504-0.475-0.797-0.729c-0.294-0.254-0.597-0.495-0.903-0.732
			c-0.337-0.28-0.68-0.55-1.038-0.803c-0.234-0.165-0.473-0.321-0.717-0.466c-3.98-2.591-8.57-3.957-13.325-3.957h-1.707
			c-0.505-0.585-1.031-1.124-1.58-1.618c-0.513-0.637-1.097-1.223-1.747-1.744c-1.542-1.237-3.357-2.035-5.26-2.352
			c2.632-33.335,11.031-61.314,24.547-81.501c7.163-10.668,15.772-19.15,25.638-25.271c3.307,0.457,6.713-0.025,10.421-1.56
			c0.088-0.037,0.176-0.074,0.263-0.113c10.688-4.741,23.013-7.145,36.633-7.145c18.515,0,34.186,3.043,46.462,9.124
			c3.406,1.688,7.113,2.544,11.026,2.493c7.998,5.608,14.607,12.765,20.123,21.772c11.626,18.996,18.263,45.998,20.186,82.28
			c-1.749,0.36-3.411,1.129-4.839,2.274c-0.653,0.524-1.239,1.112-1.754,1.752c-0.545,0.492-1.068,1.028-1.57,1.61h-1.706
			c-4.755,0-9.344,1.366-13.324,3.956c-0.239,0.144-0.475,0.296-0.705,0.459c-0.352,0.248-0.691,0.512-1.057,0.815
			c-0.302,0.234-0.6,0.471-0.923,0.75c-0.277,0.24-0.544,0.489-0.826,0.758c-0.405,0.384-0.797,0.779-1.195,1.21
			c-0.216,0.235-0.427,0.47-0.627,0.705c-0.404,0.474-0.79,0.974-1.209,1.541c-0.149,0.201-0.298,0.403-0.434,0.602
			c-0.54,0.794-1.004,1.567-1.383,2.276c-0.061,0.114-0.123,0.235-0.185,0.357c-0.354,0.701-0.694,1.442-0.995,2.201
			c-0.101,0.255-0.193,0.513-0.292,0.794c-0.218,0.62-0.419,1.241-0.585,1.85c-0.086,0.314-0.165,0.629-0.238,0.946
			c-0.141,0.611-0.256,1.241-0.37,1.966c-0.043,0.277-0.086,0.554-0.119,0.845c-0.114,1-0.169,1.933-0.169,2.852v96.779
			c0,0.703,0.034,1.431,0.106,2.241c0.017,0.191,0.036,0.38,0.06,0.589c0.078,0.688,0.174,1.323,0.293,1.934l0.072,0.368
			c0.126,0.601,0.278,1.205,0.469,1.866c0.073,0.251,0.15,0.498,0.232,0.751c0.144,0.443,0.301,0.879,0.465,1.302
			c0.162,0.418,0.335,0.828,0.524,1.249c0.153,0.338,0.309,0.673,0.485,1.021c0.173,0.342,0.355,0.679,0.565,1.049
			c0.102,0.18,0.207,0.356,0.333,0.563c0.432,0.718,0.904,1.412,1.397,2.076c0.047,0.063,0.097,0.131,0.136,0.183
			c0.31,0.408,0.634,0.801,0.968,1.188c0.025,0.029,0.051,0.058,0.076,0.087c0.013,0.015,0.033,0.037,0.053,0.059
			c1.021,1.152,2.143,2.22,3.35,3.166c0.035,0.027,0.071,0.055,0.107,0.082c4.359,3.329,9.503,5.132,14.945,5.132h0.224
			c0.828,1.206,1.812,2.398,2.979,3.466c0.532,0.677,1.144,1.297,1.828,1.846c2.042,1.638,4.563,2.507,7.133,2.507
			c0.825,0,1.655-0.09,2.475-0.272l0.952-0.212c0.576-0.092,1.147-0.219,1.709-0.38l19.27-4.282
			c10.776-1.368,15.198-13.523,17.314-22.918c9.575-2.923,11.16-14.299,12.131-27.753c0.669-9.277,0.77-19.406,0.77-24.617
			c0-5.224-0.1-15.374-0.77-24.655c-0.972-13.472-2.559-24.861-12.165-27.778c-0.063-0.019-0.127-0.038-0.19-0.056
			c-0.534-2.223-1.109-4.256-1.723-6.089c-0.191-53.341-7.31-126.514-62.455-161.708c-1.89-3.945-5.165-7.204-9.519-9.345
			c-19.104-9.383-41.945-14.141-67.889-14.141c-20.469,0-39.413,3.819-56.269,11.334c-4.364,1.927-7.632,4.957-9.536,8.712
			c-47.815,27.345-74.07,86.547-74.07,167.422c0,0.017,0,0.033,0,0.049c-0.345,1.184-0.677,2.44-0.995,3.766
			c-0.062,0.018-0.125,0.036-0.187,0.055c-9.607,2.917-11.193,14.306-12.164,27.779c-0.669,9.279-0.769,19.43-0.769,24.655
			c0,5.212,0.1,15.342,0.769,24.617C18.842,299.353,20.427,310.729,30.001,313.653z"/>
		<path style="fill:#C5C5C5;" d="M238.065,196.448c0.002-0.003,0.004-0.005,0.006-0.008c0.006-0.008,0.011-0.016,0.018-0.024
			L238.065,196.448z"/>
		<path style="fill:#C5C5C5;" d="M28.918,312.569c2.117,9.395,6.539,21.55,17.315,22.918l19.286,4.287
			c0.553,0.158,1.114,0.282,1.681,0.373l0.959,0.213c3.375,0.752,6.91-0.07,9.608-2.234c0.681-0.546,1.291-1.163,1.821-1.836
			c1.171-1.071,2.158-2.266,2.988-3.476h0.225c5.485,0,10.688-1.802,15.044-5.208c1.181-0.922,2.282-1.965,3.322-3.131
			c0.045-0.05,0.116-0.129,0.159-0.179c0.331-0.382,0.651-0.773,0.943-1.155c0.054-0.07,0.124-0.165,0.187-0.251
			c0.484-0.653,0.948-1.339,1.373-2.043c0.122-0.202,0.244-0.405,0.351-0.594c0.191-0.336,0.374-0.676,0.549-1.021
			c0.169-0.333,0.328-0.673,0.501-1.056c0.18-0.4,0.349-0.804,0.501-1.195c0.17-0.436,0.329-0.877,0.48-1.342
			c0.08-0.248,0.157-0.496,0.233-0.758c0.188-0.652,0.341-1.26,0.467-1.867l0.066-0.336c0.122-0.629,0.218-1.27,0.296-1.957
			c0.023-0.207,0.044-0.414,0.059-0.588c0.07-0.799,0.106-1.528,0.106-2.228v-96.778c0-0.917-0.055-1.85-0.169-2.846
			c-0.033-0.29-0.076-0.575-0.125-0.887c-0.108-0.687-0.223-1.322-0.362-1.921c-0.071-0.307-0.147-0.609-0.236-0.94
			c-0.171-0.625-0.376-1.262-0.61-1.924c-0.083-0.236-0.167-0.472-0.262-0.71c-0.68-1.719-1.551-3.362-2.584-4.875
			c-0.131-0.193-0.27-0.381-0.418-0.582c-0.404-0.548-0.814-1.079-1.219-1.552c-0.2-0.235-0.405-0.463-0.616-0.693
			c-0.393-0.428-0.801-0.839-1.255-1.268c-0.251-0.239-0.504-0.475-0.797-0.729c-0.294-0.254-0.597-0.495-0.903-0.732
			c-0.337-0.28-0.68-0.55-1.038-0.803c-0.234-0.165-0.473-0.32-0.717-0.466c-3.98-2.591-8.571-3.957-13.325-3.957h-1.707
			c-0.505-0.585-1.031-1.124-1.58-1.618c-0.513-0.637-1.097-1.223-1.747-1.744c-1.542-1.237-3.357-2.036-5.26-2.352
			c2.632-33.335,11.031-61.314,24.547-81.501c7.163-10.668,15.772-19.15,25.637-25.271c3.307,0.457,6.713-0.025,10.421-1.56
			c0.088-0.037,0.176-0.074,0.263-0.113c10.688-4.741,23.013-7.145,36.633-7.145c18.515,0,34.186,3.043,46.462,9.124
			c3.406,1.687,7.113,2.544,11.026,2.493c7.998,5.608,14.607,12.765,20.123,21.772c11.626,18.996,18.263,45.998,20.186,82.28
			c-1.749,0.36-3.411,1.129-4.839,2.274c-0.653,0.524-1.24,1.112-1.754,1.753c-0.545,0.492-1.068,1.028-1.57,1.61h-1.706
			c-4.755,0-9.344,1.366-13.324,3.956c-0.239,0.144-0.475,0.296-0.705,0.459c-0.352,0.248-0.691,0.512-1.057,0.815
			c-0.302,0.234-0.6,0.471-0.923,0.75c-0.277,0.24-0.544,0.489-0.826,0.758c-0.405,0.384-0.797,0.779-1.195,1.21
			c-0.216,0.235-0.427,0.47-0.627,0.705c-0.404,0.474-0.789,0.974-1.209,1.541c-0.149,0.201-0.298,0.403-0.434,0.602
			c-0.54,0.794-1.004,1.567-1.383,2.276c-0.061,0.114-0.123,0.235-0.185,0.357c-0.354,0.701-0.694,1.442-0.995,2.201
			c-0.101,0.255-0.193,0.513-0.292,0.794c-0.219,0.62-0.419,1.241-0.585,1.85c-0.086,0.314-0.165,0.63-0.238,0.946
			c-0.141,0.611-0.256,1.241-0.37,1.966c-0.043,0.277-0.086,0.554-0.119,0.845c-0.114,1-0.169,1.933-0.169,2.852v96.778
			c0,0.703,0.034,1.431,0.106,2.241c0.017,0.191,0.036,0.38,0.06,0.59c0.078,0.687,0.174,1.323,0.293,1.934l0.072,0.368
			c0.126,0.601,0.278,1.205,0.469,1.866c0.073,0.251,0.15,0.498,0.232,0.75c0.144,0.443,0.301,0.879,0.465,1.302
			c0.162,0.418,0.335,0.828,0.524,1.249c0.153,0.338,0.309,0.673,0.485,1.021c0.173,0.342,0.355,0.679,0.565,1.049
			c0.102,0.18,0.207,0.356,0.333,0.563c0.432,0.718,0.904,1.412,1.397,2.076c0.047,0.063,0.097,0.131,0.136,0.183
			c0.31,0.408,0.634,0.801,0.968,1.188c0.025,0.029,0.051,0.058,0.076,0.087c0.013,0.015,0.033,0.037,0.052,0.058
			c1.021,1.152,2.143,2.221,3.351,3.166c0.035,0.027,0.071,0.055,0.107,0.082c4.36,3.329,9.503,5.132,14.945,5.132h0.224
			c0.828,1.206,1.812,2.398,2.979,3.466c0.532,0.677,1.144,1.297,1.829,1.846c2.042,1.638,4.563,2.507,7.132,2.507
			c0.825,0,1.655-0.089,2.475-0.272l0.952-0.212c0.576-0.092,1.147-0.219,1.709-0.38l19.27-4.282
			c10.776-1.368,15.198-13.523,17.314-22.918c9.575-2.923,11.16-14.299,12.131-27.753c0.669-9.277,0.77-19.406,0.77-24.617
			c0-5.224-0.1-15.374-0.77-24.656c-0.972-13.472-2.559-24.861-12.165-27.778c-0.063-0.019-0.127-0.038-0.19-0.056
			c-0.534-2.223-1.109-4.256-1.723-6.089c-0.191-53.341-7.31-126.514-62.455-161.708c-1.89-3.945-5.165-7.204-9.519-9.345
			c-19.104-9.383-41.945-14.141-67.889-14.141c-20.469,0-39.413,3.818-56.269,11.334c-4.364,1.927-7.632,4.957-9.536,8.712
			c-47.815,27.345-74.07,86.547-74.07,167.422c0,0.017,0,0.033,0,0.049c-0.345,1.184-0.677,2.44-0.995,3.766
			c-0.062,0.018-0.125,0.036-0.187,0.055c-9.607,2.917-11.193,14.306-12.164,27.779c-0.669,9.279-0.769,19.43-0.769,24.655
			c0,5.212,0.1,15.342,0.769,24.617C17.759,298.27,19.344,309.646,28.918,312.569z"/>
		<path style="fill:#B7B7B7;" d="M236.982,195.365c0.002-0.003,0.004-0.005,0.006-0.008c0.006-0.008,0.012-0.016,0.018-0.024
			L236.982,195.365z"/>
		<path style="fill:#B7B7B7;" d="M27.834,311.486c2.117,9.395,6.539,21.55,17.315,22.918l19.286,4.287
			c0.553,0.158,1.114,0.283,1.681,0.373l0.959,0.213c3.375,0.752,6.91-0.07,9.608-2.234c0.681-0.547,1.29-1.163,1.821-1.837
			c1.171-1.071,2.158-2.266,2.988-3.476h0.225c5.485,0,10.688-1.802,15.044-5.208c1.181-0.922,2.282-1.965,3.322-3.131
			c0.045-0.05,0.115-0.129,0.159-0.179c0.331-0.382,0.651-0.773,0.943-1.155c0.054-0.07,0.124-0.165,0.187-0.251
			c0.484-0.653,0.948-1.339,1.373-2.043c0.122-0.202,0.243-0.405,0.351-0.594c0.191-0.336,0.374-0.676,0.549-1.02
			c0.169-0.333,0.328-0.673,0.501-1.056c0.18-0.4,0.349-0.804,0.501-1.195c0.17-0.436,0.329-0.877,0.48-1.342
			c0.08-0.248,0.157-0.496,0.233-0.758c0.188-0.652,0.341-1.26,0.467-1.867l0.066-0.336c0.122-0.629,0.218-1.27,0.296-1.957
			c0.023-0.207,0.044-0.414,0.059-0.588c0.07-0.799,0.106-1.528,0.106-2.228v-96.778c0-0.917-0.055-1.85-0.169-2.846
			c-0.033-0.29-0.077-0.575-0.125-0.887c-0.107-0.687-0.223-1.322-0.362-1.921c-0.071-0.307-0.147-0.609-0.236-0.94
			c-0.171-0.625-0.376-1.262-0.61-1.924c-0.083-0.236-0.168-0.472-0.262-0.71c-0.68-1.72-1.551-3.362-2.584-4.875
			c-0.131-0.193-0.27-0.381-0.418-0.582c-0.404-0.548-0.814-1.079-1.219-1.552c-0.2-0.235-0.405-0.463-0.616-0.693
			c-0.393-0.428-0.801-0.839-1.255-1.268c-0.251-0.239-0.504-0.475-0.797-0.729c-0.294-0.254-0.597-0.495-0.903-0.732
			c-0.337-0.28-0.681-0.55-1.038-0.803c-0.234-0.165-0.473-0.321-0.717-0.466c-3.98-2.591-8.57-3.957-13.325-3.957h-1.707
			c-0.505-0.585-1.031-1.124-1.58-1.619c-0.513-0.637-1.097-1.223-1.747-1.744c-1.542-1.237-3.357-2.035-5.26-2.352
			c2.632-33.335,11.031-61.314,24.547-81.501c7.163-10.668,15.772-19.15,25.637-25.271c3.307,0.457,6.713-0.025,10.421-1.561
			c0.088-0.037,0.176-0.074,0.263-0.113c10.688-4.741,23.013-7.145,36.633-7.145c18.515,0,34.186,3.043,46.462,9.124
			c3.406,1.688,7.112,2.544,11.026,2.493c7.998,5.608,14.607,12.765,20.123,21.772c11.626,18.996,18.263,45.998,20.186,82.28
			c-1.749,0.359-3.411,1.129-4.839,2.274c-0.653,0.524-1.239,1.112-1.754,1.753c-0.545,0.492-1.068,1.028-1.57,1.61h-1.706
			c-4.755,0-9.344,1.366-13.324,3.956c-0.239,0.144-0.475,0.296-0.705,0.459c-0.352,0.248-0.691,0.512-1.057,0.815
			c-0.302,0.234-0.6,0.471-0.923,0.75c-0.277,0.24-0.544,0.489-0.826,0.758c-0.405,0.384-0.797,0.779-1.195,1.21
			c-0.216,0.235-0.427,0.47-0.627,0.705c-0.404,0.474-0.789,0.974-1.209,1.541c-0.149,0.201-0.298,0.403-0.434,0.602
			c-0.54,0.794-1.004,1.567-1.383,2.276c-0.061,0.114-0.123,0.235-0.185,0.357c-0.354,0.701-0.694,1.442-0.995,2.201
			c-0.101,0.255-0.193,0.513-0.292,0.794c-0.219,0.62-0.419,1.241-0.585,1.85c-0.086,0.315-0.165,0.63-0.238,0.946
			c-0.141,0.611-0.256,1.24-0.37,1.966c-0.044,0.277-0.086,0.554-0.119,0.845c-0.114,1-0.169,1.933-0.169,2.852v96.778
			c0,0.703,0.034,1.431,0.106,2.241c0.017,0.191,0.036,0.38,0.06,0.59c0.078,0.688,0.174,1.323,0.293,1.934l0.072,0.368
			c0.126,0.601,0.278,1.205,0.469,1.866c0.073,0.251,0.15,0.498,0.232,0.751c0.144,0.443,0.301,0.879,0.465,1.302
			c0.162,0.418,0.335,0.828,0.524,1.249c0.153,0.338,0.309,0.673,0.485,1.021c0.173,0.342,0.355,0.679,0.565,1.049
			c0.102,0.18,0.207,0.356,0.333,0.563c0.432,0.718,0.904,1.412,1.397,2.076c0.047,0.063,0.097,0.131,0.136,0.183
			c0.31,0.408,0.634,0.801,0.968,1.188c0.025,0.029,0.051,0.058,0.076,0.087c0.013,0.015,0.033,0.037,0.052,0.059
			c1.021,1.152,2.143,2.221,3.351,3.166c0.035,0.027,0.071,0.055,0.107,0.082c4.36,3.329,9.503,5.132,14.945,5.132h0.224
			c0.828,1.206,1.812,2.398,2.979,3.466c0.532,0.677,1.144,1.297,1.828,1.846c2.042,1.638,4.563,2.507,7.133,2.507
			c0.825,0,1.655-0.09,2.475-0.272l0.952-0.212c0.576-0.092,1.147-0.219,1.709-0.38l19.27-4.282
			c10.776-1.368,15.198-13.523,17.314-22.918c9.575-2.923,11.16-14.299,12.131-27.753c0.669-9.277,0.77-19.406,0.77-24.617
			c0-5.224-0.1-15.374-0.77-24.655c-0.972-13.472-2.559-24.861-12.165-27.778c-0.063-0.019-0.127-0.038-0.19-0.056
			c-0.534-2.223-1.109-4.256-1.723-6.089c-0.191-53.341-7.31-126.514-62.455-161.708c-1.89-3.945-5.165-7.204-9.519-9.345
			c-19.104-9.383-41.945-14.141-67.889-14.141c-20.469,0-39.413,3.819-56.269,11.334c-4.364,1.927-7.632,4.957-9.536,8.712
			c-47.815,27.345-74.07,86.547-74.07,167.422c0,0.017,0,0.033,0,0.049c-0.345,1.184-0.677,2.44-0.995,3.766
			c-0.062,0.018-0.125,0.036-0.187,0.055c-9.607,2.917-11.193,14.306-12.164,27.779c-0.669,9.279-0.769,19.43-0.769,24.655
			c0,5.212,0.1,15.342,0.769,24.617C16.676,297.187,18.261,308.563,27.834,311.486z"/>
		<path style="fill:#A8A8A8;" d="M235.898,194.281c0.002-0.003,0.004-0.005,0.006-0.008c0.006-0.008,0.011-0.016,0.018-0.024
			L235.898,194.281z"/>
		<path style="fill:#A8A8A8;" d="M26.751,310.403c2.117,9.395,6.539,21.55,17.315,22.918l19.286,4.287
			c0.553,0.158,1.114,0.282,1.681,0.373l0.959,0.213c3.375,0.752,6.91-0.07,9.608-2.234c0.681-0.546,1.29-1.163,1.821-1.836
			c1.171-1.071,2.158-2.266,2.988-3.476h0.225c5.485,0,10.688-1.802,15.044-5.208c1.181-0.922,2.282-1.965,3.322-3.131
			c0.045-0.05,0.115-0.129,0.159-0.179c0.331-0.382,0.651-0.773,0.943-1.155c0.054-0.07,0.124-0.165,0.187-0.25
			c0.484-0.653,0.948-1.339,1.373-2.043c0.123-0.202,0.244-0.405,0.351-0.594c0.191-0.336,0.374-0.676,0.549-1.02
			c0.169-0.333,0.328-0.674,0.501-1.056c0.18-0.4,0.349-0.804,0.501-1.195c0.17-0.436,0.329-0.877,0.48-1.341
			c0.08-0.248,0.157-0.496,0.233-0.758c0.188-0.652,0.341-1.26,0.467-1.867l0.066-0.336c0.122-0.63,0.218-1.27,0.296-1.957
			c0.023-0.207,0.044-0.414,0.059-0.588c0.07-0.799,0.106-1.528,0.106-2.228v-96.779c0-0.917-0.055-1.85-0.169-2.846
			c-0.033-0.29-0.076-0.575-0.125-0.887c-0.107-0.687-0.223-1.322-0.362-1.921c-0.07-0.307-0.147-0.609-0.236-0.94
			c-0.171-0.625-0.376-1.262-0.61-1.924c-0.083-0.236-0.167-0.472-0.262-0.71c-0.681-1.72-1.551-3.362-2.584-4.875
			c-0.131-0.193-0.27-0.381-0.418-0.582c-0.404-0.548-0.814-1.079-1.219-1.552c-0.2-0.235-0.405-0.463-0.616-0.693
			c-0.393-0.428-0.801-0.839-1.255-1.268c-0.251-0.239-0.504-0.475-0.797-0.729c-0.294-0.254-0.597-0.495-0.903-0.732
			c-0.337-0.28-0.681-0.55-1.038-0.803c-0.234-0.165-0.473-0.321-0.717-0.466c-3.98-2.591-8.57-3.957-13.325-3.957h-1.707
			c-0.505-0.585-1.031-1.124-1.58-1.618c-0.513-0.637-1.097-1.223-1.747-1.744c-1.542-1.237-3.357-2.035-5.26-2.352
			c2.632-33.335,11.031-61.314,24.547-81.502c7.163-10.668,15.772-19.15,25.637-25.271c3.307,0.457,6.713-0.025,10.421-1.56
			c0.088-0.037,0.176-0.074,0.263-0.113c10.688-4.741,23.013-7.145,36.633-7.145c18.515,0,34.186,3.043,46.462,9.124
			c3.406,1.687,7.113,2.544,11.026,2.493c7.998,5.608,14.607,12.765,20.123,21.773c11.626,18.996,18.263,45.998,20.186,82.28
			c-1.749,0.359-3.411,1.129-4.839,2.274c-0.653,0.524-1.24,1.112-1.754,1.753c-0.545,0.492-1.068,1.028-1.57,1.61h-1.706
			c-4.755,0-9.344,1.366-13.324,3.956c-0.239,0.144-0.475,0.296-0.705,0.459c-0.352,0.248-0.691,0.512-1.057,0.816
			c-0.302,0.234-0.6,0.471-0.923,0.75c-0.277,0.24-0.544,0.489-0.826,0.758c-0.405,0.384-0.797,0.779-1.195,1.21
			c-0.216,0.235-0.427,0.47-0.627,0.705c-0.404,0.474-0.79,0.974-1.209,1.541c-0.149,0.201-0.298,0.403-0.434,0.602
			c-0.54,0.794-1.004,1.567-1.383,2.276c-0.061,0.114-0.123,0.235-0.185,0.357c-0.354,0.701-0.694,1.442-0.995,2.201
			c-0.101,0.255-0.193,0.513-0.292,0.794c-0.218,0.62-0.419,1.241-0.585,1.85c-0.086,0.314-0.165,0.63-0.238,0.946
			c-0.141,0.611-0.256,1.241-0.37,1.966c-0.043,0.277-0.086,0.554-0.119,0.845c-0.114,1-0.169,1.933-0.169,2.852v96.779
			c0,0.703,0.034,1.431,0.106,2.241c0.017,0.191,0.036,0.38,0.06,0.59c0.078,0.687,0.174,1.323,0.293,1.934l0.072,0.368
			c0.126,0.601,0.278,1.205,0.469,1.866c0.073,0.251,0.15,0.498,0.232,0.751c0.144,0.443,0.301,0.879,0.465,1.302
			c0.162,0.418,0.335,0.828,0.524,1.249c0.153,0.338,0.309,0.673,0.485,1.021c0.174,0.342,0.355,0.679,0.565,1.049
			c0.102,0.18,0.207,0.356,0.333,0.563c0.432,0.718,0.904,1.412,1.397,2.076c0.047,0.063,0.097,0.131,0.136,0.183
			c0.31,0.408,0.634,0.801,0.968,1.188c0.025,0.029,0.051,0.058,0.076,0.087c0.013,0.015,0.033,0.036,0.052,0.058
			c1.021,1.152,2.143,2.221,3.35,3.166c0.035,0.027,0.071,0.055,0.107,0.082c4.36,3.329,9.503,5.132,14.945,5.132h0.224
			c0.828,1.206,1.812,2.398,2.978,3.466c0.532,0.677,1.144,1.297,1.829,1.846c2.042,1.638,4.563,2.507,7.132,2.507
			c0.825,0,1.655-0.09,2.475-0.272l0.952-0.212c0.576-0.092,1.147-0.219,1.709-0.38l19.27-4.282
			c10.776-1.368,15.198-13.523,17.314-22.918c9.575-2.923,11.16-14.299,12.131-27.753c0.669-9.277,0.77-19.406,0.77-24.617
			c0-5.224-0.1-15.374-0.77-24.656c-0.972-13.472-2.559-24.861-12.165-27.778c-0.063-0.019-0.127-0.038-0.19-0.056
			c-0.534-2.223-1.109-4.256-1.723-6.089c-0.191-53.341-7.31-126.514-62.455-161.708c-1.89-3.945-5.165-7.204-9.519-9.345
			c-19.104-9.383-41.945-14.141-67.889-14.141c-20.469,0-39.413,3.818-56.27,11.334c-4.364,1.927-7.632,4.957-9.536,8.712
			c-47.815,27.345-74.07,86.547-74.07,167.422c0,0.017,0,0.033,0,0.049c-0.345,1.184-0.677,2.44-0.995,3.766
			c-0.062,0.018-0.125,0.036-0.187,0.055c-9.607,2.917-11.193,14.306-12.164,27.779c-0.669,9.279-0.769,19.43-0.769,24.655
			c0,5.212,0.1,15.342,0.769,24.617C15.593,296.103,17.178,307.48,26.751,310.403z"/>
		<path style="fill:#9A9A9A;" d="M234.815,193.198c0.002-0.003,0.004-0.005,0.006-0.008c0.006-0.008,0.011-0.016,0.018-0.024
			L234.815,193.198z"/>
		<path style="fill:#9A9A9A;" d="M25.668,309.32c2.117,9.395,6.539,21.55,17.315,22.918l19.286,4.287
			c0.553,0.158,1.114,0.283,1.681,0.373l0.959,0.213c3.375,0.752,6.91-0.07,9.608-2.234c0.681-0.546,1.29-1.163,1.821-1.836
			c1.171-1.071,2.158-2.266,2.988-3.476h0.225c5.485,0,10.688-1.802,15.044-5.208c1.181-0.922,2.282-1.965,3.322-3.131
			c0.045-0.05,0.116-0.129,0.159-0.179c0.331-0.382,0.651-0.773,0.943-1.155c0.054-0.07,0.124-0.165,0.187-0.25
			c0.484-0.653,0.948-1.339,1.373-2.043c0.122-0.202,0.243-0.405,0.351-0.594c0.191-0.336,0.374-0.676,0.549-1.021
			c0.169-0.333,0.328-0.673,0.502-1.056c0.18-0.4,0.349-0.804,0.5-1.195c0.17-0.436,0.329-0.877,0.48-1.341
			c0.08-0.248,0.157-0.496,0.233-0.758c0.188-0.652,0.341-1.26,0.467-1.867l0.066-0.336c0.122-0.629,0.218-1.27,0.296-1.957
			c0.023-0.207,0.044-0.414,0.059-0.588c0.07-0.799,0.106-1.528,0.106-2.228V207.88c0-0.917-0.055-1.85-0.169-2.846
			c-0.032-0.29-0.076-0.575-0.125-0.887c-0.107-0.687-0.223-1.322-0.362-1.921c-0.07-0.307-0.147-0.609-0.236-0.94
			c-0.171-0.625-0.376-1.262-0.61-1.924c-0.083-0.236-0.167-0.472-0.262-0.71c-0.681-1.72-1.551-3.362-2.584-4.875
			c-0.131-0.193-0.27-0.381-0.418-0.582c-0.404-0.548-0.814-1.079-1.219-1.552c-0.2-0.235-0.405-0.463-0.616-0.693
			c-0.393-0.428-0.801-0.839-1.255-1.268c-0.251-0.239-0.504-0.475-0.797-0.729c-0.294-0.254-0.597-0.495-0.903-0.732
			c-0.337-0.28-0.681-0.55-1.038-0.803c-0.234-0.165-0.473-0.32-0.717-0.466c-3.98-2.591-8.57-3.957-13.325-3.957h-1.707
			c-0.505-0.585-1.031-1.124-1.58-1.618c-0.513-0.637-1.097-1.223-1.747-1.744c-1.542-1.237-3.357-2.036-5.26-2.352
			c2.632-33.335,11.031-61.314,24.547-81.501c7.163-10.668,15.772-19.15,25.637-25.271c3.307,0.457,6.713-0.026,10.421-1.561
			c0.088-0.037,0.176-0.074,0.263-0.113c10.688-4.741,23.013-7.145,36.633-7.145c18.515,0,34.186,3.043,46.462,9.124
			c3.406,1.688,7.112,2.544,11.026,2.493c7.998,5.608,14.607,12.765,20.122,21.773c11.626,18.996,18.263,45.998,20.186,82.28
			c-1.749,0.359-3.411,1.129-4.839,2.274c-0.653,0.524-1.239,1.112-1.754,1.752c-0.545,0.492-1.068,1.028-1.57,1.61h-1.706
			c-4.755,0-9.344,1.366-13.324,3.956c-0.239,0.144-0.475,0.296-0.705,0.459c-0.352,0.248-0.691,0.512-1.057,0.815
			c-0.302,0.234-0.6,0.471-0.923,0.75c-0.277,0.24-0.544,0.489-0.826,0.758c-0.405,0.384-0.797,0.779-1.195,1.21
			c-0.216,0.235-0.427,0.47-0.627,0.705c-0.404,0.474-0.79,0.974-1.209,1.541c-0.149,0.201-0.298,0.403-0.434,0.602
			c-0.54,0.794-1.004,1.567-1.383,2.276c-0.061,0.114-0.123,0.235-0.185,0.357c-0.354,0.701-0.694,1.442-0.995,2.201
			c-0.101,0.255-0.193,0.513-0.292,0.794c-0.218,0.62-0.419,1.241-0.585,1.85c-0.086,0.314-0.165,0.63-0.238,0.946
			c-0.141,0.611-0.256,1.241-0.37,1.966c-0.044,0.277-0.086,0.554-0.119,0.845c-0.114,1-0.169,1.933-0.169,2.852v96.779
			c0,0.703,0.034,1.431,0.106,2.241c0.017,0.191,0.036,0.38,0.06,0.59c0.078,0.688,0.174,1.323,0.293,1.934l0.072,0.368
			c0.126,0.601,0.278,1.205,0.469,1.866c0.073,0.251,0.15,0.498,0.232,0.75c0.144,0.443,0.301,0.879,0.465,1.302
			c0.162,0.418,0.335,0.828,0.524,1.249c0.153,0.338,0.309,0.673,0.485,1.021c0.173,0.342,0.355,0.679,0.565,1.049
			c0.102,0.18,0.207,0.356,0.333,0.563c0.432,0.718,0.904,1.412,1.397,2.076c0.047,0.063,0.097,0.131,0.136,0.183
			c0.31,0.408,0.634,0.801,0.968,1.188c0.025,0.029,0.051,0.058,0.076,0.087c0.013,0.015,0.033,0.037,0.052,0.059
			c1.021,1.152,2.143,2.22,3.351,3.166c0.035,0.027,0.071,0.055,0.107,0.082c4.36,3.329,9.503,5.132,14.945,5.132h0.224
			c0.827,1.206,1.812,2.398,2.978,3.466c0.532,0.677,1.144,1.297,1.829,1.846c2.042,1.638,4.563,2.507,7.132,2.507
			c0.825,0,1.655-0.09,2.475-0.272l0.952-0.212c0.576-0.092,1.147-0.219,1.709-0.38l19.27-4.282
			c10.776-1.368,15.198-13.523,17.314-22.918c9.575-2.923,11.16-14.299,12.131-27.753c0.669-9.277,0.77-19.406,0.77-24.618
			c0-5.224-0.1-15.374-0.77-24.655c-0.972-13.472-2.559-24.862-12.165-27.778c-0.063-0.019-0.127-0.038-0.19-0.056
			c-0.534-2.223-1.109-4.256-1.723-6.089c-0.191-53.341-7.31-126.514-62.455-161.708c-1.89-3.945-5.165-7.204-9.519-9.345
			c-19.104-9.383-41.945-14.141-67.889-14.141c-20.469,0-39.413,3.819-56.269,11.334c-4.364,1.927-7.632,4.957-9.536,8.712
			c-47.815,27.345-74.07,86.547-74.07,167.422c0,0.017,0,0.033,0,0.049c-0.345,1.184-0.677,2.44-0.995,3.766
			c-0.062,0.018-0.125,0.036-0.187,0.055c-9.607,2.917-11.193,14.306-12.164,27.779c-0.669,9.279-0.769,19.43-0.769,24.655
			c0,5.213,0.1,15.342,0.769,24.617C14.51,295.02,16.095,306.397,25.668,309.32z"/>
		<path style="fill:#8B8B8B;" d="M233.732,192.115c0.002-0.003,0.004-0.005,0.006-0.008c0.006-0.008,0.011-0.016,0.018-0.024
			L233.732,192.115z"/>
		<path style="fill:#8B8B8B;" d="M24.585,308.237c2.117,9.395,6.539,21.55,17.315,22.918l19.286,4.286
			c0.553,0.158,1.114,0.283,1.681,0.373l0.959,0.213c3.375,0.752,6.91-0.07,9.608-2.234c0.681-0.546,1.29-1.163,1.821-1.836
			c1.171-1.071,2.158-2.266,2.988-3.476h0.225c5.485,0,10.688-1.802,15.044-5.208c1.18-0.922,2.282-1.965,3.322-3.131
			c0.045-0.05,0.116-0.129,0.159-0.179c0.331-0.382,0.651-0.773,0.943-1.155c0.054-0.07,0.124-0.165,0.187-0.25
			c0.484-0.653,0.948-1.339,1.373-2.043c0.122-0.202,0.243-0.405,0.351-0.594c0.191-0.336,0.374-0.676,0.549-1.021
			c0.169-0.333,0.328-0.674,0.501-1.056c0.18-0.4,0.349-0.804,0.5-1.195c0.17-0.436,0.329-0.877,0.48-1.341
			c0.08-0.248,0.157-0.496,0.233-0.758c0.188-0.652,0.341-1.26,0.467-1.867l0.066-0.336c0.122-0.629,0.219-1.27,0.296-1.957
			c0.023-0.207,0.044-0.414,0.059-0.588c0.07-0.799,0.106-1.528,0.106-2.228v-96.779c0-0.917-0.055-1.85-0.169-2.846
			c-0.033-0.29-0.076-0.575-0.125-0.887c-0.107-0.687-0.223-1.322-0.362-1.921c-0.07-0.307-0.147-0.609-0.236-0.94
			c-0.171-0.625-0.376-1.262-0.61-1.924c-0.083-0.236-0.167-0.472-0.262-0.71c-0.681-1.719-1.551-3.362-2.584-4.875
			c-0.131-0.193-0.27-0.381-0.418-0.582c-0.404-0.548-0.814-1.079-1.219-1.552c-0.2-0.235-0.405-0.463-0.616-0.693
			c-0.393-0.428-0.801-0.839-1.255-1.268c-0.251-0.239-0.504-0.475-0.797-0.729c-0.294-0.254-0.597-0.495-0.903-0.732
			c-0.337-0.28-0.68-0.55-1.038-0.803c-0.234-0.165-0.473-0.32-0.717-0.466c-3.98-2.591-8.57-3.957-13.325-3.957h-1.707
			c-0.505-0.585-1.031-1.124-1.58-1.618c-0.512-0.637-1.097-1.223-1.747-1.744c-1.542-1.237-3.358-2.035-5.26-2.352
			c2.632-33.335,11.031-61.314,24.547-81.501c7.164-10.668,15.773-19.15,25.638-25.271c3.307,0.457,6.713-0.026,10.421-1.56
			c0.088-0.037,0.176-0.074,0.263-0.113c10.688-4.741,23.013-7.145,36.633-7.145c18.515,0,34.186,3.043,46.462,9.124
			c3.406,1.687,7.112,2.544,11.026,2.493c7.998,5.608,14.607,12.765,20.123,21.772c11.626,18.996,18.263,45.998,20.186,82.28
			c-1.749,0.359-3.411,1.129-4.839,2.274c-0.653,0.524-1.24,1.112-1.754,1.753c-0.545,0.492-1.068,1.028-1.57,1.61h-1.706
			c-4.755,0-9.344,1.366-13.324,3.956c-0.239,0.144-0.475,0.296-0.705,0.459c-0.352,0.248-0.691,0.512-1.057,0.816
			c-0.302,0.234-0.6,0.471-0.923,0.75c-0.277,0.24-0.544,0.489-0.826,0.758c-0.405,0.384-0.797,0.779-1.195,1.21
			c-0.216,0.235-0.427,0.47-0.627,0.705c-0.404,0.474-0.79,0.974-1.209,1.541c-0.149,0.201-0.298,0.403-0.434,0.602
			c-0.54,0.794-1.004,1.567-1.383,2.276c-0.061,0.114-0.123,0.235-0.185,0.357c-0.354,0.701-0.694,1.442-0.995,2.201
			c-0.101,0.255-0.193,0.513-0.292,0.794c-0.219,0.62-0.419,1.241-0.585,1.85c-0.086,0.314-0.165,0.63-0.239,0.946
			c-0.141,0.611-0.256,1.241-0.37,1.966c-0.043,0.277-0.086,0.554-0.119,0.845c-0.114,1-0.169,1.933-0.169,2.852v96.779
			c0,0.703,0.034,1.431,0.106,2.241c0.017,0.191,0.036,0.38,0.06,0.59c0.078,0.687,0.174,1.322,0.293,1.934l0.072,0.368
			c0.126,0.601,0.278,1.205,0.469,1.866c0.073,0.251,0.15,0.498,0.232,0.75c0.144,0.443,0.301,0.879,0.465,1.302
			c0.162,0.418,0.335,0.829,0.524,1.249c0.153,0.338,0.309,0.673,0.485,1.021c0.173,0.342,0.355,0.679,0.565,1.049
			c0.102,0.18,0.207,0.356,0.333,0.563c0.432,0.718,0.904,1.412,1.397,2.076c0.047,0.063,0.097,0.131,0.136,0.183
			c0.31,0.408,0.634,0.801,0.968,1.188c0.025,0.029,0.051,0.058,0.076,0.087c0.013,0.015,0.033,0.036,0.052,0.058
			c1.021,1.152,2.143,2.221,3.35,3.166c0.035,0.027,0.071,0.055,0.107,0.082c4.36,3.329,9.503,5.132,14.945,5.132h0.224
			c0.828,1.206,1.812,2.398,2.979,3.466c0.532,0.677,1.144,1.297,1.829,1.846c2.042,1.638,4.563,2.507,7.132,2.507
			c0.825,0,1.655-0.09,2.475-0.272l0.952-0.211c0.576-0.092,1.147-0.219,1.709-0.38l19.27-4.282
			c10.776-1.368,15.198-13.523,17.314-22.918c9.575-2.923,11.16-14.299,12.131-27.753c0.669-9.277,0.77-19.406,0.77-24.617
			c0-5.224-0.1-15.374-0.77-24.656c-0.972-13.472-2.559-24.861-12.165-27.778c-0.063-0.019-0.127-0.038-0.19-0.056
			c-0.534-2.223-1.109-4.256-1.723-6.089c-0.191-53.341-7.31-126.514-62.455-161.708c-1.89-3.945-5.165-7.204-9.519-9.345
			c-19.104-9.383-41.945-14.141-67.889-14.141c-20.469,0-39.413,3.818-56.27,11.334c-4.364,1.927-7.632,4.957-9.536,8.712
			c-47.815,27.345-74.07,86.547-74.07,167.422c0,0.017,0,0.033,0,0.049c-0.345,1.184-0.677,2.44-0.995,3.766
			c-0.062,0.018-0.125,0.036-0.187,0.055c-9.607,2.917-11.193,14.306-12.164,27.779c-0.669,9.279-0.769,19.43-0.769,24.655
			c0,5.213,0.1,15.342,0.769,24.617C13.427,293.937,15.012,305.314,24.585,308.237z"/>
		<path style="fill:#7D7D7D;" d="M232.649,191.032c0.002-0.003,0.004-0.005,0.006-0.008c0.006-0.008,0.011-0.016,0.018-0.024
			L232.649,191.032z"/>
		<path style="fill:#7D7D7D;" d="M23.502,307.154c2.117,9.395,6.539,21.55,17.315,22.918l19.286,4.287
			c0.553,0.158,1.114,0.283,1.681,0.373l0.959,0.213c3.375,0.752,6.91-0.07,9.608-2.234c0.681-0.546,1.291-1.163,1.821-1.836
			c1.171-1.071,2.158-2.266,2.988-3.476h0.225c5.485,0,10.688-1.802,15.044-5.208c1.181-0.922,2.282-1.965,3.322-3.131
			c0.045-0.05,0.116-0.129,0.159-0.179c0.331-0.382,0.651-0.773,0.943-1.155c0.054-0.07,0.124-0.165,0.187-0.25
			c0.484-0.653,0.948-1.339,1.373-2.043c0.122-0.202,0.243-0.405,0.351-0.594c0.191-0.336,0.374-0.676,0.549-1.021
			c0.169-0.333,0.328-0.673,0.501-1.056c0.18-0.4,0.349-0.804,0.501-1.195c0.17-0.436,0.329-0.877,0.48-1.341
			c0.08-0.248,0.157-0.496,0.233-0.758c0.188-0.652,0.341-1.26,0.467-1.867l0.066-0.336c0.122-0.629,0.219-1.27,0.296-1.957
			c0.023-0.207,0.044-0.414,0.059-0.588c0.07-0.799,0.106-1.528,0.106-2.228v-96.778c0-0.917-0.055-1.85-0.169-2.846
			c-0.032-0.29-0.076-0.575-0.125-0.887c-0.107-0.687-0.223-1.322-0.362-1.921c-0.071-0.307-0.147-0.609-0.236-0.94
			c-0.171-0.625-0.376-1.262-0.61-1.924c-0.083-0.236-0.168-0.472-0.262-0.71c-0.681-1.72-1.551-3.362-2.584-4.875
			c-0.131-0.193-0.27-0.381-0.418-0.582c-0.404-0.548-0.814-1.079-1.219-1.552c-0.2-0.235-0.405-0.463-0.616-0.693
			c-0.393-0.428-0.801-0.839-1.255-1.268c-0.251-0.239-0.504-0.475-0.797-0.729c-0.294-0.254-0.597-0.495-0.903-0.732
			c-0.337-0.28-0.68-0.55-1.038-0.803c-0.234-0.165-0.473-0.32-0.717-0.466c-3.98-2.591-8.57-3.957-13.325-3.957h-1.707
			c-0.505-0.585-1.031-1.124-1.58-1.618c-0.513-0.637-1.097-1.223-1.747-1.744c-1.542-1.237-3.358-2.036-5.26-2.352
			c2.632-33.335,11.031-61.314,24.547-81.501c7.164-10.668,15.772-19.15,25.638-25.271c3.307,0.457,6.713-0.026,10.421-1.561
			c0.088-0.037,0.176-0.074,0.263-0.113c10.688-4.741,23.013-7.145,36.633-7.145c18.515,0,34.186,3.043,46.462,9.124
			c3.406,1.687,7.112,2.544,11.026,2.493c7.998,5.608,14.607,12.765,20.122,21.773c11.626,18.996,18.263,45.998,20.186,82.28
			c-1.749,0.359-3.411,1.129-4.839,2.274c-0.653,0.524-1.239,1.112-1.754,1.752c-0.545,0.492-1.068,1.028-1.57,1.61h-1.706
			c-4.755,0-9.344,1.366-13.324,3.956c-0.239,0.144-0.475,0.296-0.705,0.459c-0.352,0.248-0.691,0.512-1.057,0.815
			c-0.302,0.234-0.6,0.471-0.923,0.75c-0.277,0.24-0.544,0.489-0.826,0.758c-0.405,0.384-0.797,0.779-1.195,1.21
			c-0.216,0.235-0.427,0.47-0.627,0.705c-0.404,0.474-0.789,0.974-1.209,1.541c-0.149,0.201-0.298,0.403-0.434,0.602
			c-0.54,0.794-1.004,1.567-1.383,2.276c-0.061,0.114-0.123,0.235-0.185,0.357c-0.354,0.701-0.694,1.442-0.995,2.201
			c-0.101,0.255-0.193,0.513-0.292,0.794c-0.218,0.62-0.419,1.241-0.585,1.85c-0.086,0.314-0.165,0.63-0.238,0.946
			c-0.141,0.611-0.256,1.24-0.37,1.966c-0.043,0.277-0.086,0.554-0.119,0.845c-0.114,1-0.169,1.933-0.169,2.852v96.778
			c0,0.703,0.034,1.431,0.106,2.242c0.017,0.191,0.036,0.38,0.06,0.59c0.078,0.688,0.174,1.322,0.293,1.934l0.072,0.368
			c0.126,0.601,0.278,1.205,0.469,1.866c0.073,0.251,0.15,0.498,0.232,0.75c0.144,0.443,0.301,0.879,0.465,1.302
			c0.162,0.418,0.335,0.828,0.524,1.249c0.153,0.338,0.309,0.673,0.485,1.021c0.173,0.342,0.355,0.679,0.565,1.049
			c0.102,0.18,0.207,0.356,0.333,0.563c0.432,0.718,0.904,1.412,1.397,2.076c0.047,0.063,0.097,0.131,0.136,0.183
			c0.31,0.408,0.634,0.801,0.968,1.188c0.025,0.029,0.051,0.058,0.076,0.087c0.013,0.015,0.033,0.037,0.052,0.059
			c1.021,1.152,2.143,2.22,3.351,3.166c0.035,0.027,0.071,0.055,0.107,0.082c4.36,3.329,9.503,5.132,14.945,5.132h0.224
			c0.827,1.206,1.812,2.398,2.979,3.466c0.532,0.677,1.144,1.297,1.828,1.846c2.042,1.638,4.563,2.507,7.132,2.507
			c0.825,0,1.655-0.09,2.475-0.272l0.952-0.212c0.576-0.092,1.147-0.219,1.709-0.38l19.27-4.282
			c10.776-1.368,15.198-13.523,17.314-22.918c9.575-2.923,11.16-14.299,12.131-27.753c0.669-9.277,0.77-19.406,0.77-24.617
			c0-5.224-0.1-15.374-0.77-24.655c-0.972-13.472-2.559-24.861-12.165-27.778c-0.063-0.019-0.127-0.038-0.19-0.056
			c-0.534-2.223-1.109-4.256-1.723-6.089c-0.191-53.341-7.31-126.514-62.455-161.708c-1.89-3.945-5.165-7.204-9.519-9.345
			c-19.104-9.383-41.945-14.141-67.889-14.141c-20.469,0-39.413,3.819-56.269,11.334c-4.364,1.927-7.632,4.957-9.536,8.712
			c-47.816,27.345-74.07,86.547-74.07,167.422c0,0.017,0,0.033,0,0.049c-0.345,1.184-0.677,2.44-0.995,3.766
			c-0.062,0.018-0.125,0.036-0.187,0.055c-9.607,2.917-11.193,14.306-12.165,27.779c-0.669,9.279-0.769,19.43-0.769,24.655
			c0,5.212,0.1,15.342,0.769,24.617C12.344,292.854,13.929,304.23,23.502,307.154z"/>
		<path style="fill:#6E6E6E;" d="M231.566,189.949c0.002-0.003,0.004-0.005,0.006-0.008c0.006-0.008,0.011-0.016,0.018-0.024
			L231.566,189.949z"/>
		<path style="fill:#6E6E6E;" d="M22.419,306.071c2.117,9.395,6.539,21.55,17.315,22.918l19.286,4.287
			c0.553,0.158,1.114,0.283,1.681,0.374l0.959,0.213c3.375,0.752,6.91-0.07,9.608-2.234c0.681-0.546,1.291-1.163,1.821-1.837
			c1.171-1.071,2.158-2.266,2.988-3.476h0.226c5.485,0,10.688-1.802,15.044-5.208c1.18-0.922,2.282-1.965,3.322-3.131
			c0.045-0.05,0.116-0.129,0.159-0.179c0.331-0.382,0.651-0.773,0.943-1.155c0.054-0.07,0.124-0.165,0.187-0.251
			c0.484-0.653,0.948-1.339,1.373-2.043c0.122-0.202,0.243-0.405,0.351-0.594c0.191-0.336,0.374-0.676,0.549-1.021
			c0.169-0.333,0.328-0.674,0.501-1.056c0.18-0.4,0.349-0.804,0.501-1.195c0.17-0.436,0.329-0.877,0.48-1.341
			c0.08-0.248,0.157-0.496,0.233-0.758c0.188-0.652,0.341-1.26,0.467-1.867l0.066-0.336c0.122-0.629,0.218-1.27,0.296-1.957
			c0.023-0.207,0.044-0.414,0.059-0.588c0.07-0.799,0.106-1.528,0.106-2.228V204.63c0-0.917-0.055-1.85-0.169-2.846
			c-0.033-0.29-0.076-0.575-0.125-0.887c-0.107-0.687-0.223-1.322-0.362-1.921c-0.071-0.307-0.147-0.609-0.236-0.94
			c-0.171-0.625-0.376-1.262-0.61-1.924c-0.083-0.236-0.167-0.472-0.262-0.71c-0.68-1.719-1.551-3.362-2.584-4.875
			c-0.131-0.193-0.27-0.381-0.418-0.582c-0.404-0.548-0.814-1.079-1.219-1.552c-0.2-0.235-0.405-0.463-0.616-0.693
			c-0.393-0.428-0.801-0.839-1.255-1.268c-0.251-0.239-0.504-0.475-0.797-0.729c-0.294-0.254-0.597-0.495-0.903-0.732
			c-0.337-0.28-0.68-0.55-1.038-0.803c-0.234-0.165-0.473-0.32-0.717-0.466c-3.98-2.591-8.57-3.957-13.325-3.957h-1.707
			c-0.505-0.585-1.031-1.124-1.58-1.618c-0.512-0.637-1.097-1.223-1.747-1.744c-1.542-1.237-3.357-2.035-5.26-2.352
			c2.632-33.335,11.031-61.314,24.547-81.502c7.163-10.668,15.772-19.15,25.638-25.271c3.307,0.457,6.713-0.025,10.421-1.56
			c0.088-0.037,0.176-0.074,0.263-0.113c10.688-4.741,23.013-7.145,36.633-7.145c18.515,0,34.186,3.043,46.462,9.124
			c3.406,1.687,7.113,2.544,11.026,2.493c7.998,5.608,14.607,12.765,20.123,21.772c11.626,18.996,18.263,45.998,20.186,82.28
			c-1.749,0.359-3.411,1.129-4.839,2.274c-0.653,0.524-1.239,1.112-1.754,1.753c-0.545,0.492-1.068,1.028-1.57,1.61h-1.706
			c-4.755,0-9.344,1.366-13.324,3.956c-0.239,0.144-0.475,0.296-0.705,0.459c-0.352,0.248-0.691,0.512-1.057,0.815
			c-0.302,0.234-0.6,0.471-0.923,0.75c-0.277,0.24-0.544,0.489-0.826,0.758c-0.406,0.384-0.797,0.779-1.195,1.21
			c-0.216,0.235-0.427,0.47-0.627,0.705c-0.404,0.474-0.789,0.974-1.209,1.541c-0.149,0.201-0.298,0.403-0.434,0.602
			c-0.54,0.794-1.004,1.567-1.383,2.276c-0.061,0.114-0.123,0.235-0.185,0.357c-0.354,0.701-0.694,1.442-0.995,2.201
			c-0.101,0.255-0.193,0.513-0.292,0.794c-0.219,0.62-0.419,1.241-0.585,1.85c-0.086,0.314-0.165,0.63-0.238,0.946
			c-0.141,0.611-0.256,1.241-0.37,1.966c-0.043,0.277-0.086,0.554-0.119,0.845c-0.114,1-0.169,1.933-0.169,2.852v96.778
			c0,0.703,0.034,1.431,0.106,2.241c0.017,0.191,0.036,0.38,0.06,0.59c0.078,0.687,0.174,1.323,0.293,1.934l0.072,0.368
			c0.126,0.601,0.278,1.205,0.469,1.866c0.073,0.251,0.15,0.498,0.232,0.75c0.144,0.443,0.301,0.879,0.465,1.302
			c0.162,0.418,0.335,0.828,0.524,1.249c0.153,0.338,0.309,0.673,0.485,1.021c0.174,0.342,0.355,0.679,0.565,1.049
			c0.102,0.18,0.207,0.356,0.333,0.563c0.432,0.718,0.904,1.412,1.397,2.076c0.047,0.063,0.097,0.131,0.136,0.183
			c0.31,0.408,0.634,0.801,0.968,1.188c0.025,0.029,0.051,0.058,0.076,0.087c0.013,0.015,0.033,0.036,0.052,0.058
			c1.021,1.152,2.143,2.221,3.351,3.166c0.035,0.027,0.071,0.055,0.107,0.082c4.36,3.329,9.503,5.132,14.945,5.132h0.224
			c0.828,1.206,1.812,2.398,2.979,3.466c0.532,0.677,1.144,1.297,1.829,1.846c2.042,1.638,4.563,2.507,7.132,2.507
			c0.825,0,1.655-0.089,2.475-0.272l0.952-0.211c0.576-0.092,1.147-0.219,1.709-0.38l19.27-4.283
			c10.776-1.368,15.198-13.523,17.314-22.918c9.575-2.923,11.16-14.299,12.131-27.753c0.669-9.277,0.77-19.406,0.77-24.617
			c0-5.224-0.1-15.374-0.77-24.656c-0.972-13.472-2.559-24.861-12.165-27.778c-0.063-0.019-0.127-0.038-0.19-0.056
			c-0.534-2.223-1.109-4.256-1.723-6.089c-0.191-53.341-7.31-126.514-62.455-161.708c-1.89-3.945-5.165-7.204-9.519-9.345
			c-19.104-9.383-41.945-14.141-67.889-14.141c-20.469,0-39.413,3.818-56.269,11.334c-4.364,1.927-7.632,4.957-9.536,8.712
			c-47.815,27.345-74.07,86.547-74.07,167.422c0,0.017,0,0.033,0,0.049c-0.345,1.184-0.677,2.44-0.995,3.766
			c-0.062,0.018-0.125,0.036-0.187,0.055c-9.607,2.917-11.193,14.306-12.164,27.779c-0.669,9.279-0.769,19.43-0.769,24.655
			c0,5.212,0.1,15.342,0.769,24.617C11.26,291.771,12.845,303.147,22.419,306.071z"/>
		<path style="fill:#606060;" d="M230.483,188.866c0.002-0.003,0.004-0.005,0.006-0.008c0.006-0.008,0.011-0.016,0.018-0.024
			L230.483,188.866z"/>
		<path style="fill:#606060;" d="M21.336,304.987c2.117,9.395,6.539,21.55,17.315,22.918l19.286,4.287
			c0.553,0.158,1.114,0.283,1.681,0.373l0.959,0.213c3.375,0.752,6.91-0.07,9.608-2.235c0.681-0.546,1.291-1.163,1.821-1.836
			c1.171-1.071,2.158-2.266,2.988-3.476h0.225c5.485,0,10.688-1.802,15.044-5.208c1.181-0.922,2.286-1.961,3.322-3.131
			c0.045-0.05,0.116-0.129,0.159-0.179c0.331-0.382,0.651-0.773,0.943-1.154c0.054-0.07,0.124-0.165,0.187-0.251
			c0.486-0.651,0.948-1.339,1.373-2.043c0.122-0.202,0.243-0.405,0.351-0.594c0.191-0.336,0.374-0.676,0.549-1.021
			c0.169-0.333,0.328-0.673,0.501-1.056c0.18-0.4,0.349-0.804,0.501-1.195c0.17-0.436,0.329-0.877,0.48-1.342
			c0.08-0.248,0.157-0.496,0.233-0.758c0.188-0.652,0.341-1.26,0.467-1.867l0.066-0.336c0.122-0.63,0.218-1.27,0.296-1.957
			c0.023-0.207,0.044-0.414,0.059-0.588c0.072-0.799,0.106-1.528,0.106-2.228v-96.778c0-0.917-0.055-1.85-0.169-2.846
			c-0.032-0.29-0.075-0.576-0.125-0.887c-0.103-0.687-0.223-1.322-0.362-1.921c-0.071-0.307-0.147-0.609-0.236-0.94
			c-0.171-0.625-0.373-1.263-0.61-1.924c-0.082-0.237-0.168-0.472-0.262-0.71c-0.68-1.72-1.551-3.362-2.584-4.875
			c-0.131-0.193-0.268-0.382-0.418-0.582c-0.399-0.551-0.814-1.079-1.219-1.552c-0.2-0.235-0.405-0.463-0.616-0.693
			c-0.393-0.428-0.801-0.839-1.255-1.268c-0.251-0.239-0.504-0.474-0.797-0.729c-0.294-0.254-0.597-0.495-0.903-0.732
			c-0.337-0.28-0.68-0.55-1.038-0.803c-0.234-0.165-0.473-0.321-0.717-0.466c-3.98-2.591-8.57-3.957-13.325-3.957h-1.707
			c-0.505-0.585-1.031-1.125-1.58-1.618c-0.513-0.637-1.097-1.223-1.747-1.744c-1.542-1.237-3.357-2.035-5.26-2.352
			c2.632-33.335,11.031-61.314,24.547-81.502c7.163-10.668,15.772-19.15,25.637-25.271c3.307,0.457,6.713-0.025,10.421-1.561
			c0.088-0.037,0.176-0.074,0.263-0.113c10.687-4.741,23.013-7.145,36.633-7.145c18.515,0,34.167,3.08,46.462,9.124
			c3.401,1.698,7.112,2.544,11.026,2.493c7.998,5.608,14.607,12.765,20.122,21.773c11.626,18.996,18.263,45.998,20.186,82.28
			c-1.749,0.359-3.411,1.129-4.839,2.274c-0.653,0.524-1.239,1.112-1.754,1.753c-0.545,0.492-1.068,1.028-1.57,1.61h-1.706
			c-4.755,0-9.344,1.366-13.324,3.956c-0.239,0.144-0.475,0.296-0.705,0.459c-0.352,0.248-0.691,0.512-1.057,0.816
			c-0.302,0.234-0.6,0.471-0.923,0.75c-0.277,0.24-0.544,0.489-0.826,0.758c-0.405,0.384-0.797,0.779-1.195,1.21
			c-0.216,0.235-0.427,0.47-0.627,0.705c-0.404,0.474-0.794,0.971-1.209,1.541c-0.15,0.2-0.298,0.403-0.434,0.602
			c-0.54,0.794-1.007,1.565-1.383,2.276c-0.062,0.114-0.124,0.235-0.185,0.357c-0.359,0.699-0.694,1.442-0.995,2.201
			c-0.101,0.255-0.194,0.512-0.292,0.794c-0.222,0.619-0.419,1.241-0.585,1.85c-0.086,0.315-0.165,0.63-0.238,0.946
			c-0.141,0.611-0.26,1.24-0.37,1.966c-0.045,0.277-0.086,0.554-0.119,0.845c-0.114,1-0.169,1.933-0.169,2.852v96.778
			c0,0.703,0.034,1.431,0.106,2.241c0.017,0.191,0.036,0.38,0.06,0.59c0.078,0.688,0.174,1.323,0.293,1.934l0.072,0.368
			c0.126,0.601,0.278,1.205,0.469,1.866c0.073,0.251,0.15,0.498,0.232,0.751c0.144,0.443,0.301,0.879,0.465,1.302
			c0.162,0.418,0.335,0.828,0.524,1.249c0.153,0.338,0.309,0.673,0.485,1.022c0.173,0.342,0.355,0.679,0.565,1.049
			c0.102,0.18,0.207,0.356,0.333,0.563c0.432,0.718,0.901,1.414,1.397,2.076c0.046,0.063,0.097,0.131,0.136,0.183
			c0.311,0.407,0.633,0.802,0.968,1.188c0.025,0.029,0.051,0.059,0.076,0.087c0.013,0.015,0.033,0.037,0.052,0.059
			c1.016,1.156,2.143,2.221,3.35,3.166c0.035,0.027,0.071,0.055,0.107,0.082c4.338,3.357,9.503,5.132,14.945,5.132h0.224
			c0.827,1.206,1.812,2.398,2.978,3.466c0.532,0.677,1.144,1.297,1.829,1.846c2.042,1.638,4.563,2.507,7.132,2.507
			c0.825,0,1.655-0.09,2.475-0.272l0.952-0.212c0.576-0.092,1.147-0.219,1.709-0.38l19.27-4.282
			c10.776-1.368,15.198-13.523,17.314-22.918c9.575-2.923,11.16-14.299,12.131-27.753c0.669-9.277,0.77-19.406,0.77-24.617
			c0-5.224-0.1-15.374-0.77-24.655c-0.972-13.472-2.559-24.861-12.165-27.778c-0.063-0.019-0.127-0.038-0.19-0.056
			c-0.534-2.223-1.109-4.256-1.723-6.089c-0.191-53.341-7.31-126.514-62.455-161.708c-1.89-3.945-5.165-7.204-9.519-9.345
			c-19.104-9.383-41.945-14.141-67.889-14.141c-20.469,0-39.413,3.819-56.269,11.334c-4.364,1.927-7.632,4.957-9.536,8.712
			c-47.815,27.345-74.07,86.547-74.07,167.422c0,0.017,0,0.033,0,0.049c-0.345,1.184-0.677,2.44-0.995,3.766
			c-0.062,0.018-0.125,0.036-0.187,0.055c-9.607,2.917-11.193,14.306-12.165,27.779c-0.669,9.279-0.769,19.43-0.769,24.655
			c0,5.212,0.1,15.342,0.769,24.617C10.177,290.688,11.762,302.064,21.336,304.987z"/>
	</g>
	<path style="fill:#FFFFFF;" d="M230.483,188.866c0.002-0.003,0.004-0.005,0.006-0.008c0.006-0.008,0.011-0.016,0.018-0.024
		L230.483,188.866z"/>
	<path style="fill:#FFFFFF;" d="M21.336,304.987c2.117,9.395,6.539,21.55,17.315,22.918l19.286,4.287
		c0.553,0.158,1.114,0.283,1.681,0.373l0.959,0.213c3.375,0.752,6.91-0.07,9.608-2.235c0.681-0.546,1.291-1.163,1.821-1.836
		c1.171-1.071,2.158-2.266,2.988-3.476h0.225c5.485,0,10.688-1.802,15.044-5.208c1.181-0.922,2.286-1.961,3.322-3.131
		c0.045-0.05,0.116-0.129,0.159-0.179c0.331-0.382,0.651-0.773,0.943-1.154c0.054-0.07,0.124-0.165,0.187-0.251
		c0.486-0.651,0.948-1.339,1.373-2.043c0.122-0.202,0.243-0.405,0.351-0.594c0.191-0.336,0.374-0.676,0.549-1.021
		c0.169-0.333,0.328-0.673,0.501-1.056c0.18-0.4,0.349-0.804,0.501-1.195c0.17-0.436,0.329-0.877,0.48-1.342
		c0.08-0.248,0.157-0.496,0.233-0.758c0.188-0.652,0.341-1.26,0.467-1.867l0.066-0.336c0.122-0.63,0.218-1.27,0.296-1.957
		c0.023-0.207,0.044-0.414,0.059-0.588c0.072-0.799,0.106-1.528,0.106-2.228v-96.778c0-0.917-0.055-1.85-0.169-2.846
		c-0.032-0.29-0.075-0.576-0.125-0.887c-0.103-0.687-0.223-1.322-0.362-1.921c-0.071-0.307-0.147-0.609-0.236-0.94
		c-0.171-0.625-0.373-1.263-0.61-1.924c-0.082-0.237-0.168-0.472-0.262-0.71c-0.68-1.72-1.551-3.362-2.584-4.875
		c-0.131-0.193-0.268-0.382-0.418-0.582c-0.399-0.551-0.814-1.079-1.219-1.552c-0.2-0.235-0.405-0.463-0.616-0.693
		c-0.393-0.428-0.801-0.839-1.255-1.268c-0.251-0.239-0.504-0.474-0.797-0.729c-0.294-0.254-0.597-0.495-0.903-0.732
		c-0.337-0.28-0.68-0.55-1.038-0.803c-0.234-0.165-0.473-0.321-0.717-0.466c-3.98-2.591-8.57-3.957-13.325-3.957h-1.707
		c-0.505-0.585-1.031-1.125-1.58-1.618c-0.513-0.637-1.097-1.223-1.747-1.744c-1.542-1.237-3.357-2.035-5.26-2.352
		c2.632-33.335,11.031-61.314,24.547-81.502c7.163-10.668,15.772-19.15,25.637-25.271c3.307,0.457,6.713-0.025,10.421-1.561
		c0.088-0.037,0.176-0.074,0.263-0.113c10.687-4.741,23.013-7.145,36.633-7.145c18.515,0,34.167,3.08,46.462,9.124
		c3.401,1.698,7.112,2.544,11.026,2.493c7.998,5.608,14.607,12.765,20.122,21.773c11.626,18.996,18.263,45.998,20.186,82.28
		c-1.749,0.359-3.411,1.129-4.839,2.274c-0.653,0.524-1.239,1.112-1.754,1.753c-0.545,0.492-1.068,1.028-1.57,1.61h-1.706
		c-4.755,0-9.344,1.366-13.324,3.956c-0.239,0.144-0.475,0.296-0.705,0.459c-0.352,0.248-0.691,0.512-1.057,0.816
		c-0.302,0.234-0.6,0.471-0.923,0.75c-0.277,0.24-0.544,0.489-0.826,0.758c-0.405,0.384-0.797,0.779-1.195,1.21
		c-0.216,0.235-0.427,0.47-0.627,0.705c-0.404,0.474-0.794,0.971-1.209,1.541c-0.15,0.2-0.298,0.403-0.434,0.602
		c-0.54,0.794-1.007,1.565-1.383,2.276c-0.062,0.114-0.124,0.235-0.185,0.357c-0.359,0.699-0.694,1.442-0.995,2.201
		c-0.101,0.255-0.194,0.512-0.292,0.794c-0.222,0.619-0.419,1.241-0.585,1.85c-0.086,0.315-0.165,0.63-0.238,0.946
		c-0.141,0.611-0.26,1.24-0.37,1.966c-0.045,0.277-0.086,0.554-0.119,0.845c-0.114,1-0.169,1.933-0.169,2.852v96.778
		c0,0.703,0.034,1.431,0.106,2.241c0.017,0.191,0.036,0.38,0.06,0.59c0.078,0.688,0.174,1.323,0.293,1.934l0.072,0.368
		c0.126,0.601,0.278,1.205,0.469,1.866c0.073,0.251,0.15,0.498,0.232,0.751c0.144,0.443,0.301,0.879,0.465,1.302
		c0.162,0.418,0.335,0.828,0.524,1.249c0.153,0.338,0.309,0.673,0.485,1.022c0.173,0.342,0.355,0.679,0.565,1.049
		c0.102,0.18,0.207,0.356,0.333,0.563c0.432,0.718,0.901,1.414,1.397,2.076c0.046,0.063,0.097,0.131,0.136,0.183
		c0.311,0.407,0.633,0.802,0.968,1.188c0.025,0.029,0.051,0.059,0.076,0.087c0.013,0.015,0.033,0.037,0.052,0.059
		c1.016,1.156,2.143,2.221,3.35,3.166c0.035,0.027,0.071,0.055,0.107,0.082c4.338,3.357,9.503,5.132,14.945,5.132h0.224
		c0.827,1.206,1.812,2.398,2.978,3.466c0.532,0.677,1.144,1.297,1.829,1.846c2.042,1.638,4.563,2.507,7.132,2.507
		c0.825,0,1.655-0.09,2.475-0.272l0.952-0.212c0.576-0.092,1.147-0.219,1.709-0.38l19.27-4.282
		c10.776-1.368,15.198-13.523,17.314-22.918c9.575-2.923,11.16-14.299,12.131-27.753c0.669-9.277,0.77-19.406,0.77-24.617
		c0-5.224-0.1-15.374-0.77-24.655c-0.972-13.472-2.559-24.861-12.165-27.778c-0.063-0.019-0.127-0.038-0.19-0.056
		c-0.534-2.223-1.109-4.256-1.723-6.089c-0.191-53.341-7.31-126.514-62.455-161.708c-1.89-3.945-5.165-7.204-9.519-9.345
		c-19.104-9.383-41.945-14.141-67.889-14.141c-20.469,0-39.413,3.819-56.269,11.334c-4.364,1.927-7.632,4.957-9.536,8.712
		c-47.815,27.345-74.07,86.547-74.07,167.422c0,0.017,0,0.033,0,0.049c-0.345,1.184-0.677,2.44-0.995,3.766
		c-0.062,0.018-0.125,0.036-0.187,0.055c-9.607,2.917-11.193,14.306-12.165,27.779c-0.669,9.279-0.769,19.43-0.769,24.655
		c0,5.212,0.1,15.342,0.769,24.617C10.177,290.688,11.762,302.064,21.336,304.987z"/>
	<g>
		<g>
			<path style="fill:#E2E1DA;" d="M281.435,212.189c-0.072,0-0.179,0-0.248-0.023c-4.507-0.137-8.052-3.914-7.918-8.421
				c0.076-2.475,0.122-4.934,0.122-7.431c0-50.571-7.404-87.254-22.65-112.151c-17.671-28.879-46.551-42.889-88.313-42.889
				c-36.104,0-64.157,14.513-83.374,43.208c-18.049,26.877-27.6,65.578-27.6,111.831c0,4.523-3.658,8.161-8.165,8.161
				c-4.504,0-8.158-3.639-8.158-8.161c0-107.331,47.586-171.394,127.298-171.394c114.115,0,127.302,97.829,127.302,171.394
				c0,2.657-0.027,5.322-0.114,7.956C289.464,208.686,285.836,212.189,281.435,212.189z"/>
			<path style="fill:#ACACA7;" d="M281.435,213.345h-0.301c-2.493-0.091-4.796-1.134-6.514-2.931
				c-1.693-1.866-2.581-4.211-2.524-6.708c0.091-2.459,0.118-4.896,0.118-7.393c0-50.343-7.351-86.843-22.453-111.519
				c-17.447-28.491-46.014-42.363-87.334-42.363c-35.693,0-63.411,14.352-82.419,42.659
				c-17.908,26.747-27.383,65.198-27.383,111.223c0,5.14-4.187,9.319-9.338,9.319c-5.162,0-9.335-4.18-9.335-9.319
				c0-108.039,48.02-172.552,128.475-172.552c115.154,0,128.468,98.485,128.468,172.552c0,2.657-0.027,5.344-0.119,8.001
				C290.613,209.364,286.517,213.345,281.435,213.345z M162.428,40.095c42.211,0,71.414,14.207,89.321,43.474
				c15.349,25.08,22.818,61.969,22.818,112.745c0,2.497-0.049,5.002-0.122,7.461c-0.057,1.858,0.613,3.655,1.892,5.025
				c1.279,1.363,3.019,2.132,4.888,2.201h0.21c3.81,0,6.887-2.977,7.005-6.777c0.091-2.634,0.137-5.276,0.137-7.91
				c0-73.084-13.088-170.237-126.149-170.237c-78.997,0-126.145,63.659-126.145,170.237c0,3.868,3.144,7.004,7.005,7.004
				c3.852,0,7.008-3.137,7.008-7.004c0-46.505,9.608-85.411,27.783-112.493C97.532,54.804,125.904,40.095,162.428,40.095z"/>
		</g>
		<g>
			<path style="fill:#D4D3CD;" d="M283.906,203.593c0-73.588-12.612-171.387-121.513-171.387
				c-76.081,0-121.501,64.078-121.501,171.387c0,0.182,0.027,0.312,0.061,0.494c0.746,0.252,1.519,0.388,2.334,0.388
				c4.507,0,8.165-3.639,8.165-8.161c0-46.254,9.552-84.955,27.6-111.831c19.217-28.696,47.27-43.208,83.374-43.208
				c41.762,0,70.641,14.009,88.313,42.889c15.246,24.897,22.65,61.58,22.65,112.151c0,2.497-0.045,4.956-0.122,7.431
				c-0.133,4.507,3.411,8.284,7.918,8.421c0.068,0.023,0.175,0.023,0.248,0.023c0.803,0,1.576-0.183,2.303-0.388
				c0-0.091,0.03-0.182,0.03-0.274C283.841,208.892,283.906,206.25,283.906,203.593z"/>
		</g>
		<g>
			<path style="fill:#D4D3CD;" d="M275.725,205.253c0.773,0,1.488-0.115,2.189-0.32c0.015-0.091,0.026-0.182,0.026-0.274
				c0.072-2.436,0.118-4.911,0.118-7.393c0-68.622-11.965-159.813-115.417-159.813c-72.267,0-115.418,59.715-115.418,159.813
				c0,0.137,0.042,0.32,0.054,0.48c0.716,0.205,1.442,0.342,2.227,0.342c0.61,0,1.207-0.091,1.797-0.206
				c0.091-0.502,0.152-1.042,0.152-1.568c0-46.254,9.552-84.955,27.6-111.831c19.217-28.696,47.27-43.208,83.374-43.208
				c41.762,0,70.641,14.009,88.313,42.889c15.246,24.897,22.65,61.58,22.65,112.151c0,2.497-0.045,4.956-0.122,7.431
				c-0.012,0.388,0.05,0.73,0.076,1.12c0.685,0.228,1.401,0.365,2.143,0.388C275.576,205.253,275.649,205.253,275.725,205.253z"/>
		</g>
		<g>
			<g>
				<path style="fill:#A81F1D;" d="M24.98,212.189c-2.2,0-3.967,18.075-3.967,40.429c0,22.308,1.767,40.383,3.967,40.383
					l16.689,4.66v-90.139L24.98,212.189z"/>
				<path style="fill:#49000B;" d="M42.842,299.206l-18.159-5.116c-4.488-1.34-4.846-31.97-4.846-41.472
					c0-9.555,0.357-40.163,4.846-41.526l0,0l18.159-5.094V299.206z M25.338,291.866l15.174,4.272v-87.071l-15.174,4.256
					c-1.34,1.842-3.148,16.209-3.148,39.295C22.19,275.672,23.998,290.024,25.338,291.866z"/>
			</g>
			<path style="opacity:0.3;fill:#4B1300;" d="M41.669,207.521l-13.236,3.708c-1.785,11.078-2.875,25.673-2.875,41.685
				c0,15.685,1.043,30.037,2.753,41.016l13.358,3.731V207.521z"/>
			<path style="fill:#FFF1C4;" d="M40.596,190.375c-6.216,0-11.245,27.996-11.245,62.539c0,34.559,5.029,62.555,11.245,62.555
				l21.304,4.728V185.647L40.596,190.375z"/>
			<g>
				<path style="fill:#741409;" d="M40.596,190.375c-6.216,0-11.245,27.996-11.245,62.539c0,34.559,5.029,62.555,11.245,62.555
					l21.304,4.728V185.647L40.596,190.375z"/>
				<path style="fill:#49000B;" d="M63.053,321.651l-22.605-5.025c-8.055-0.366-12.254-32.221-12.254-63.712
					c0-31.475,4.199-63.331,12.254-63.697l22.605-5.025V321.651z M40.596,191.54c-4.222,0-10.084,23.351-10.084,61.374
					c0,38.038,5.862,61.39,10.084,61.39l0.24,0.023l19.899,4.416V187.101L40.596,191.54z"/>
			</g>
			<g>
				<path style="fill:#FCEBA9;" d="M61.9,185.647l-5.714,1.294c-5.032,8.916-8.657,35.092-8.657,65.973
					c0,30.897,3.625,57.074,8.657,66.035l5.714,1.248V185.647z"/>
			</g>
			<g>
				<path style="fill:#49000B;" d="M73.137,252.914c0,37.179-5.026,67.283-11.238,67.283c-6.225,0-11.246-30.105-11.246-67.283
					c0-37.163,5.021-67.267,11.246-67.267C68.112,185.647,73.137,215.751,73.137,252.914z"/>
				<path style="fill:#49000B;" d="M61.9,321.355c-9.11,0-12.41-40.932-12.41-68.441c0-27.493,3.3-68.424,12.41-68.424
					c9.095,0,12.399,40.932,12.399,68.424C74.298,280.423,70.994,321.355,61.9,321.355z M61.9,186.804
					c-4.215,0-10.073,25.156-10.073,66.11c0,40.947,5.858,66.126,10.073,66.126c4.206,0,10.065-25.179,10.065-66.126
					C71.965,211.96,66.106,186.804,61.9,186.804z"/>
			</g>
			<g>
				<path style="fill:#27292A;" d="M75.22,190.063h-9.327h-7.987c-0.236,0.518-0.507,1.18-0.754,1.88c-0.019,0,0,0-0.019,0.023
					c-3.818,10.712-6.479,33.972-6.479,60.947c0,25.057,2.285,46.908,5.68,58.482c2.143,1.5,4.759,2.436,7.553,2.436h2.797h8.535
					c7.313,0,13.236-6.076,13.236-13.507v-96.779C88.456,196.108,82.533,190.063,75.22,190.063z"/>
			</g>
			<g style="opacity:0.8;">
				<path style="fill:#66686C;" d="M65.554,190.063h-7.648c-0.236,0.518-0.507,1.18-0.754,1.88c-0.019,0,0,0-0.019,0.023
					c-3.818,10.712-6.479,33.972-6.479,60.947c0,25.057,2.285,46.908,5.68,58.482c2.143,1.5,4.759,2.436,7.553,2.436h0.886
					c-3.818-10.781-6.445-33.973-6.445-60.918C58.329,224.195,61.328,199.702,65.554,190.063z"/>
			</g>
			<path style="opacity:0.5;fill:#787B7F;" d="M88.456,250.524c0,27.151-2.364,49.208-5.28,49.208
				c-2.928,0-5.281-22.057-5.281-49.208c0-27.174,2.353-49.208,5.281-49.208C86.092,201.316,88.456,223.35,88.456,250.524z"/>
			<g style="opacity:0.5;">
				<path style="opacity:0.5;fill:#787B7F;" d="M88.456,300.326v-96.779c0-4.622-2.287-8.687-5.767-11.147
					c-5.356,2.527-9.552,28.468-9.552,60.126c0,29.877,3.745,54.735,8.687,59.487C85.78,309.667,88.456,305.305,88.456,300.326z"/>
			</g>
		</g>
		<g>
			<g>
				<path style="fill:#A81F1D;" d="M300.595,212.189c2.181,0,3.967,18.075,3.967,40.429c0,22.308-1.785,40.383-3.967,40.383
					l-16.689,4.66v-90.139L300.595,212.189z"/>
				<path style="fill:#49000B;" d="M282.733,299.206v-93.207l18.159,5.094c4.488,1.363,4.846,31.97,4.846,41.526
					c0,9.502-0.358,40.132-4.846,41.472l0,0L282.733,299.206z M285.063,209.067v87.071l15.174-4.272
					c1.336-1.842,3.148-16.194,3.148-39.249c0-23.086-1.812-37.453-3.148-39.295L285.063,209.067z"/>
			</g>
			<path style="opacity:0.3;fill:#4B1300;" d="M283.906,207.521l13.232,3.708c1.785,11.078,2.871,25.673,2.871,41.685
				c0,15.685-1.035,30.037-2.752,41.016l-13.351,3.731V207.521z"/>
			<path style="fill:#FFF1C4;" d="M284.972,190.375c6.224,0,11.246,27.996,11.246,62.539c0,34.559-5.022,62.555-11.246,62.555
				l-21.296,4.728V185.647L284.972,190.375z"/>
			<g>
				<path style="fill:#741409;" d="M284.972,190.375c6.224,0,11.246,27.996,11.246,62.539c0,34.559-5.022,62.555-11.246,62.555
					l-21.296,4.728V185.647L284.972,190.375z"/>
				<path style="fill:#49000B;" d="M262.518,321.651V184.193l22.609,5.025c8.055,0.366,12.251,32.221,12.251,63.697
					c0,31.491-4.195,63.347-12.251,63.712L262.518,321.651z M264.837,187.101v131.642l20.135-4.439
					c4.23,0,10.084-23.352,10.084-61.39c0-38.023-5.854-61.374-10.084-61.374l-0.236-0.023L264.837,187.101z"/>
			</g>
			<g>
				<path style="fill:#FCEBA9;" d="M263.675,185.647l5.715,1.294c5.033,8.916,8.653,35.092,8.653,65.973
					c0,30.897-3.62,57.074-8.653,66.035l-5.715,1.248V185.647z"/>
			</g>
			<g>
				<path style="fill:#49000B;" d="M252.438,252.914c0,37.179,5.026,67.283,11.238,67.283c6.221,0,11.246-30.105,11.246-67.283
					c0-37.163-5.025-67.267-11.246-67.267C257.463,185.647,252.438,215.751,252.438,252.914z"/>
				<path style="fill:#49000B;" d="M263.675,321.355c-9.098,0-12.399-40.932-12.399-68.441c0-27.493,3.3-68.424,12.399-68.424
					c9.11,0,12.407,40.932,12.407,68.424C276.082,280.423,272.786,321.355,263.675,321.355z M263.675,186.804
					c-4.206,0-10.084,25.156-10.084,66.11c0,40.947,5.878,66.126,10.084,66.126c4.215,0,10.069-25.179,10.069-66.126
					C273.745,211.96,267.89,186.804,263.675,186.804z"/>
			</g>
			<g>
				<path style="fill:#27292A;" d="M250.355,190.063h9.323h7.991c0.236,0.518,0.499,1.18,0.754,1.88c0.011,0,0,0,0.011,0.023
					c3.822,10.712,6.487,33.972,6.487,60.947c0,25.057-2.291,46.908-5.68,58.482c-2.143,1.5-4.762,2.436-7.552,2.436h-2.798h-8.535
					c-7.313,0-13.236-6.076-13.236-13.507v-96.779C237.119,196.108,243.043,190.063,250.355,190.063z"/>
			</g>
			<g style="opacity:0.8;">
				<path style="fill:#66686C;" d="M260.021,190.063h7.648c0.236,0.518,0.499,1.18,0.754,1.88c0.011,0,0,0,0.011,0.023
					c3.822,10.712,6.487,33.972,6.487,60.947c0,25.057-2.291,46.908-5.68,58.482c-2.143,1.5-4.762,2.436-7.552,2.436h-0.899
					c3.826-10.781,6.456-33.973,6.456-60.918C267.246,224.195,264.239,199.702,260.021,190.063z"/>
			</g>
			<path style="opacity:0.5;fill:#787B7F;" d="M237.119,250.524c0,27.151,2.364,49.208,5.273,49.208
				c2.934,0,5.288-22.057,5.288-49.208c0-27.174-2.353-49.208-5.288-49.208C239.483,201.316,237.119,223.35,237.119,250.524z"/>
			<g style="opacity:0.5;">
				<path style="opacity:0.5;fill:#787B7F;" d="M237.119,300.326v-96.779c0-4.622,2.284-8.687,5.767-11.147
					c5.356,2.527,9.552,28.468,9.552,60.126c0,29.877-3.753,54.735-8.687,59.487C239.796,309.667,237.119,305.305,237.119,300.326z"
					/>
			</g>
		</g>
		<g>
			<path style="fill:#A81F1D;" d="M219.626,56.418c-1.728,0-3.48-0.388-5.147-1.181c-14.108-6.936-31.631-10.484-52.052-10.484
				c-15.391,0-29.415,2.772-41.731,8.231c-5.874,2.642-8.356-1.842-10.96-7.705c-2.623-5.894-4.382-10.995,1.508-13.606
				c15.284-6.807,32.503-10.263,51.183-10.263c24.022,0,45.001,4.34,62.342,12.844c5.805,2.863,5.014,7.957,2.174,13.751
				C224.907,52.147,223.94,56.418,219.626,56.418z"/>
			<path style="fill:#49000B;" d="M219.626,57.576c-1.976,0-3.86-0.404-5.646-1.295c-13.967-6.867-31.311-10.324-51.553-10.324
				c-15.227,0-29.104,2.733-41.255,8.124c-1.306,0.54-2.501,0.861-3.624,0.861c-4.435,0-6.651-4.157-8.87-9.19
				c-2.228-5.048-5.292-11.886,2.085-15.144c15.437-6.883,32.839-10.362,51.664-10.362c24.212,0,45.363,4.378,62.863,12.973
				c3.084,1.516,4.747,3.777,4.972,6.716c0.164,2.36-0.552,5.047-2.277,8.573c-0.358,0.7-0.685,1.454-0.982,2.139
				C225.485,54.081,223.94,57.576,219.626,57.576z M162.428,43.597c20.599,0,38.282,3.571,52.577,10.591
				c1.454,0.708,3.019,1.074,4.621,1.074c2.646,0,3.677-2.003,5.235-5.55c0.331-0.723,0.655-1.477,1.028-2.208
				c1.499-3.115,2.188-5.497,2.04-7.385c-0.153-2.109-1.314-3.655-3.659-4.782c-17.191-8.458-38-12.738-61.843-12.738
				c-18.497,0-35.568,3.388-50.712,10.119c-4.492,1.995-3.895,5.345-0.91,12.083c2.893,6.502,4.984,9.098,9.43,7.119
				C132.681,46.391,146.877,43.597,162.428,43.597z"/>
		</g>
		<g style="opacity:0.5;">
			<path style="opacity:0.3;fill:#4B1300;" d="M227.095,35.838c-1.979,4.097-2.981,8.276-7.233,8.276
				c-1.732,0-3.494-0.38-5.143-1.203c-14.127-6.929-31.646-10.461-52.051-10.461c-15.395,0-29.435,2.794-41.731,8.231
				c-5.889,2.619-8.355-1.82-10.971-7.736c-0.064-0.145-0.137-0.297-0.213-0.48c-4.047,2.81-2.379,7.47-0.015,12.814
				c2.604,5.863,5.086,10.347,10.96,7.705c12.315-5.459,26.34-8.231,41.731-8.231c20.421,0,37.943,3.548,52.052,10.484
				c1.667,0.792,3.419,1.181,5.147,1.181c4.314,0,5.281-4.271,7.317-8.413C229.322,43.14,230.244,38.799,227.095,35.838z"/>
		</g>
		<g style="opacity:0.5;">
			<path style="fill:#4B1300;" d="M224.758,51.576c-2.109-0.342-4.241-0.433-6.307-1.02c-3.579-1.005-6.945-2.757-10.424-4.051
				c-3.597-1.339-7.259-2.505-10.975-3.411c-6.978-1.751-14.127-2.771-21.295-3.365c-4.401-0.343-8.836-0.479-13.271-0.479
				c-12.219,0-24.249,1.728-35.807,5.779c-4.808,1.705-9.7,4.157-14.809,4.523c2.045,3.479,4.519,5.391,8.829,3.434
				c12.315-5.459,26.34-8.231,41.731-8.231c20.421,0,37.943,3.548,52.052,10.484c1.667,0.792,3.419,1.181,5.147,1.181
				c3.023,0,4.405-2.117,5.649-4.796C225.101,51.599,224.921,51.599,224.758,51.576z"/>
		</g>
	</g>
</g>
</svg>
