<svg width="269" height="270" viewBox="0 0 269 270" fill="none" xmlns="http://www.w3.org/2000/svg">
<path d="M246.775 168.428C246.775 168.428 276.629 134.885 267.136 76.5112C257.643 18.1373 208.905 -3.36562 176.563 7.87251C144.22 19.1106 136.945 38.6582 110.527 49.8449C84.1097 61.0316 33.957 53.3438 8.86691 90.9053C-16.2232 128.467 15.8057 190.707 56.5793 229.734C97.3529 268.761 201.439 244.323 246.775 168.428Z" fill="#FECD9D"/>
<path opacity="0.7" d="M246.775 168.428C246.775 168.428 276.629 134.885 267.136 76.5112C257.643 18.1373 208.905 -3.36562 176.563 7.87251C144.22 19.1106 136.945 38.6582 110.527 49.8449C84.1097 61.0316 33.957 53.3438 8.86691 90.9053C-16.2232 128.467 15.8057 190.707 56.5793 229.734C97.3529 268.761 201.439 244.323 246.775 168.428Z" fill="white"/>
<path d="M222.622 269.455L219.244 230.53H139.293L134.88 269.455H222.622Z" fill="#263238" stroke="#263238" stroke-miterlimit="10"/>
<path d="M173.65 112.545C173.65 112.545 150.267 118.967 140.057 126.707C129.847 134.447 122.764 142.35 124.413 157.335C126.062 172.32 136.764 213.323 136.764 213.323C136.764 213.323 135.281 229.955 135.281 230.943C135.281 231.931 135.117 234.73 138.739 234.895C142.362 235.06 185.835 236.871 195.551 237.035C205.266 237.2 218.11 236.212 219.592 235.06C220.323 234.452 220.921 233.699 221.346 232.849C221.771 231.999 222.015 231.069 222.062 230.119C222.227 228.144 223.873 203.937 223.873 203.937L224.038 193.07C224.038 193.07 234.741 157.502 235.4 145.975C236.058 134.448 231.778 130.661 227.002 127.038C222.226 123.415 207.368 117.281 199.337 114.852C191.307 112.423 173.65 112.545 173.65 112.545Z" fill="#FFB115" stroke="#263238" stroke-miterlimit="10"/>
<path d="M179.417 167.809C178.228 183.848 176.115 213.406 176.302 218.466C176.562 225.477 173.706 227.552 173.706 230.148" stroke="#263238" stroke-miterlimit="10"/>
<path d="M180.196 157.463C180.196 157.463 179.986 160.196 179.663 164.51" stroke="#263238" stroke-miterlimit="10"/>
<path d="M190.632 178.067L192.127 195.711L200.5 195.112L190.632 178.067Z" fill="#263238" stroke="#263238" stroke-miterlimit="10"/>
<path d="M182.696 208.831C182.696 208.831 203.159 205.618 204.681 205.956C206.203 206.295 216.687 211.368 218.209 211.706C219.201 211.939 220.165 212.28 221.084 212.72L223.378 214.64L222.606 208.831C222.606 208.831 219.562 205.111 212.798 202.405C206.034 199.699 202.651 201.221 201.129 201.728C199.607 202.235 182.696 208.831 182.696 208.831Z" fill="#263238" stroke="#263238" stroke-miterlimit="10"/>
<path d="M151.255 193.398L204.443 193.233C204.443 193.233 221.569 191.586 222.227 191.422C222.886 191.258 229.638 193.068 230.296 193.563C230.954 194.057 230.955 195.539 230.626 197.021L230.296 198.503C230.539 199.754 230.704 201.019 230.79 202.29C230.79 203.443 229.473 203.772 229.308 204.266C229.143 204.761 230.296 206.572 228.979 207.724L227.662 208.877C227.662 208.877 227.497 212.005 226.838 212.829C226.179 213.652 224.203 215.135 223.38 214.64C222.557 214.145 222.886 212.829 222.886 212.005C222.886 211.181 222.557 210.358 221.569 210.358C220.581 210.358 220.416 211.182 215.311 209.864C210.206 208.547 204.608 204.101 204.114 203.936C203.62 203.771 158.994 215.792 145.821 217.439C132.647 219.086 131.494 217.275 131.001 215.134C130.507 212.993 129.683 207.89 129.683 207.89L127.378 197.844L151.255 193.398Z" fill="#FFCDB1" stroke="#263238" stroke-miterlimit="10"/>
<path d="M185.825 131.844C185.825 131.844 188.571 128.953 190.307 130.254C192.042 131.555 193.632 138.495 195.798 137.916C197.965 137.338 202.304 123.892 202.304 118.543C202.304 113.194 198.545 110.013 197.678 109.721C196.81 109.429 174.69 109.143 172.089 110.155C169.488 111.166 168.474 120.275 167.462 125.769C166.45 131.263 168.763 132.564 170.208 131.842C171.653 131.119 177.292 128.804 178.593 128.804C179.895 128.804 185.825 131.844 185.825 131.844Z" fill="#FFB115" stroke="#263238" stroke-miterlimit="10"/>
<path d="M200.632 101.37C200.632 101.37 198.56 111.615 197.754 114.147C196.949 116.68 191.078 124.392 189.581 126.007C188.084 127.622 183.711 135.561 182.559 135.792C181.408 136.022 178.185 125.201 178.185 125.201C178.185 125.201 174.041 118.064 173.235 116.222C172.429 114.381 171.163 108.97 171.163 108.97C171.163 108.97 177.954 114.839 185.209 113.572C192.463 112.304 196.145 105.053 196.145 105.053L200.632 101.37Z" fill="#FFCDB1" stroke="#263238" stroke-miterlimit="10"/>
<path d="M172.523 80.9547C172.523 80.9547 170.5 78.786 169.343 82.1108C168.186 85.4357 170.5 91.3644 170.5 91.3644L172.523 80.9547Z" fill="#FFCDB1" stroke="#263238" stroke-miterlimit="10"/>
<path d="M172.889 74.2029C172.889 74.2029 169.551 97.9165 169.551 99.2994C169.551 100.682 168.631 105.285 170.012 108.278C171.393 111.271 175.537 114.955 178.876 115.415C182.214 115.876 188.775 115.185 192.459 112.307C196.142 109.429 200.404 103.213 200.404 103.213C200.404 103.213 205.009 102.523 207.999 101.257C210.99 99.9905 213.295 97.112 213.18 94.1196C213.048 92.2034 212.369 90.3654 211.222 88.8242L209.496 85.6011L214.1 76.9674C214.1 76.9674 211.453 72.0173 202.935 67.2979C194.417 62.5786 186.819 61.0818 183.25 61.0818C179.681 61.0818 175.192 62.578 173.925 65.4559C172.659 68.3338 172.889 74.2029 172.889 74.2029Z" fill="#FFCDB1" stroke="#263238" stroke-miterlimit="10"/>
<path d="M183.825 62.5762C183.825 62.5762 190.387 73.3972 195.334 72.9368C200.282 72.4764 201.781 70.174 201.781 70.174L205.119 74.6632C205.119 74.6632 201.55 76.16 202.241 78.0014C202.932 79.8429 206.039 83.9874 206.039 83.9874L203.506 94.8084C203.506 94.8084 205.462 95.1537 205.808 94.4631C206.154 93.7726 207.88 89.513 207.88 89.513C208.345 89.2158 208.849 88.9835 209.377 88.8224C209.984 88.6936 210.611 88.6936 211.218 88.8224C211.218 88.8224 212.485 84.5628 212.945 84.4478C213.406 84.3327 218.01 83.0667 219.737 78.5769C221.464 74.0871 218.816 66.9508 212.83 61.3102C206.844 55.6695 194.182 54.1733 193.492 53.1369C192.803 52.1005 196.715 53.5978 195.909 51.2954C195.103 48.993 190.039 46 183.593 49.2232C177.146 52.4463 178.067 56.0148 178.758 57.1686L179.448 58.3195C179.448 58.3195 174.038 56.4775 170.239 58.7799C166.44 61.0823 164.598 65.6866 166.325 66.1475C168.051 66.6085 170.239 65.5715 170.239 65.5715C170.239 65.5715 167.937 69.3689 168.628 70.1763C169.318 70.9837 172.887 74.2075 172.887 74.2075C172.887 74.2075 174.268 66.1499 177.146 64.9984C180.023 63.8469 183.825 62.5762 183.825 62.5762Z" fill="#263238" stroke="#263238" stroke-miterlimit="10"/>
<path d="M181.753 78.1165L182.789 81.4547L176.918 92.5053L183.134 94.9228" stroke="#263238" stroke-miterlimit="10"/>
<path d="M180.602 76.8504C180.602 76.8504 177.839 74.6631 175.537 75.2385C173.234 75.814 174.616 76.1599 176.227 76.7353C177.839 77.3108 181.061 78.8076 180.602 76.8504Z" fill="#263238" stroke="#263238" stroke-miterlimit="10"/>
<path d="M189.123 76.3902C189.123 76.3902 186.475 77.0807 187.742 77.6562C189.008 78.2317 192.806 77.0807 194.303 77.6562C195.8 78.2317 197.757 80.1888 197.641 79.2681C197.472 78.4702 197.096 77.7309 196.551 77.1246C196.005 76.5184 195.309 76.0666 194.533 75.8147C192.458 75.1236 189.123 76.3902 189.123 76.3902Z" fill="#263238" stroke="#263238" stroke-miterlimit="10"/>
<path d="M179.079 81.9589C178.878 82.7931 178.314 83.3727 177.819 83.2529C177.325 83.1331 177.087 82.3608 177.289 81.5265C177.492 80.6923 178.055 80.1127 178.55 80.2325C179.044 80.3522 179.281 81.1246 179.079 81.9589Z" fill="#263238"/>
<path d="M191.627 85.2401C191.425 86.0743 190.861 86.6539 190.367 86.5341C189.872 86.4144 189.635 85.6414 189.837 84.8072C190.039 83.9729 190.603 83.3939 191.097 83.5131C191.591 83.6323 191.828 84.4058 191.627 85.2401Z" fill="#263238"/>
<path d="M173.349 96.3047L178.069 99.4128" stroke="#263238" stroke-miterlimit="10"/>
<path d="M221.898 124.237C221.898 124.237 238.198 130.494 241.329 139.88C244.461 149.266 240.506 161.123 238.859 166.063C237.212 171.003 227.003 190.27 225.356 194.879C223.71 199.487 221.239 205.088 221.239 205.088C221.239 205.088 218.934 191.256 212.676 182.693C206.419 174.13 204.937 166.393 204.937 166.393C204.937 166.393 216.299 146.303 219.264 140.044" fill="#FFB115"/>
<path d="M221.898 124.237C221.898 124.237 238.198 130.494 241.329 139.88C244.461 149.266 240.506 161.123 238.859 166.063C237.212 171.003 227.003 190.27 225.356 194.879C223.71 199.487 221.239 205.088 221.239 205.088C221.239 205.088 218.934 191.256 212.676 182.693C206.419 174.13 204.937 166.393 204.937 166.393C204.937 166.393 216.299 146.303 219.264 140.044" stroke="#263238" stroke-miterlimit="10"/>
<path d="M206.665 162.913C206.665 162.913 210.001 161.245 211.113 161.803C212.225 162.361 226.493 169.956 228.348 178.666C229.684 185.198 228.77 191.991 225.753 197.938C224.086 201.088 220.936 207.203 218.526 207.944C216.117 208.685 214.079 188.857 209.076 178.48C204.073 168.102 206.665 162.913 206.665 162.913Z" fill="#FFB115" stroke="#263238" stroke-miterlimit="10"/>
<path d="M212.183 153.383C212.183 153.383 215.147 143.338 216.299 139.386" stroke="#263238" stroke-miterlimit="10"/>
<path d="M182.443 117.716C182.443 117.716 177.839 111.27 174.271 107.011C170.702 102.752 167.018 100.219 165.752 100.564C164.486 100.909 164.025 102.176 164.831 103.672C165.638 105.168 169.436 108.507 170.126 109.428C170.817 110.348 171.853 113.687 171.853 113.687C171.853 113.687 168.515 113.917 167.939 114.608C167.398 115.406 166.936 116.254 166.557 117.141C165.872 117.496 165.28 118.009 164.831 118.637C164.484 119.116 164.248 119.667 164.14 120.249C164.023 120.709 162.413 121.515 162.528 123.587C162.644 125.659 164.6 128.652 165.291 130.033C165.982 131.414 171.047 137.515 171.968 138.552C172.888 139.588 178.184 148.797 179.563 151.905C180.941 155.013 194.297 191.043 198.211 196.454C202.125 201.864 209.377 207.044 213.291 208.886C217.205 210.728 219.968 207.62 221.81 203.706C223.652 199.791 225.263 191.963 221.693 182.986C218.123 174.008 211.102 166.294 205.692 161.689C200.282 157.085 190.152 145.574 189 143.501C187.849 141.429 186.353 136.825 186.353 136.825C186.353 136.825 189.345 128.076 189.576 126.004C189.806 123.933 188.655 120.249 189 118.637C189.345 117.025 190.727 113.802 191.303 112.421C191.878 111.039 193.835 108.74 192.799 107.701C191.762 106.662 187.504 107.931 186.007 110.349C184.679 112.734 183.489 115.194 182.443 117.716V117.716Z" fill="#FFCDB1" stroke="#263238" stroke-miterlimit="10"/>
<path d="M146.863 142.645C147.214 140.817 147.468 139.549 147.468 139.549Z" fill="#92E3A9"/>
<path d="M146.863 142.645C147.214 140.817 147.468 139.549 147.468 139.549" stroke="#263238" stroke-miterlimit="10"/>
<path d="M145.821 123.743C145.821 123.743 137.093 124.895 128.036 134.609C118.98 144.323 122.932 167.378 123.755 172.154C124.579 176.929 125.896 191.585 125.896 191.585L149.114 183.845C149.114 183.845 145.327 157.992 144.998 155.686C144.831 154.521 145.465 150.411 146.13 146.63" fill="#FFB115"/>
<path d="M145.821 123.743C145.821 123.743 137.093 124.895 128.036 134.609C118.98 144.323 122.932 167.378 123.755 172.154C124.579 176.929 125.896 191.585 125.896 191.585L149.114 183.845C149.114 183.845 145.327 157.992 144.998 155.686C144.831 154.521 145.465 150.411 146.13 146.63" stroke="#263238" stroke-miterlimit="10"/>
<path d="M123.591 186.482C123.591 186.482 125.896 198.832 127.049 199.491C128.201 200.15 146.153 195.209 148.126 194.88C150.1 194.551 151.255 195.045 151.255 193.398C151.255 191.751 149.608 184.012 148.62 182.694C147.632 181.377 126.225 184.177 124.414 184.67C122.602 185.164 123.591 186.482 123.591 186.482Z" fill="#FFB115" stroke="#263238" stroke-miterlimit="10"/>
<path d="M136.74 176.937C140.831 178.574 144.801 180.498 148.62 182.694C148.62 182.694 143.021 172.156 140.716 170.017" stroke="#263238" stroke-miterlimit="10"/>
<path d="M133.635 175.778C134.297 176.007 134.949 176.245 135.592 176.49" stroke="#263238" stroke-miterlimit="10"/>
<path d="M187.641 229.686C191.9 228.167 195.82 226.495 198.186 224.85" stroke="#263238" stroke-miterlimit="10"/>
<path d="M167.557 235.553C167.557 235.553 176.655 233.395 185.289 230.498" stroke="#263238" stroke-miterlimit="10"/>
<path d="M205.821 224.166C201.348 226.395 194.26 229.657 188.47 231.107" stroke="#263238" stroke-miterlimit="10"/>
<path d="M210.206 221.886C210.206 221.886 209.289 222.393 207.767 223.178" stroke="#263238" stroke-miterlimit="10"/>
<path d="M56.1671 12.9154C16.9814 31.7905 9.54833 87.2146 34.4012 120.526C39.5961 127.489 46.3877 133.36 54.4302 136.767C81.9004 148.416 103.896 125.258 117.282 103.984C138.653 70.0198 141.325 61.6239 140.943 67.3487C140.562 73.0735 150.484 79.1786 156.208 49.0303C163.525 10.4938 109.57 1.72924 82.2585 5.3561C73.2169 6.48315 64.4108 9.03449 56.1671 12.9154V12.9154Z" fill="#263238" stroke="#263238" stroke-miterlimit="10"/>
<path d="M152.891 83.013C155.188 78.8647 155.033 74.3843 152.544 73.0058C150.055 71.6273 146.175 73.8727 143.878 78.021C141.58 82.1693 141.735 86.6497 144.224 88.0282C146.713 89.4068 150.593 87.1614 152.891 83.013Z" fill="#263238" stroke="#263238" stroke-miterlimit="10"/>
<path d="M156.987 83.863C155.629 86.3167 155.721 88.9627 157.192 89.7777C158.663 90.5927 160.956 89.2653 162.314 86.8133C163.671 84.3614 163.58 81.7142 162.109 80.8992C160.638 80.0842 158.345 81.4116 156.987 83.863Z" fill="#263238" stroke="#263238" stroke-miterlimit="10"/>
<path d="M58.4233 9.30488C19.2377 28.18 11.8023 83.6041 36.6581 116.919C41.853 123.882 48.644 129.752 56.6865 133.16C84.1567 144.809 106.153 121.651 119.539 100.377C140.909 66.4128 143.581 58.0175 143.2 63.7417C142.819 69.4659 152.74 75.5716 158.465 45.4234C165.782 6.88444 111.827 -1.88008 84.5154 1.7497C75.4738 2.87525 66.6674 5.42521 58.4233 9.30488V9.30488Z" fill="white" stroke="#263238" stroke-miterlimit="10"/>
<path d="M146.134 74.4113C143.836 78.5593 143.992 83.0403 146.481 84.4191C148.97 85.7979 152.849 83.5521 155.148 79.4035C157.447 75.255 157.29 70.7745 154.801 69.3964C152.312 68.0182 148.432 70.2633 146.134 74.4113Z" fill="white" stroke="#263238" stroke-miterlimit="10"/>
<path d="M159.243 80.2536C157.886 82.7074 157.977 85.3527 159.448 86.1677C160.918 86.9827 163.213 85.6554 164.57 83.204C165.928 80.7526 165.836 78.1043 164.365 77.2893C162.894 76.4743 160.601 77.7999 159.243 80.2536Z" fill="white" stroke="#263238" stroke-miterlimit="10"/>
<path d="M46.1644 44.3045V36.5869H50.8644C51.086 35.309 51.4199 34.0531 51.8623 32.8339L47.8008 30.4894L51.6567 23.8059L55.7275 26.1556C56.5615 25.1625 57.4803 24.2438 58.4734 23.4098L56.1242 19.3412L62.8077 15.4853L65.154 19.548C66.3734 19.1072 67.6292 18.7749 68.907 18.5549V13.853H76.6246V18.5531C77.9024 18.7752 79.1583 19.1091 80.3777 19.551L82.7222 15.49L89.4057 19.3459L87.0577 23.4168C88.0508 24.2508 88.9695 25.1695 89.8036 26.1626L93.8721 23.8135L97.728 30.497L93.6653 32.8426C94.1068 34.0622 94.4401 35.3183 94.6614 36.5963H99.3597V44.3139H94.6596C94.4376 45.5918 94.1035 46.8476 93.6612 48.0669L97.7227 50.4114L93.8639 57.0949L89.7936 54.7452C88.9594 55.7381 88.0407 56.6569 87.0478 57.491L89.3969 61.5596L82.7134 65.4155L80.3678 61.3522C79.1482 61.7939 77.8921 62.1274 76.6141 62.3489V67.0466H68.8965V62.3494C67.6186 62.1274 66.3628 61.7933 65.1435 61.351L62.799 65.4125L56.1155 61.5567L58.4652 57.4858C57.4721 56.6518 56.5534 55.733 55.7194 54.7399L51.6508 57.0891L47.792 50.4056L51.8553 48.0593C51.4136 46.84 51.0801 45.5841 50.8586 44.3063L46.1644 44.3045ZM72.7641 54.8311C75.608 54.831 78.3881 53.9875 80.7527 52.4074C83.1173 50.8274 84.9603 48.5816 86.0485 45.9541C87.1368 43.3266 87.4215 40.4354 86.8667 37.6461C86.3118 34.8568 84.9423 32.2947 82.9313 30.2837C80.9204 28.2728 78.3582 26.9032 75.5689 26.3484C72.7796 25.7935 69.8885 26.0783 67.261 27.1665C64.6335 28.2548 62.3877 30.0978 60.8076 32.4624C59.2275 34.827 58.3841 37.607 58.384 40.451C58.384 44.2648 59.899 47.9225 62.5958 50.6192C65.2926 53.316 68.9502 54.8311 72.7641 54.8311Z" fill="#FFA44A"/>
<path d="M57.1156 89.6589V83.3849H60.9365C61.1166 82.3461 61.3882 81.3251 61.7479 80.3341L58.4459 78.4278L61.5832 72.9945L64.8922 74.9049C65.5698 74.0981 66.3164 73.3517 67.1234 72.6743L65.2141 69.3664L70.6474 66.2297L72.5543 69.533C73.5457 69.1738 74.5668 68.9027 75.6057 68.7226V64.9036H81.878V68.7244C82.9167 68.9048 83.9376 69.1764 84.9288 69.5359L86.8351 66.2344L92.2684 69.3711L90.358 72.6802C91.1646 73.358 91.9108 74.1047 92.5879 74.9119L95.8958 73.0021L99.0325 78.4354L95.7299 80.3428C96.0888 81.3341 96.3598 82.3549 96.5396 83.3937H100.359V89.6676H96.542C96.3618 90.7065 96.0903 91.7274 95.7305 92.7185L99.0325 94.6248L95.8952 100.058L92.5862 98.1477C91.9084 98.9543 91.1619 99.7007 90.3551 100.378L92.2643 103.686L86.831 106.823L84.9241 103.52C83.9327 103.879 82.9116 104.149 81.8727 104.329V108.149H75.5964V104.328C74.5577 104.147 73.5368 103.876 72.5456 103.517L70.6398 106.818L65.2065 103.681L67.1175 100.372C66.3107 99.6942 65.5644 98.9476 64.887 98.1406L61.5791 100.05L58.4424 94.6172L61.7456 92.7097C61.3862 91.7186 61.1151 90.6977 60.9353 89.6589H57.1156ZM78.7383 98.216C81.0503 98.2159 83.3104 97.5302 85.2327 96.2456C87.1549 94.9611 88.6531 93.1354 89.5378 90.9993C90.4225 88.8633 90.6539 86.5129 90.2028 84.2454C89.7517 81.9778 88.6383 79.895 87.0034 78.2602C85.3686 76.6254 83.2857 75.5121 81.0181 75.0611C78.7505 74.6101 76.4001 74.8416 74.2642 75.7264C72.1282 76.6112 70.3025 78.1095 69.0181 80.0319C67.7336 81.9542 67.048 84.2143 67.048 86.5263C67.048 88.0614 67.3504 89.5816 67.9379 90.9999C68.5254 92.4182 69.3865 93.7069 70.4721 94.7924C71.5576 95.8779 72.8464 96.7389 74.2647 97.3263C75.683 97.9138 77.2032 98.2161 78.7383 98.216V98.216Z" fill="#FFA44A"/>
<path d="M96.9796 75.3175V70.5391H99.8896C100.027 69.7478 100.234 68.9701 100.508 68.2151L97.9955 66.7633L100.384 62.6246L102.905 64.0794C103.422 63.465 103.99 62.8966 104.605 62.3804L103.15 59.8613L107.289 57.4718L108.742 59.988C109.497 59.7144 110.274 59.5079 111.066 59.3711V56.4617H115.845V59.3723C116.636 59.5097 117.413 59.7163 118.168 59.9898L119.619 57.4771L123.757 59.8665L122.302 62.3869C122.917 62.9031 123.485 63.472 124.001 64.087L126.52 62.6322L128.91 66.7709L126.394 68.2233C126.667 68.9784 126.874 69.7561 127.011 70.5473H129.92V75.3263H127.009C126.871 76.1175 126.665 76.8952 126.391 77.6503L128.903 79.1021L126.514 83.2407L123.994 81.7854C123.477 82.3999 122.909 82.9684 122.294 83.4844L123.748 86.0041L119.609 88.3936L118.157 85.8773C117.402 86.151 116.624 86.3574 115.833 86.4943V89.4037H111.054V86.4931C110.263 86.3557 109.485 86.1489 108.73 85.875L107.278 88.3901L103.14 86.0006L104.595 83.4803C103.98 82.9638 103.412 82.395 102.896 81.7802L100.377 83.2349L97.9897 79.0933L100.505 77.641C100.232 76.8856 100.026 76.1078 99.8884 75.3163L96.9796 75.3175ZM113.449 81.8392C115.211 81.8394 116.932 81.3174 118.397 80.3392C119.861 79.361 121.003 77.9706 121.677 76.3436C122.351 74.7167 122.528 72.9264 122.185 71.199C121.841 69.4717 120.994 67.8849 119.749 66.6393C118.504 65.3937 116.917 64.5453 115.19 64.2012C113.463 63.8572 111.672 64.0331 110.045 64.7066C108.418 65.3801 107.027 66.521 106.048 67.985C105.069 69.449 104.546 71.1704 104.546 72.9315C104.545 74.1011 104.775 75.2592 105.223 76.3399C105.67 77.4205 106.326 78.4024 107.153 79.2296C107.979 80.0568 108.961 80.713 110.041 81.1607C111.122 81.6085 112.28 81.839 113.449 81.8392V81.8392Z" fill="#FFA44A"/>
<path d="M192.092 32.1643C192.092 29.6677 194.063 28.1363 197.539 25.7426C200.763 23.5223 202.464 20.6422 201.707 16.7226C200.951 12.803 197.808 9.56434 194.005 8.78469C188.034 7.56084 182.289 12.4202 182.289 18.6934" stroke="#FFB115" stroke-width="6" stroke-linecap="round" stroke-linejoin="round"/>
<path d="M192.131 40.7273C191.668 40.7273 191.293 40.3518 191.293 39.8885C191.293 39.4253 191.668 39.0498 192.131 39.0498" stroke="#FFB115" stroke-width="8"/>
<path d="M192.131 40.7273C192.594 40.7273 192.97 40.3518 192.97 39.8885C192.97 39.4253 192.594 39.0498 192.131 39.0498" stroke="#FFB115" stroke-width="6"/>
</svg>
