<svg xmlns="http://www.w3.org/2000/svg" xmlns:xlink="http://www.w3.org/1999/xlink" width="463.857" height="354.699" viewBox="0 0 463.857 354.699">
  <defs>
    <clipPath id="clip-path">
      <path id="Path_17298" data-name="Path 17298" d="M606.373-2974.544l7.354-4.625q-.114.071-.225.146c-.075.05-.149.1-.223.152s-.147.1-.219.159-.145.109-.217.166l-7.352,4.624c.071-.056.144-.111.217-.165s.145-.107.219-.159.148-.1.222-.152S606.3-2974.5,606.373-2974.544Z" transform="translate(-605.49 2979.17)" fill="none"/>
    </clipPath>
    <clipPath id="clip-path-2">
      <path id="Path_17328" data-name="Path 17328" d="M691.552-2630.409,491.6-2902.4l100.05-79.091,178.094,254.313Z" transform="translate(-491.598 2981.489)" fill="none"/>
    </clipPath>
    <clipPath id="clip-path-3">
      <path id="Path_17330" data-name="Path 17330" d="M538.343-2575.264l-1.284,1.753a32.94,32.94,0,0,1-19.8,12.548c-21.365,4.745-45.77-8.727-54.507-30.089-5.241-12.813-3.655-25.557,3.064-34.728l1.284-1.753c-6.719,9.171-8.3,21.915-3.064,34.728,8.737,21.362,33.142,34.834,54.507,30.089A32.934,32.934,0,0,0,538.343-2575.264Z" transform="translate(-459.63 2627.534)" fill="none"/>
    </clipPath>
    <clipPath id="clip-path-4">
      <path id="Path_17332" data-name="Path 17332" d="M539.966-2573.9l-1.284,1.753a35.853,35.853,0,0,1-21.556,13.658c-23.258,5.166-49.827-9.5-59.338-32.751-5.7-13.948-3.977-27.817,3.336-37.8l1.284-1.753c-7.314,9.983-9.041,23.853-3.336,37.8,9.511,23.255,36.08,37.917,59.338,32.751A35.854,35.854,0,0,0,539.966-2573.9Z" transform="translate(-454.392 2630.798)" fill="none"/>
    </clipPath>
    <linearGradient id="linear-gradient" y1="0.5" x2="1" y2="0.5" gradientUnits="objectBoundingBox">
      <stop offset="0" stop-color="#f5d059"/>
      <stop offset="1" stop-color="#f0b90b"/>
    </linearGradient>
    <clipPath id="clip-path-5">
      <path id="Path_17338" data-name="Path 17338" d="M989.191-2650.475l3.74,2.241c10.192,6.107,15.606,18.919,12.657,32.825-3.853,18.165-20.5,31.314-37.186,29.376a26.416,26.416,0,0,1-10.59-3.562l-3.74-2.241a26.424,26.424,0,0,0,10.59,3.563c16.684,1.938,33.333-11.211,37.185-29.376C1004.8-2631.556,999.383-2644.367,989.191-2650.475Z" transform="translate(-954.073 2650.475)" fill="none"/>
    </clipPath>
    <clipPath id="clip-path-6">
      <path id="Path_17341" data-name="Path 17341" d="M990.969-2654.677l1.886,1.053c11.645,6.5,18.057,20.774,15.009,36.39-3.926,20.117-22.048,34.854-40.47,32.917a29.241,29.241,0,0,1-11.253-3.532l-1.885-1.053a29.221,29.221,0,0,0,11.253,3.532c18.422,1.937,36.544-12.8,40.471-32.917C1009.027-2633.9,1002.616-2648.175,990.969-2654.677Z" transform="translate(-954.256 2654.677)" fill="none"/>
    </clipPath>
    <clipPath id="clip-path-7">
      <path id="Path_17367" data-name="Path 17367" d="M809.759-2806.538l22.867-73.094,117.014-8.743-17.693,115Z" transform="translate(-809.759 2888.375)" fill="none"/>
    </clipPath>
  </defs>
  <g id="hero-banner" transform="translate(-439.305 2981.889)">
    <path id="Path_17291" data-name="Path 17291" d="M1057.4-2775.542h-43.723a9.038,9.038,0,0,0-9.039,9.038h-5.616a1.094,1.094,0,0,0-.773,1.867l6.389,6.39v16.946a9.038,9.038,0,0,0,9.039,9.038H1057.4a9.038,9.038,0,0,0,9.039-9.038v-25.2A9.038,9.038,0,0,0,1057.4-2775.542Z" transform="translate(-163.277 -60.312)" fill="#e5e6e6"/>
    <g id="Group_8689" data-name="Group 8689" transform="translate(466.646 -2981.889)">
      <g id="Group_8684" data-name="Group 8684">
        <g id="Group_8683" data-name="Group 8683" style="isolation: isolate">
          <path id="Path_17292" data-name="Path 17292" d="M694.854-2631.633c-.548.362-1.095.733-1.651,1.095a10.368,10.368,0,0,1-.989.587c-.113.065-.226.1-.339.161-.185.1-.378.193-.571.274-.04.016-.072.024-.113.041-.137.056-.273.1-.41.153-.217.072-.427.153-.643.209-.154.048-.3.08-.451.112-.13.032-.258.081-.395.1-.081.016-.161.024-.241.032-.033.008-.064.016-.1.024.048-.008.1-.008.144-.016l-8.5,1.546c-.29.056-.58.1-.878.129a11.318,11.318,0,0,1-2.657-.064,11.881,11.881,0,0,1-1.288-.258c.064.016.129.041.193.056-.62-.145-1.248-.3-1.876-.442a12.022,12.022,0,0,1-1.594-.516c-.234-.089-.459-.169-.684-.273-.185-.081-.362-.186-.548-.282a13.894,13.894,0,0,1-1.272-.733c-.129-.089-.265-.161-.394-.258a15.47,15.47,0,0,1-2.093-1.747c-.338-.33-.668-.684-.99-1.054s-.636-.765-.934-1.176L482.452-2882.051a23.659,23.659,0,0,1-3.067-5.587,22.112,22.112,0,0,1-1.369-5.829,18.741,18.741,0,0,1,.322-5.6,14.843,14.843,0,0,1,1.972-4.9l.966-1.53c-.023.041-.048.089-.072.13.234-.371.475-.725.741-1.072.081-.113.169-.217.258-.321.233-.29.475-.572.732-.838.1-.1.2-.209.3-.313a13.129,13.129,0,0,1,1.119-.991l83.856-65.75.217-.168c.072-.049.145-.1.217-.153a2.108,2.108,0,0,1,.226-.154c.072-.048.144-.1.225-.145l7.205-4.532a.3.3,0,0,1,.081-.057.031.031,0,0,1,.025-.008l.023-.024c.04-.017.081-.041.121-.057s.073-.056.113-.081c.073-.04.145-.072.218-.113.129-.072.257-.161.394-.225.112-.057.234-.1.346-.153.073-.032.137-.073.2-.1s.113-.04.161-.056c.081-.033.153-.072.225-.1.21-.081.419-.136.628-.2.072-.024.137-.057.209-.081.016,0,.032-.008.056-.008l.073-.025a8.531,8.531,0,0,1,1-.225c.008-.008.016-.008.033-.008s.024-.008.032-.008.024,0,.033-.008h.04l1.964-.33a9.374,9.374,0,0,0-1.159.265c-.08.024-.161.056-.25.081-.273.089-.547.185-.813.3-.12.049-.233.105-.345.153-.242.113-.483.234-.717.363-.1.064-.209.12-.314.185a9.516,9.516,0,0,0-.942.653l-84.09,66.12a13.609,13.609,0,0,0-1.071.95c-.088.089-.177.186-.273.282-.258.273-.507.563-.749.861-.064.081-.129.153-.193.233-.282.37-.539.764-.789,1.159-.056.1-.1.193-.161.289-.185.331-.362.66-.523,1.006-.056.121-.112.242-.169.362a14.048,14.048,0,0,0-.523,1.345c-.008.024-.016.048-.025.081-.137.435-.257.885-.362,1.344-.033.129-.064.266-.1.4-.081.4-.145.805-.2,1.216-.016.1-.033.193-.049.3-.056.5-.088,1-.112,1.513v.37c-.008.411-.008.829.016,1.24.008.145.008.281.016.427.04.524.088,1.055.161,1.586.008.048.024.1.033.154.072.483.161.965.273,1.449.033.153.065.306.1.451.105.427.217.861.347,1.28.04.129.072.249.113.37q.254.8.58,1.594c.048.121.1.242.161.362.177.419.363.829.564,1.232l.241.483c.25.475.507.942.8,1.409.024.048.057.1.081.145.338.539.692,1.071,1.079,1.594l184.982,251.787q.435.591.894,1.135c.016.016.032.025.04.04q.46.532.942,1.015a.878.878,0,0,0,.081.08c.274.274.556.539.845.789.105.089.21.169.314.258q.326.265.652.507c.12.088.249.177.37.258.185.129.37.25.564.37s.41.258.619.37c.169.1.338.186.507.274.21.1.427.209.644.3q.254.12.507.217c.217.089.435.161.652.234.169.057.338.113.507.161.225.064.451.113.676.161.169.032.338.081.507.1.145.024.29.04.435.064.217.024.427.048.645.064.153.009.3.016.45.016.209.008.411.008.621.008.153-.008.306-.016.45-.032.21-.009.411-.032.612-.057l.451-.072c.2-.032.4-.081.6-.129a3.81,3.81,0,0,0,.427-.112c.209-.057.41-.13.62-.2.129-.048.265-.088.395-.145.225-.088.442-.193.66-.3.1-.048.217-.1.322-.153A10.439,10.439,0,0,0,694.854-2631.633Z" transform="translate(-477.938 2981.83)" fill="#232323"/>
          <path id="Path_17293" data-name="Path 17293" d="M697.2-2631.07c-.107.056-.217.1-.325.154-.217.106-.435.21-.657.3-.131.053-.265.1-.4.144-.2.073-.407.144-.614.2-.142.041-.286.074-.43.108-.2.049-.4.094-.606.131-.149.026-.3.047-.447.067q-.3.041-.61.063-.227.017-.454.025c-.206.006-.413,0-.62,0-.151,0-.3-.009-.452-.019-.213-.015-.426-.04-.639-.068-.145-.019-.291-.035-.436-.06-.17-.029-.339-.07-.508-.107-.225-.049-.45-.1-.674-.161-.17-.047-.339-.1-.508-.16-.219-.072-.437-.145-.655-.23-.171-.067-.341-.141-.511-.217-.214-.095-.428-.193-.64-.3-.17-.086-.338-.177-.507-.272-.209-.117-.418-.24-.624-.371-.189-.119-.377-.24-.563-.369-.122-.084-.243-.169-.364-.258-.219-.162-.437-.335-.652-.512-.105-.086-.212-.169-.316-.259q-.432-.374-.851-.788l-.081-.076q-.479-.481-.937-1.015l-.038-.045q-.462-.541-.9-1.135L496.207-2888.079c-.384-.523-.74-1.056-1.075-1.6-.03-.047-.059-.1-.088-.143-.284-.464-.544-.936-.792-1.41-.083-.16-.164-.32-.243-.48q-.3-.611-.565-1.231c-.052-.122-.11-.244-.159-.367q-.322-.791-.58-1.59c-.04-.123-.072-.246-.11-.368-.13-.426-.248-.854-.352-1.28-.036-.151-.072-.3-.105-.453-.106-.483-.2-.967-.272-1.448-.008-.053-.02-.106-.027-.158-.076-.53-.126-1.058-.161-1.583-.01-.142-.015-.284-.021-.425q-.029-.624-.018-1.241c0-.124,0-.25,0-.373q.028-.767.114-1.515c.013-.1.03-.2.044-.3q.083-.613.207-1.209c.028-.137.057-.274.088-.41.106-.455.226-.905.369-1.343.008-.026.015-.054.023-.081.153-.461.332-.907.525-1.345.052-.12.11-.239.166-.357q.244-.517.526-1.008c.055-.1.106-.193.163-.287a13.478,13.478,0,0,1,.788-1.16c.062-.082.129-.157.193-.237.236-.3.487-.583.749-.859.091-.1.182-.191.275-.284a12.419,12.419,0,0,1,1.064-.951l84.089-66.123a9.881,9.881,0,0,1,.943-.648c.1-.064.213-.123.32-.183.233-.131.469-.253.71-.363.115-.053.229-.106.345-.154.268-.111.541-.208.817-.3.085-.027.167-.06.253-.083a10.272,10.272,0,0,1,1.154-.263l-1.966.325-.034.006-.035.006-.034.006-.034.006q-.5.089-.994.225c-.026.007-.05.018-.075.025s-.04.008-.059.013c-.069.021-.135.052-.2.073-.21.067-.422.128-.628.208-.076.03-.15.069-.226.1-.052.021-.108.035-.161.057-.069.03-.132.072-.2.1-.115.053-.234.1-.348.154-.135.068-.263.151-.395.226-.072.041-.149.07-.221.112-.039.023-.074.054-.113.078-.055.034-.113.061-.168.1s-.139.09-.208.136-.137.094-.205.143-.136.1-.2.148-.134.1-.2.154l-84.087,66.019a13.135,13.135,0,0,0-1.112.992c-.1.1-.193.2-.288.3q-.412.432-.782.9c-.066.083-.137.163-.2.247-.264.347-.515.7-.747,1.074-.028.044-.05.091-.077.136-.059.1-.113.2-.17.3q-.3.512-.55,1.05c-.034.072-.078.139-.111.212-.024.052-.04.108-.063.161-.2.457-.389.923-.548,1.4-.009.028-.016.057-.025.084-.115.351-.221.706-.314,1.068-.028.109-.046.222-.071.332-.033.142-.064.285-.093.429q-.13.622-.217,1.259c-.014.105-.033.208-.045.313-.062.52-.1,1.047-.12,1.579,0,.041-.008.081-.01.122,0,.088.006.181,0,.269,0,.237-.014.471-.01.71,0,.193.02.387.028.581.006.148.012.3.021.446.037.547.088,1.1.167,1.649.008.056.02.112.028.167.076.5.172,1,.282,1.509.035.159.073.316.11.474s.069.313.11.469c.076.289.169.576.257.864.029.1.048.192.079.289.01.033.025.064.035.1.015.047.026.094.041.139q.229.693.5,1.379c.018.047.042.094.061.141.052.127.112.254.166.381.12.281.234.563.365.842.07.148.151.295.225.443q.124.25.253.5c.07.133.132.269.2.4q.2.37.418.735c.066.112.137.222.205.334.03.05.059.1.091.149.05.081.1.163.149.243.154.241.311.48.474.716s.328.473.5.706l184.8,251.288q.134.182.27.359c.091.118.183.235.275.35s.185.229.278.34c.038.046.077.089.115.134l.04.048.127.148q.413.47.84.9l.011.01c.028.028.057.052.086.08.255.252.512.5.774.728.037.032.076.061.113.093.108.094.219.18.328.27.151.124.3.255.454.372.076.057.153.106.229.162.054.041.108.088.163.128.071.051.144.092.215.141.1.072.207.152.311.221s.185.107.277.164q.324.2.651.386c.1.053.189.118.285.169.081.043.164.073.245.115.221.112.444.214.667.313.109.048.216.107.325.152.069.028.139.046.209.074.227.088.455.166.684.24.12.04.24.091.36.127.057.016.114.025.171.04s.124.042.187.059c.172.045.345.072.517.108.129.028.258.069.387.092.048.009.1.011.144.02.151.025.3.042.454.061.223.029.446.055.667.071.158.011.315.015.472.019.127,0,.254.017.381.015.089,0,.178-.012.267-.014.158-.005.315-.014.473-.026.214-.015.426-.038.638-.067.088-.011.178-.013.267-.028.067-.01.132-.031.2-.043s.16-.021.239-.036c.132-.027.263-.069.394-.1.149-.036.3-.071.447-.114.216-.062.43-.136.643-.213.138-.049.277-.094.413-.149.037-.016.076-.025.114-.042.194-.08.383-.18.573-.272.113-.055.227-.1.338-.161a11.353,11.353,0,0,0,.989-.586l0,0,1.647-1.1C697.841-2631.426,697.523-2631.24,697.2-2631.07Z" transform="translate(-481.235 2981.829)" fill="#f2f2f3"/>
          <path id="Path_17294" data-name="Path 17294" d="M675.961-2595.983a12.937,12.937,0,0,1-2.388-.824,14.717,14.717,0,0,1-2.318-1.33,17.046,17.046,0,0,1-2.192-1.834,19.764,19.764,0,0,1-2.011-2.332L483.528-2851.082a24.82,24.82,0,0,1-2.841-4.979c-.124-.29-.255-.579-.367-.871-.127-.332-.233-.665-.344-1a22.745,22.745,0,0,1-1.089-5.11q-.068-.759-.082-1.508a19.093,19.093,0,0,1,.411-4.36,16.83,16.83,0,0,1,.517-1.832,15.606,15.606,0,0,1,.87-2.112q.312-.612.677-1.188h0l-.971,1.53a15.033,15.033,0,0,0-1.974,4.9,18.65,18.65,0,0,0-.315,5.6,21.873,21.873,0,0,0,1.367,5.832,23.651,23.651,0,0,0,3.064,5.585l183.122,248.124q.454.616.935,1.173t.987,1.054h0a16.193,16.193,0,0,0,2.094,1.751c.132.092.267.167.4.254a14.079,14.079,0,0,0,1.271.737c.181.094.362.2.544.28.226.1.454.185.682.273a12.174,12.174,0,0,0,1.6.514Z" transform="translate(-477.938 2950.367)" fill="#cccdce"/>
          <path id="Path_17295" data-name="Path 17295" d="M685.9-2627.8a12.6,12.6,0,0,1-3.566-1.076,15.38,15.38,0,0,1-3.409-2.2,19.211,19.211,0,0,1-3.071-3.314h0l-184.8-251.288c-.427-.581-.823-1.175-1.193-1.778-.122-.2-.225-.405-.342-.608-.234-.406-.471-.813-.679-1.227-.125-.246-.228-.5-.343-.745-.175-.377-.353-.752-.507-1.132-.108-.269-.2-.542-.3-.812-.132-.364-.268-.727-.381-1.093-.168-.542-.321-1.086-.447-1.629-.021-.092-.036-.184-.057-.276q-.155-.709-.265-1.415c-.026-.169-.049-.337-.071-.506q-.085-.65-.13-1.294c-.01-.132-.024-.266-.031-.4q-.044-.821-.023-1.629c0-.119.013-.236.019-.354q.028-.641.1-1.271.026-.241.059-.48.086-.638.216-1.26c.021-.1.037-.205.059-.307.114-.5.251-1,.408-1.479.04-.123.086-.242.129-.363q.194-.554.425-1.088c.06-.139.121-.277.185-.413q.28-.6.608-1.161c.033-.056.061-.116.094-.171a14.013,14.013,0,0,1,.831-1.222c.083-.11.171-.214.257-.321q.35-.438.737-.845c.1-.1.2-.211.3-.313a13.435,13.435,0,0,1,1.118-1l84.087-66.018-7.352,4.624-83.858,65.75a13.26,13.26,0,0,0-1.115.992c-.1.1-.2.207-.3.311q-.385.405-.736.841c-.085.106-.173.209-.255.317-.286.378-.559.767-.807,1.173l-.023.041c-.033.054-.06.113-.093.168q-.329.56-.608,1.154c-.028.059-.064.113-.091.173-.035.077-.059.16-.093.237q-.231.531-.425,1.081c-.042.12-.089.238-.129.36-.146.45-.28.906-.389,1.373-.007.032-.011.065-.018.1-.023.1-.039.2-.06.3-.086.411-.159.829-.218,1.25-.021.158-.04.316-.059.475q-.07.626-.1,1.264c0,.087-.017.172-.021.26,0,.029,0,.059,0,.088-.014.483-.013.97.008,1.461,0,.052.009.1.012.156.006.131.021.263.03.394q.045.641.127,1.284c.022.168.045.334.07.5q.108.7.262,1.4c.02.091.034.182.055.272.112.481.238.963.382,1.444.018.057.042.114.059.17s.031.124.051.186c.1.3.218.6.326.9.082.227.148.455.237.68.017.042.04.083.057.126.151.375.328.745.5,1.117.1.22.187.442.3.66.014.027.032.054.045.082.207.41.442.812.674,1.214.108.186.2.378.313.563.008.013.018.025.026.039q.55.895,1.184,1.759l183.524,248.779h0a19,19,0,0,0,3.054,3.282,15.269,15.269,0,0,0,3.393,2.18,12.6,12.6,0,0,0,3.553,1.062,11.2,11.2,0,0,0,2.662.057q.439-.044.873-.123l8.5-1.55A11.055,11.055,0,0,1,685.9-2627.8Z" transform="translate(-478.295 2980.837)" fill="#e5e6e6"/>
          <g id="Group_8679" data-name="Group 8679" transform="translate(10.392)">
            <path id="Path_17296" data-name="Path 17296" d="M582.02-2979.753a9.913,9.913,0,0,1,4.875-2.04,12.7,12.7,0,0,1,5.492.551,17.865,17.865,0,0,1,5.449,2.905,22.778,22.778,0,0,1,4.764,5.038l163.469,234.326a22.73,22.73,0,0,1,2.919,5.878,23.635,23.635,0,0,1,1.169,6.3,19.717,19.717,0,0,1-.615,6.009,13.656,13.656,0,0,1-2.446,4.987l-65.154,81.507a11.746,11.746,0,0,1-4.475,3.512,10.361,10.361,0,0,1-5.213.8,12.454,12.454,0,0,1-5.314-1.875,17.313,17.313,0,0,1-4.761-4.507L497.2-2888.14a24.046,24.046,0,0,1-3.536-6.91,21.4,21.4,0,0,1-1.035-7.12,16.905,16.905,0,0,1,1.438-6.473,13.236,13.236,0,0,1,3.863-4.989Z" transform="translate(-492.621 2981.889)" fill="#010101"/>
          </g>
          <g id="Group_8682" data-name="Group 8682" transform="translate(90.271 1.924)" style="isolation: isolate">
            <g id="Group_8681" data-name="Group 8681" clip-path="url(#clip-path)">
              <g id="Group_8680" data-name="Group 8680" style="isolation: isolate">
                <path id="Path_17297" data-name="Path 17297" d="M612.842-2978.547l-7.352,4.624c.071-.056.144-.111.217-.165s.145-.107.219-.159.148-.1.222-.152.149-.1.225-.145l7.354-4.625q-.114.071-.225.146c-.075.05-.149.1-.223.152s-.147.1-.219.159-.145.109-.217.166" transform="translate(-605.49 2979.17)" fill="#232323"/>
              </g>
            </g>
          </g>
        </g>
      </g>
      <g id="Group_8688" data-name="Group 8688" transform="translate(9.668 0.283)">
        <g id="Group_8687" data-name="Group 8687" style="isolation: isolate">
          <g id="Group_8686" data-name="Group 8686" clip-path="url(#clip-path-2)">
            <g id="Group_8685" data-name="Group 8685" transform="translate(4.824 4.186)">
              <path id="Path_17299" data-name="Path 17299" d="M599.15-2958.669a.445.445,0,0,0-.049.048.3.3,0,0,0-.035.052.29.29,0,0,0-.023.05.2.2,0,0,0-.009.045c-.11.96-.24,1.9-.393,2.821s-.332,1.817-.54,2.685-.447,1.709-.72,2.515a21.075,21.075,0,0,1-.931,2.313,4.062,4.062,0,0,1-.209.375c-.082.132-.176.268-.28.4a5.009,5.009,0,0,1-.339.4,4.2,4.2,0,0,1-.389.366c-.036.029-.072.058-.109.086s-.074.055-.111.081-.076.051-.114.075-.077.047-.115.069a3.83,3.83,0,0,1-.956.378,4.282,4.282,0,0,1-1.035.124,4.8,4.8,0,0,1-1.057-.122,4.978,4.978,0,0,1-1.026-.359.537.537,0,0,0-.125-.044.493.493,0,0,0-.125-.012.413.413,0,0,0-.117.021.342.342,0,0,0-.1.057.332.332,0,0,0-.043.043.364.364,0,0,0-.037.053.393.393,0,0,0-.029.063.443.443,0,0,0-.02.073.631.631,0,0,0,0,.271.668.668,0,0,0,.1.223.87.87,0,0,0,.152.171.98.98,0,0,0,.165.117,15.468,15.468,0,0,0,1.795.884,15.335,15.335,0,0,0,1.735.6,14.351,14.351,0,0,0,1.611.353,12.345,12.345,0,0,0,1.428.146,1.58,1.58,0,0,0,.224,0,1.164,1.164,0,0,0,.2-.035.977.977,0,0,0,.183-.068.841.841,0,0,0,.159-.1.83.83,0,0,0,.1-.093.864.864,0,0,0,.083-.111.939.939,0,0,0,.071-.129,1.2,1.2,0,0,0,.058-.15c.269-.834.53-1.78.769-2.816s.452-2.161.626-3.359.306-2.463.382-3.782.094-2.687.039-4.089a.943.943,0,0,0-.017-.148,1.081,1.081,0,0,0-.063-.212.757.757,0,0,0-.134-.215.6.6,0,0,0-.232-.155.533.533,0,0,0-.125-.03.378.378,0,0,0-.107,0,.337.337,0,0,0-.091.028.39.39,0,0,0-.073.045m138.125,251.19a3,3,0,0,1-1.234.909,2.8,2.8,0,0,1-1.437.144,3.634,3.634,0,0,1-1.465-.6,5.235,5.235,0,0,1-1.316-1.311,6.717,6.717,0,0,1-.905-1.807,7.02,7.02,0,0,1-.345-1.947,5.927,5.927,0,0,1,.221-1.855,4.216,4.216,0,0,1,.794-1.531l19.914-23.791a2.781,2.781,0,0,1,1.19-.853,2.665,2.665,0,0,1,1.384-.1,3.585,3.585,0,0,1,1.41.611,5.268,5.268,0,0,1,1.268,1.294,6.738,6.738,0,0,1,.877,1.761,6.991,6.991,0,0,1,.345,1.887,5.813,5.813,0,0,1-.2,1.793,4.019,4.019,0,0,1-.749,1.476l-19.756,23.919m-27.094,7.08a3.152,3.152,0,0,1-1.291.935,2.969,2.969,0,0,1-1.5.154,3.776,3.776,0,0,1-1.522-.6,5.3,5.3,0,0,1-1.361-1.335,6.738,6.738,0,0,1-.93-1.846,7.049,7.049,0,0,1-.345-1.991,6.012,6.012,0,0,1,.244-1.9,4.356,4.356,0,0,1,.838-1.57l37.772-44.1a2.781,2.781,0,0,1,1.2-.84,2.7,2.7,0,0,1,1.4-.09,3.673,3.673,0,0,1,1.422.624,5.354,5.354,0,0,1,1.277,1.306,6.757,6.757,0,0,1,.88,1.769,6.934,6.934,0,0,1,.343,1.889,5.714,5.714,0,0,1-.2,1.789,3.966,3.966,0,0,1-.761,1.468l-37.47,44.346m-16.146,55.767a3.264,3.264,0,0,1-1.255.961,2.9,2.9,0,0,1-1.451.209,3.491,3.491,0,0,1-1.47-.527,4.811,4.811,0,0,1-1.311-1.246l-20.194-27.532a6.237,6.237,0,0,1-.9-1.769,6.622,6.622,0,0,1-.32-1.924,5.8,5.8,0,0,1,.262-1.849,4.378,4.378,0,0,1,.846-1.543l18.745-21.632a3.061,3.061,0,0,1,1.247-.884,2.876,2.876,0,0,1,1.433-.145,3.6,3.6,0,0,1,1.445.568,4.971,4.971,0,0,1,1.284,1.253l19.552,27.043a6.225,6.225,0,0,1,.866,1.718,6.659,6.659,0,0,1,.325,1.868,5.8,5.8,0,0,1-.224,1.8,4.287,4.287,0,0,1-.778,1.512l-18.105,22.118m12.893-105.51a2.985,2.985,0,0,1-1.282.868,2.955,2.955,0,0,1-1.486.1,3.9,3.9,0,0,1-1.507-.642,5.475,5.475,0,0,1-1.348-1.349,6.8,6.8,0,0,1-.919-1.832,6.878,6.878,0,0,1-.34-1.953,5.721,5.721,0,0,1,.245-1.844,4.055,4.055,0,0,1,.834-1.5l20.773-23.091a2.783,2.783,0,0,1,1.236-.812,2.818,2.818,0,0,1,1.43-.06,3.865,3.865,0,0,1,1.45.655,5.5,5.5,0,0,1,1.3,1.331,6.791,6.791,0,0,1,.89,1.785,6.814,6.814,0,0,1,.339,1.893,5.528,5.528,0,0,1-.219,1.781,3.855,3.855,0,0,1-.786,1.449l-20.609,23.226m-28.051,6.2a3.167,3.167,0,0,1-1.342.892,3.152,3.152,0,0,1-1.549.105,4.053,4.053,0,0,1-1.567-.65,5.57,5.57,0,0,1-1.394-1.376,6.805,6.805,0,0,1-.943-1.87,6.871,6.871,0,0,1-.338-2,5.77,5.77,0,0,1,.271-1.886,4.183,4.183,0,0,1,.881-1.539l39.4-42.785a2.794,2.794,0,0,1,1.25-.8,2.88,2.88,0,0,1,1.443-.047,3.931,3.931,0,0,1,1.461.666,5.586,5.586,0,0,1,1.306,1.343,6.85,6.85,0,0,1,.894,1.792,6.789,6.789,0,0,1,.337,1.895,5.449,5.449,0,0,1-.226,1.778,3.8,3.8,0,0,1-.8,1.439l-39.091,43.038m-16.6,55.95a3.253,3.253,0,0,1-1.3.921,3.068,3.068,0,0,1-1.5.164,3.767,3.767,0,0,1-1.513-.571,5.049,5.049,0,0,1-1.343-1.284L636-2716.873a6.343,6.343,0,0,1-.914-1.8,6.484,6.484,0,0,1-.314-1.932,5.545,5.545,0,0,1,.287-1.838,4.2,4.2,0,0,1,.887-1.514l19.555-21.007a3.077,3.077,0,0,1,1.3-.844,3.052,3.052,0,0,1,1.482-.1,3.876,3.876,0,0,1,1.488.614,5.222,5.222,0,0,1,1.318,1.293L681.04-2716.4a6.285,6.285,0,0,1,.879,1.742,6.508,6.508,0,0,1,.319,1.875,5.579,5.579,0,0,1-.246,1.789,4.125,4.125,0,0,1-.817,1.484l-18.893,21.517m14.243-104.888a3.017,3.017,0,0,1-1.331.825,3.161,3.161,0,0,1-1.534.051,4.207,4.207,0,0,1-1.55-.688,5.76,5.76,0,0,1-1.379-1.388,6.852,6.852,0,0,1-.93-1.852,6.73,6.73,0,0,1-.332-1.958,5.453,5.453,0,0,1,.27-1.83,3.893,3.893,0,0,1,.874-1.472l21.645-22.373a2.8,2.8,0,0,1,1.282-.771,3.005,3.005,0,0,1,1.476-.015,4.148,4.148,0,0,1,1.489.7,5.75,5.75,0,0,1,1.324,1.365,6.86,6.86,0,0,1,.9,1.808,6.652,6.652,0,0,1,.333,1.9,5.312,5.312,0,0,1-.241,1.769,3.69,3.69,0,0,1-.824,1.42l-21.475,22.514m-29.016,5.3a3.186,3.186,0,0,1-1.394.848,3.354,3.354,0,0,1-1.6.057,4.389,4.389,0,0,1-1.612-.7,5.841,5.841,0,0,1-1.427-1.416,6.9,6.9,0,0,1-.958-1.9,6.761,6.761,0,0,1-.332-2,5.523,5.523,0,0,1,.3-1.875,4.009,4.009,0,0,1,.922-1.508l41.063-41.428a2.808,2.808,0,0,1,1.3-.757,3.066,3.066,0,0,1,1.492,0,4.264,4.264,0,0,1,1.5.713,5.868,5.868,0,0,1,1.336,1.381,6.908,6.908,0,0,1,.907,1.815,6.628,6.628,0,0,1,.331,1.9,5.226,5.226,0,0,1-.249,1.765,3.649,3.649,0,0,1-.836,1.41l-40.74,41.694m-17.647,55.311a3.286,3.286,0,0,1-1.356.88,3.252,3.252,0,0,1-1.55.119,4.044,4.044,0,0,1-1.557-.615,5.3,5.3,0,0,1-1.376-1.323l-21.051-28.7a6.4,6.4,0,0,1-.928-1.823,6.309,6.309,0,0,1-.307-1.939,5.319,5.319,0,0,1,.312-1.825,4.055,4.055,0,0,1,.931-1.483l20.4-20.351a3.1,3.1,0,0,1,1.346-.8,3.249,3.249,0,0,1,1.531-.052,4.185,4.185,0,0,1,1.533.66,5.5,5.5,0,0,1,1.35,1.332l20.361,28.162a6.344,6.344,0,0,1,.892,1.764,6.342,6.342,0,0,1,.311,1.879,5.352,5.352,0,0,1-.272,1.776,3.966,3.966,0,0,1-.858,1.454l-19.709,20.887m-33.1-45.2a3.315,3.315,0,0,1-1.41.834,3.477,3.477,0,0,1-1.6.068,4.36,4.36,0,0,1-1.6-.664,5.58,5.58,0,0,1-1.408-1.36l-61.119-83.33a6.578,6.578,0,0,1-.958-1.876,6.013,6.013,0,0,1-.29-1.95,4.85,4.85,0,0,1,.374-1.795,3.771,3.771,0,0,1,1.03-1.412l82.18-69.368a2.7,2.7,0,0,1,1.312-.606,3.335,3.335,0,0,1,1.492.106,4.683,4.683,0,0,1,1.49.763,6.069,6.069,0,0,1,1.31,1.368l54.9,78.236a6.464,6.464,0,0,1,.849,1.7,6.086,6.086,0,0,1,.3,1.769,4.755,4.755,0,0,1-.243,1.635,3.32,3.32,0,0,1-.795,1.294l-75.807,74.588m-17.313-149.761a.475.475,0,0,1-.062.044.516.516,0,0,1-.067.035.684.684,0,0,1-.071.025.636.636,0,0,1-.074.017c-.025,0-.05.007-.074.008a.561.561,0,0,1-.076,0,.534.534,0,0,1-.077-.01.642.642,0,0,1-.079-.021.8.8,0,0,1-.077-.025c-.026-.01-.05-.021-.076-.034s-.049-.027-.074-.042-.05-.032-.074-.049-.048-.037-.071-.057-.045-.041-.067-.064-.042-.045-.062-.069-.039-.049-.057-.074a1.56,1.56,0,0,1-.111-.18,1.308,1.308,0,0,1-.078-.179,1.1,1.1,0,0,1-.045-.18,1.023,1.023,0,0,1-.014-.18.869.869,0,0,1,.017-.17.735.735,0,0,1,.049-.15.658.658,0,0,1,.078-.13.708.708,0,0,1,.107-.11.656.656,0,0,1,.128-.084.551.551,0,0,1,.137-.047.586.586,0,0,1,.147-.012.754.754,0,0,1,.159.025.862.862,0,0,1,.157.061.957.957,0,0,1,.149.094,1.189,1.189,0,0,1,.141.127,1.589,1.589,0,0,1,.132.162c.018.025.035.052.052.079s.03.054.045.083.028.057.04.086.023.058.034.087.018.06.025.09.013.06.018.089.008.059.011.088,0,.058,0,.086,0,.06,0,.088a.784.784,0,0,1-.013.083c-.006.028-.013.055-.021.08s-.017.052-.027.076-.021.049-.033.072a.654.654,0,0,1-.04.066.525.525,0,0,1-.048.06.559.559,0,0,1-.057.055m1.478-1.224a.635.635,0,0,1-.063.045.567.567,0,0,1-.067.035.656.656,0,0,1-.069.025.62.62,0,0,1-.073.016.51.51,0,0,1-.074.008c-.025,0-.05,0-.076,0s-.05-.005-.076-.01a.668.668,0,0,1-.079-.021.669.669,0,0,1-.076-.026.824.824,0,0,1-.075-.034c-.025-.013-.049-.026-.074-.042s-.05-.032-.074-.05a.862.862,0,0,1-.071-.056c-.023-.02-.045-.041-.067-.063s-.042-.045-.062-.069-.039-.049-.057-.074a1.544,1.544,0,0,1-.111-.18,1.28,1.28,0,0,1-.078-.179,1.114,1.114,0,0,1-.045-.179,1.023,1.023,0,0,1-.014-.18.857.857,0,0,1,.017-.169.726.726,0,0,1,.048-.15.66.66,0,0,1,.078-.129.7.7,0,0,1,.107-.11.66.66,0,0,1,.127-.083.558.558,0,0,1,.136-.047.543.543,0,0,1,.146-.011.708.708,0,0,1,.155.027.822.822,0,0,1,.159.06.9.9,0,0,1,.148.094,1.168,1.168,0,0,1,.139.128,1.669,1.669,0,0,1,.131.163c.018.026.035.052.052.079s.032.054.046.082.028.056.04.086.023.059.033.088.019.059.027.088.013.059.018.089.008.059.01.088,0,.059,0,.087,0,.059,0,.088a.815.815,0,0,1-.011.083c-.006.026-.012.052-.019.079s-.016.05-.026.075-.021.049-.033.072-.025.044-.04.066a.557.557,0,0,1-.049.06.533.533,0,0,1-.057.054m6.657-5.518a.509.509,0,0,1-.061.043c-.021.013-.043.024-.066.035a.651.651,0,0,1-.069.025.617.617,0,0,1-.073.016.611.611,0,0,1-.074.007.506.506,0,0,1-.074,0,.589.589,0,0,1-.076-.01.75.75,0,0,1-.078-.021c-.025-.007-.051-.016-.076-.026a.764.764,0,0,1-.075-.034c-.025-.013-.049-.027-.074-.042l-.074-.049c-.024-.018-.047-.036-.07-.056s-.045-.042-.066-.064-.041-.044-.061-.069-.038-.049-.056-.074a1.522,1.522,0,0,1-.11-.178,1.272,1.272,0,0,1-.077-.178,1.082,1.082,0,0,1-.046-.178,1.085,1.085,0,0,1-.014-.178.917.917,0,0,1,.019-.17.705.705,0,0,1,.047-.148.647.647,0,0,1,.076-.127.655.655,0,0,1,.1-.107.627.627,0,0,1,.126-.083.522.522,0,0,1,.135-.047.569.569,0,0,1,.145-.011.8.8,0,0,1,.156.025.88.88,0,0,1,.155.062.933.933,0,0,1,.147.094,1.156,1.156,0,0,1,.139.127,1.556,1.556,0,0,1,.131.161c.018.025.035.052.051.078s.03.055.045.082.027.057.039.086.023.057.034.087.018.06.025.089.013.058.018.087.009.058.011.087a.851.851,0,0,1,0,.085q0,.045,0,.087a.731.731,0,0,1-.011.081.684.684,0,0,1-.018.078c-.008.025-.016.05-.026.075s-.023.05-.035.073a.688.688,0,0,1-.041.067.572.572,0,0,1-.047.06.577.577,0,0,1-.057.054m-1.923-3.891,2.175-1.792a.305.305,0,0,0,.086-.121.439.439,0,0,0,.03-.159.587.587,0,0,0-.028-.175.632.632,0,0,0-.086-.171l-2.331-3.294.876-.717,2.329,3.292a2.61,2.61,0,0,1,.352.7,2.289,2.289,0,0,1,.116.715,1.733,1.733,0,0,1-.122.649,1.255,1.255,0,0,1-.359.5l-7.82,6.456-.873-1.227,2.406-1.982a4.376,4.376,0,0,0-.791-.737,2.6,2.6,0,0,0-.834-.395,2.761,2.761,0,0,0-.933-.075,5.007,5.007,0,0,0-1.088.224l-.579-1.384a6.155,6.155,0,0,1,1.168-.255,3.863,3.863,0,0,1,1.251.059,3.9,3.9,0,0,1,1.32.566,6.288,6.288,0,0,1,1.374,1.267l1.482-1.221-2.62-3.7.881-.721,2.618,3.694m-1.827-5.745a.5.5,0,0,1-.063.045.5.5,0,0,1-.066.033.479.479,0,0,1-.069.024.577.577,0,0,1-.072.015c-.025,0-.049.006-.074.007a.686.686,0,0,1-.074,0,.736.736,0,0,1-.075-.009c-.025,0-.05-.011-.076-.018s-.051-.016-.076-.026-.051-.021-.076-.034-.05-.028-.075-.044-.05-.035-.074-.054-.047-.037-.07-.056-.044-.04-.065-.062-.041-.045-.061-.069-.04-.05-.058-.076a1.645,1.645,0,0,1-.111-.178,1.21,1.21,0,0,1-.079-.177,1.1,1.1,0,0,1-.045-.178.889.889,0,0,1-.012-.179.889.889,0,0,1,.018-.166.77.77,0,0,1,.047-.148.644.644,0,0,1,.076-.129.637.637,0,0,1,.1-.108.649.649,0,0,1,.127-.081.557.557,0,0,1,.136-.044.608.608,0,0,1,.145-.008.733.733,0,0,1,.152.025.778.778,0,0,1,.157.061.857.857,0,0,1,.147.095,1.167,1.167,0,0,1,.138.128,1.537,1.537,0,0,1,.13.162c.019.027.037.054.053.081s.032.054.046.081a.9.9,0,0,1,.038.084c.011.028.022.057.031.087s.021.061.03.091.014.06.019.089.008.06.01.089a.842.842,0,0,1,0,.086.8.8,0,0,1,0,.083c0,.027-.007.054-.012.08a.713.713,0,0,1-.019.076c-.008.026-.016.05-.026.074a.691.691,0,0,1-.033.071.548.548,0,0,1-.04.065.551.551,0,0,1-.047.059.494.494,0,0,1-.057.053m1.46-1.193a.429.429,0,0,1-.062.044.463.463,0,0,1-.066.033.478.478,0,0,1-.069.024.571.571,0,0,1-.072.014.671.671,0,0,1-.073.007.5.5,0,0,1-.074,0,.641.641,0,0,1-.074-.008.767.767,0,0,1-.076-.018.723.723,0,0,1-.076-.026c-.025-.01-.051-.021-.076-.034a.86.86,0,0,1-.075-.044.878.878,0,0,1-.074-.054.808.808,0,0,1-.07-.056.9.9,0,0,1-.065-.062c-.021-.022-.041-.045-.061-.069s-.039-.049-.058-.076a1.706,1.706,0,0,1-.111-.178,1.283,1.283,0,0,1-.078-.177,1.019,1.019,0,0,1-.045-.177.955.955,0,0,1-.013-.178.942.942,0,0,1,.018-.165.754.754,0,0,1,.047-.148.631.631,0,0,1,.077-.129.627.627,0,0,1,.1-.108.592.592,0,0,1,.125-.079.57.57,0,0,1,.136-.044.619.619,0,0,1,.145-.009.757.757,0,0,1,.153.026.8.8,0,0,1,.156.06.887.887,0,0,1,.147.095,1.181,1.181,0,0,1,.138.128,1.662,1.662,0,0,1,.13.162c.019.027.037.054.053.081s.032.054.045.081.027.055.038.083a.932.932,0,0,1,.032.088c.011.031.021.061.029.091s.014.06.019.089.008.06.011.088,0,.058,0,.086a.8.8,0,0,1,0,.083c0,.028-.007.054-.012.08s-.012.052-.019.077-.016.05-.026.074-.021.048-.033.071a.631.631,0,0,1-.04.064.619.619,0,0,1-.047.059.5.5,0,0,1-.057.052m-10.231,19.152a1.95,1.95,0,0,0,.554-.763,2.662,2.662,0,0,0,.192-.99,3.463,3.463,0,0,0-.171-1.09,3.866,3.866,0,0,0-.536-1.064l-4.732-6.644.9-.732,4.728,6.64.042.059.043.062.042.063q.022.032.042.065l1.9-1.566a.307.307,0,0,0,.088-.123.435.435,0,0,0,.029-.159.572.572,0,0,0-.029-.175.654.654,0,0,0-.087-.171l-2.36-3.318.9-.733,2.357,3.316a2.585,2.585,0,0,1,.355.707,2.294,2.294,0,0,1,.115.724,1.753,1.753,0,0,1-.125.657,1.285,1.285,0,0,1-.365.5l-2.122,1.752a5.325,5.325,0,0,1,.23,1.22,4.5,4.5,0,0,1-.069,1.162,3.507,3.507,0,0,1-.369,1.025,2.842,2.842,0,0,1-.668.811,2.645,2.645,0,0,1-1.246.572,3.252,3.252,0,0,1-1.417-.085,4.411,4.411,0,0,1-1.413-.695,5.511,5.511,0,0,1-1.235-1.258l.9-.743a3.664,3.664,0,0,0,.82.835,2.912,2.912,0,0,0,.938.46,2.156,2.156,0,0,0,.941.055,1.766,1.766,0,0,0,.829-.38m16.746-28.006-1.013-.3-.967-1.372,8.057-6.531a1.228,1.228,0,0,1,.6-.262,1.551,1.551,0,0,1,.681.059,2.17,2.17,0,0,1,.68.354,2.777,2.777,0,0,1,.6.624l5.86,8.351-1.543,1.275a1.852,1.852,0,0,0-.362-.322,1.5,1.5,0,0,0-.4-.192,1.11,1.11,0,0,0-.4-.047.888.888,0,0,0-.374.111l-.034.02-.033.022-.031.023-.031.024a.958.958,0,0,0-.26.346,1.32,1.32,0,0,0-.109.457,1.735,1.735,0,0,0,.05.519,2.037,2.037,0,0,0,.214.531,2.016,2.016,0,0,0,.379.486,1.68,1.68,0,0,0,.463.312,1.223,1.223,0,0,0,.488.109.93.93,0,0,0,.457-.116l.032-.02.03-.02.03-.022.028-.023a.96.96,0,0,0,.259-.345,1.3,1.3,0,0,0,.11-.453,1.746,1.746,0,0,0-.046-.515,2.029,2.029,0,0,0-.208-.526l1.543-1.275.564.8a2.956,2.956,0,0,1,.394.785,2.593,2.593,0,0,1,.132.8,1.935,1.935,0,0,1-.132.722,1.373,1.373,0,0,1-.394.552l-11.96,9.931a1.269,1.269,0,0,1-.607.276,1.57,1.57,0,0,1-.69-.048,2.184,2.184,0,0,1-.689-.35,2.768,2.768,0,0,1-.6-.625l-6.8-9.619a2.979,2.979,0,0,1-.4-.8,2.608,2.608,0,0,1-.131-.812,1.957,1.957,0,0,1,.14-.732,1.408,1.408,0,0,1,.41-.559l2.086-1.691,1.3,1.843a1.058,1.058,0,0,0-.2.356,1.4,1.4,0,0,0-.07.435,1.806,1.806,0,0,0,.064.478,2.006,2.006,0,0,0,.2.484,2.056,2.056,0,0,0,.388.49,1.728,1.728,0,0,0,.473.315,1.236,1.236,0,0,0,.5.112.923.923,0,0,0,.461-.117l.035-.021.034-.022.032-.023.031-.024a.98.98,0,0,0,.266-.351,1.3,1.3,0,0,0,.113-.46,1.72,1.72,0,0,0-.047-.521,2.032,2.032,0,0,0-.214-.532,2.081,2.081,0,0,0-.383-.491,1.725,1.725,0,0,0-.466-.314,1.257,1.257,0,0,0-.493-.115.939.939,0,0,0-.462.109l-1.3-1.843,1.442-1.168,1.071,1.52,1.169.347a1.766,1.766,0,0,0,.031.188,1.881,1.881,0,0,0,.052.189,1.968,1.968,0,0,0,.072.188,2,2,0,0,0,.093.185,2.093,2.093,0,0,0,.386.49,1.737,1.737,0,0,0,.471.314,1.231,1.231,0,0,0,.495.113.912.912,0,0,0,.459-.117l.035-.021.033-.021.032-.023.031-.024a.961.961,0,0,0,.263-.348,1.288,1.288,0,0,0,.111-.457,1.764,1.764,0,0,0-.047-.52,2.088,2.088,0,0,0-.212-.532,2.076,2.076,0,0,0-.386-.493,1.73,1.73,0,0,0-.471-.315,1.258,1.258,0,0,0-.5-.112.939.939,0,0,0-.462.114l-.031.019-.031.02-.029.021-.029.023a.928.928,0,0,0-.139.14,1.045,1.045,0,0,0-.11.168,1.2,1.2,0,0,0-.079.192,1.35,1.35,0,0,0-.047.212m-63.052,71.249a6.906,6.906,0,0,1-1.647,1.019,7.1,7.1,0,0,1-1.829.52,8,8,0,0,1-1.94.04,9.254,9.254,0,0,1-1.977-.423,10.3,10.3,0,0,1-1.57-.669,11.409,11.409,0,0,1-1.509-.956,12.413,12.413,0,0,1-1.41-1.232,13.429,13.429,0,0,1-1.273-1.5,13.513,13.513,0,0,1-1.975-3.865,12.137,12.137,0,0,1-.59-3.989,9.62,9.62,0,0,1,.785-3.643,7.484,7.484,0,0,1,2.14-2.827,6.964,6.964,0,0,1,3.14-1.437,8.224,8.224,0,0,1,3.51.148,10.6,10.6,0,0,1,3.46,1.615,12.847,12.847,0,0,1,3,2.969,13.737,13.737,0,0,1,1.038,1.662,13.388,13.388,0,0,1,.766,1.735,12.7,12.7,0,0,1,.495,1.769,11.84,11.84,0,0,1,.224,1.761,10.891,10.891,0,0,1-.091,2.119,9.417,9.417,0,0,1-.5,1.976,8.067,8.067,0,0,1-.914,1.754,7.219,7.219,0,0,1-1.326,1.452m57.7-91.68-16.544,13.078,1.062,1.5a11.563,11.563,0,0,1,1.572,3.123,10.023,10.023,0,0,1,.5,3.174,7.55,7.55,0,0,1-.565,2.867,5.556,5.556,0,0,1-1.631,2.2l-37.451,30.076a5.691,5.691,0,0,1-2.607,1.173,6.907,6.907,0,0,1-2.943-.154,9.1,9.1,0,0,1-2.925-1.394,11.091,11.091,0,0,1-2.547-2.542l-1.127-1.552-19.193,15.173a9.14,9.14,0,0,0-2.656,3.444,11.671,11.671,0,0,0-.989,4.456,14.717,14.717,0,0,0,.707,4.889,16.414,16.414,0,0,0,2.423,4.738l184.943,251.57a11.872,11.872,0,0,0,3.271,3.091,8.632,8.632,0,0,0,3.664,1.293,7.215,7.215,0,0,0,3.605-.542,8.111,8.111,0,0,0,3.1-2.407l65.96-81.632a9.384,9.384,0,0,0,1.7-3.434,13.55,13.55,0,0,0,.437-4.15,16.226,16.226,0,0,0-.8-4.354,15.55,15.55,0,0,0-2.013-4.054L600.694-2969.687a15.556,15.556,0,0,0-3.3-3.464,12.285,12.285,0,0,0-3.774-1.989,8.787,8.787,0,0,0-3.8-.363,6.861,6.861,0,0,0-3.362,1.418" transform="translate(-498.414 2975.574)" fill="#333436"/>
              <path id="Path_17300" data-name="Path 17300" d="M631.091-2941.041a4.2,4.2,0,0,0,.389-.366,5.009,5.009,0,0,0,.339-.4c.1-.136.2-.272.28-.4a4.062,4.062,0,0,0,.209-.375,21.075,21.075,0,0,0,.931-2.313c.273-.806.511-1.647.72-2.515s.386-1.765.54-2.685.283-1.861.393-2.821a.2.2,0,0,1,.009-.045.29.29,0,0,1,.023-.05.3.3,0,0,1,.035-.052.445.445,0,0,1,.049-.048.39.39,0,0,1,.073-.045.337.337,0,0,1,.091-.028.378.378,0,0,1,.107,0,.533.533,0,0,1,.125.03.6.6,0,0,1,.232.155.757.757,0,0,1,.134.215,1.081,1.081,0,0,1,.063.212.943.943,0,0,1,.017.148c.055,1.4.037,2.771-.039,4.089s-.209,2.586-.382,3.782-.388,2.323-.626,3.359-.5,1.982-.769,2.816a1.2,1.2,0,0,1-.058.15.939.939,0,0,1-.071.129.864.864,0,0,1-.083.111.83.83,0,0,1-.1.093.841.841,0,0,1-.159.1.977.977,0,0,1-.183.068,1.164,1.164,0,0,1-.2.035,1.58,1.58,0,0,1-.224,0,12.345,12.345,0,0,1-1.428-.146,14.351,14.351,0,0,1-1.611-.353,15.335,15.335,0,0,1-1.735-.6,15.468,15.468,0,0,1-1.795-.884.98.98,0,0,1-.165-.117.87.87,0,0,1-.152-.171.668.668,0,0,1-.1-.223.631.631,0,0,1,0-.271.443.443,0,0,1,.02-.073.393.393,0,0,1,.029-.063.364.364,0,0,1,.037-.053.332.332,0,0,1,.043-.043.342.342,0,0,1,.1-.057.413.413,0,0,1,.117-.021.493.493,0,0,1,.125.012.537.537,0,0,1,.125.044,4.978,4.978,0,0,0,1.026.359,4.8,4.8,0,0,0,1.057.122,4.282,4.282,0,0,0,1.035-.124,3.83,3.83,0,0,0,.956-.378c.038-.022.077-.045.115-.069s.076-.05.114-.075.074-.053.111-.081.073-.057.109-.086m2.657-15.26-8.057,6.531.967,1.372,1.013.3a1.35,1.35,0,0,1,.047-.212,1.2,1.2,0,0,1,.079-.192,1.045,1.045,0,0,1,.11-.168.928.928,0,0,1,.139-.14l.029-.023.029-.021.031-.02.031-.019a.939.939,0,0,1,.462-.114,1.258,1.258,0,0,1,.5.112,1.73,1.73,0,0,1,.471.315,2.076,2.076,0,0,1,.386.493,2.088,2.088,0,0,1,.212.532,1.764,1.764,0,0,1,.047.52,1.288,1.288,0,0,1-.111.457.961.961,0,0,1-.263.348l-.031.024-.032.023-.033.021-.035.021a.912.912,0,0,1-.459.117,1.231,1.231,0,0,1-.495-.113,1.737,1.737,0,0,1-.471-.314,2.093,2.093,0,0,1-.386-.49,2,2,0,0,1-.093-.185,1.968,1.968,0,0,1-.072-.188,1.881,1.881,0,0,1-.052-.189,1.766,1.766,0,0,1-.031-.187l-1.169-.347-1.071-1.52-1.442,1.168,1.3,1.843a.939.939,0,0,1,.462-.109,1.257,1.257,0,0,1,.493.115,1.725,1.725,0,0,1,.466.314,2.081,2.081,0,0,1,.383.491,2.032,2.032,0,0,1,.214.532,1.72,1.72,0,0,1,.047.521,1.3,1.3,0,0,1-.113.46.98.98,0,0,1-.266.351l-.031.024-.032.023-.034.022-.035.021a.923.923,0,0,1-.461.117,1.236,1.236,0,0,1-.5-.112,1.728,1.728,0,0,1-.473-.315,2.056,2.056,0,0,1-.388-.49,2.006,2.006,0,0,1-.2-.484,1.806,1.806,0,0,1-.064-.478,1.4,1.4,0,0,1,.07-.435,1.058,1.058,0,0,1,.2-.356l-1.3-1.843-2.086,1.691a1.408,1.408,0,0,0-.41.559,1.957,1.957,0,0,0-.14.732,2.608,2.608,0,0,0,.131.812,2.979,2.979,0,0,0,.4.8l6.8,9.619a2.768,2.768,0,0,0,.6.625,2.184,2.184,0,0,0,.689.35,1.57,1.57,0,0,0,.69.048,1.269,1.269,0,0,0,.607-.276l11.96-9.931a1.373,1.373,0,0,0,.394-.552,1.935,1.935,0,0,0,.132-.722,2.593,2.593,0,0,0-.132-.8,2.956,2.956,0,0,0-.394-.785l-.564-.8-1.543,1.275a2.029,2.029,0,0,1,.208.526,1.746,1.746,0,0,1,.046.515,1.3,1.3,0,0,1-.11.453.96.96,0,0,1-.259.345l-.028.023-.03.022-.03.02-.032.02a.93.93,0,0,1-.457.116,1.223,1.223,0,0,1-.488-.109,1.68,1.68,0,0,1-.463-.312,2.016,2.016,0,0,1-.379-.486,2.037,2.037,0,0,1-.214-.531,1.735,1.735,0,0,1-.05-.519,1.32,1.32,0,0,1,.109-.457.958.958,0,0,1,.26-.346l.031-.024.031-.023.033-.022.034-.02a.888.888,0,0,1,.374-.111,1.11,1.11,0,0,1,.4.047,1.5,1.5,0,0,1,.4.192,1.852,1.852,0,0,1,.362.322l1.543-1.275-5.86-8.351a2.777,2.777,0,0,0-.6-.624,2.17,2.17,0,0,0-.68-.354,1.551,1.551,0,0,0-.681-.059,1.228,1.228,0,0,0-.6.262" transform="translate(-534.273 2970.022)" fill="#f0b90b"/>
              <path id="Path_17301" data-name="Path 17301" d="M617.426-2932.7a.641.641,0,0,0-.1.108.637.637,0,0,0-.076.129.774.774,0,0,0-.047.148.884.884,0,0,0-.018.166.9.9,0,0,0,.012.179,1.1,1.1,0,0,0,.045.178,1.21,1.21,0,0,0,.078.177,1.652,1.652,0,0,0,.111.178c.018.027.038.052.058.077s.04.047.061.069.042.042.065.062.046.038.07.056.049.038.074.054a.76.76,0,0,0,.075.044c.025.013.051.024.076.034s.051.018.076.026a.751.751,0,0,0,.076.018c.025,0,.05.007.075.008a.629.629,0,0,0,.074,0c.025,0,.049,0,.074-.007a.575.575,0,0,0,.072-.015.483.483,0,0,0,.069-.024.5.5,0,0,0,.066-.033.491.491,0,0,0,.063-.044.5.5,0,0,0,.057-.053.548.548,0,0,0,.047-.059.533.533,0,0,0,.04-.065.726.726,0,0,0,.033-.07c.01-.024.018-.049.026-.075a.681.681,0,0,0,.019-.076c.005-.026.009-.053.012-.08a.81.81,0,0,0,0-.083c0-.028,0-.057,0-.085s0-.059-.01-.089-.011-.059-.019-.089a.956.956,0,0,0-.03-.091c-.009-.03-.02-.059-.031-.087a.891.891,0,0,0-.038-.084c-.014-.027-.029-.055-.046-.081s-.034-.054-.053-.081a1.571,1.571,0,0,0-.13-.162,1.165,1.165,0,0,0-.138-.128.841.841,0,0,0-.147-.095.762.762,0,0,0-.157-.061.749.749,0,0,0-.152-.025.621.621,0,0,0-.145.008.568.568,0,0,0-.136.044.663.663,0,0,0-.127.081" transform="translate(-533.127 2963.083)" fill="#fff"/>
              <path id="Path_17302" data-name="Path 17302" d="M619.492-2934.387a.632.632,0,0,0-.1.108.63.63,0,0,0-.076.129.755.755,0,0,0-.047.148.942.942,0,0,0-.018.165.955.955,0,0,0,.013.178,1.019,1.019,0,0,0,.045.177,1.283,1.283,0,0,0,.078.177,1.7,1.7,0,0,0,.111.178c.019.027.038.052.058.076s.04.047.061.069a.9.9,0,0,0,.065.062.808.808,0,0,0,.07.056.878.878,0,0,0,.074.054.86.86,0,0,0,.075.044c.026.013.051.024.076.034a.727.727,0,0,0,.076.026.771.771,0,0,0,.076.018.641.641,0,0,0,.074.008.5.5,0,0,0,.074,0,.671.671,0,0,0,.073-.007.571.571,0,0,0,.072-.014.476.476,0,0,0,.069-.024.463.463,0,0,0,.066-.033.426.426,0,0,0,.062-.044.5.5,0,0,0,.057-.052.629.629,0,0,0,.047-.059.63.63,0,0,0,.04-.064c.012-.023.023-.047.033-.071s.018-.049.026-.074.013-.05.019-.077.009-.052.012-.08a.8.8,0,0,0,0-.083c0-.028,0-.057,0-.086s-.006-.058-.011-.088-.011-.059-.019-.089a.924.924,0,0,0-.029-.091c-.009-.03-.02-.059-.032-.088s-.024-.056-.038-.083-.029-.054-.045-.081-.034-.054-.053-.081a1.662,1.662,0,0,0-.13-.162,1.181,1.181,0,0,0-.138-.128.887.887,0,0,0-.147-.095.8.8,0,0,0-.156-.06.757.757,0,0,0-.153-.026.618.618,0,0,0-.145.009.569.569,0,0,0-.136.044.592.592,0,0,0-.125.079" transform="translate(-533.732 2963.575)" fill="#fff"/>
              <path id="Path_17303" data-name="Path 17303" d="M611.215-2909.575a.71.71,0,0,0-.107.11.664.664,0,0,0-.078.13.731.731,0,0,0-.049.15.869.869,0,0,0-.017.17,1.023,1.023,0,0,0,.014.18,1.107,1.107,0,0,0,.045.18,1.308,1.308,0,0,0,.078.179,1.56,1.56,0,0,0,.111.18c.018.025.037.05.057.074s.04.047.062.069.044.043.067.064.047.039.071.057.049.034.074.049.049.029.074.042.05.024.076.034a.8.8,0,0,0,.077.025.646.646,0,0,0,.079.021.532.532,0,0,0,.077.01.559.559,0,0,0,.076,0c.025,0,.05,0,.074-.008a.63.63,0,0,0,.074-.017.684.684,0,0,0,.071-.025.512.512,0,0,0,.067-.035.479.479,0,0,0,.062-.044.572.572,0,0,0,.057-.055.545.545,0,0,0,.048-.06.653.653,0,0,0,.04-.066c.012-.023.023-.047.033-.072s.018-.05.027-.076.015-.052.021-.08a.754.754,0,0,0,.013-.083c0-.029,0-.058,0-.088s0-.057,0-.086-.006-.058-.011-.088-.011-.059-.018-.089-.016-.059-.025-.09-.022-.058-.034-.087-.026-.058-.04-.086-.029-.056-.045-.083-.033-.054-.052-.079a1.6,1.6,0,0,0-.132-.162,1.189,1.189,0,0,0-.141-.127.957.957,0,0,0-.149-.094.861.861,0,0,0-.157-.061.754.754,0,0,0-.159-.025.586.586,0,0,0-.147.012.55.55,0,0,0-.137.047.656.656,0,0,0-.128.084" transform="translate(-531.311 2956.326)" fill="#fff"/>
              <path id="Path_17304" data-name="Path 17304" d="M613.306-2911.3a.693.693,0,0,0-.107.11.653.653,0,0,0-.078.129.717.717,0,0,0-.048.15.86.86,0,0,0-.017.169,1.021,1.021,0,0,0,.014.18,1.114,1.114,0,0,0,.045.179,1.282,1.282,0,0,0,.078.179,1.559,1.559,0,0,0,.111.18c.018.025.037.05.057.074s.04.047.062.069.044.043.067.063a.875.875,0,0,0,.071.057c.025.018.05.035.074.05s.05.029.074.042.05.024.075.034a.671.671,0,0,0,.076.026.619.619,0,0,0,.079.021c.026,0,.052.008.076.01h.076a.549.549,0,0,0,.074-.008.614.614,0,0,0,.073-.016.706.706,0,0,0,.069-.025.49.49,0,0,0,.067-.035.628.628,0,0,0,.063-.045.526.526,0,0,0,.057-.054.536.536,0,0,0,.049-.061.755.755,0,0,0,.04-.065c.012-.023.023-.047.033-.072s.018-.05.026-.075.013-.052.019-.079a.777.777,0,0,0,.011-.083q0-.042,0-.088c0-.028,0-.057,0-.087s0-.058-.01-.088-.011-.059-.018-.088-.017-.059-.027-.088-.021-.06-.033-.088-.025-.058-.04-.086-.03-.056-.046-.082-.033-.053-.052-.079a1.66,1.66,0,0,0-.131-.163,1.18,1.18,0,0,0-.139-.128.9.9,0,0,0-.148-.094.823.823,0,0,0-.159-.06.7.7,0,0,0-.155-.027.534.534,0,0,0-.146.011.556.556,0,0,0-.136.047.635.635,0,0,0-.127.083" transform="translate(-531.922 2956.83)" fill="#fff"/>
              <path id="Path_17305" data-name="Path 17305" d="M622.726-2919.086a.65.65,0,0,0-.1.107.644.644,0,0,0-.076.127.7.7,0,0,0-.047.148.917.917,0,0,0-.019.17,1.085,1.085,0,0,0,.014.178,1.082,1.082,0,0,0,.046.178,1.279,1.279,0,0,0,.077.178,1.522,1.522,0,0,0,.11.178c.018.025.036.05.056.074s.04.047.061.069.043.043.067.064.046.038.07.056l.074.049c.025.015.049.029.074.042a.763.763,0,0,0,.075.034c.025.01.05.019.076.026a.745.745,0,0,0,.078.021.589.589,0,0,0,.076.01.506.506,0,0,0,.074,0,.611.611,0,0,0,.074-.007.617.617,0,0,0,.073-.016.657.657,0,0,0,.069-.025c.023-.011.045-.022.066-.035a.513.513,0,0,0,.061-.043.577.577,0,0,0,.057-.054.572.572,0,0,0,.047-.06.7.7,0,0,0,.041-.067c.013-.023.024-.047.035-.073s.018-.05.025-.075a.684.684,0,0,0,.018-.078.731.731,0,0,0,.011-.081q0-.042,0-.087c0-.028,0-.057,0-.085s-.006-.058-.011-.087-.011-.058-.018-.087-.016-.059-.025-.089-.022-.059-.034-.087-.025-.057-.039-.086-.029-.055-.045-.082-.033-.053-.051-.078a1.548,1.548,0,0,0-.131-.161,1.152,1.152,0,0,0-.139-.127.93.93,0,0,0-.147-.094.879.879,0,0,0-.155-.062.8.8,0,0,0-.156-.025.569.569,0,0,0-.145.011.522.522,0,0,0-.135.047.625.625,0,0,0-.126.083" transform="translate(-534.677 2959.105)" fill="#fff"/>
              <path id="Path_17306" data-name="Path 17306" d="M619.335-2931.369l-.876.717,2.331,3.294a.634.634,0,0,1,.086.171.589.589,0,0,1,.028.175.441.441,0,0,1-.03.159.305.305,0,0,1-.086.121l-2.176,1.792-2.618-3.694-.881.721,2.62,3.7L616.251-2923a6.289,6.289,0,0,0-1.374-1.267,3.9,3.9,0,0,0-1.32-.566,3.863,3.863,0,0,0-1.25-.059,6.154,6.154,0,0,0-1.168.255l.579,1.384a5.007,5.007,0,0,1,1.089-.224,2.761,2.761,0,0,1,.933.075,2.6,2.6,0,0,1,.834.395,4.374,4.374,0,0,1,.791.737l-2.406,1.982.873,1.227,7.82-6.456a1.254,1.254,0,0,0,.359-.5,1.733,1.733,0,0,0,.122-.649,2.293,2.293,0,0,0-.116-.715,2.611,2.611,0,0,0-.352-.7l-2.329-3.292" transform="translate(-531.362 2962.654)" fill="#fff"/>
              <path id="Path_17307" data-name="Path 17307" d="M600.993-2920.973l-.9.732,4.732,6.644a3.868,3.868,0,0,1,.536,1.064,3.464,3.464,0,0,1,.171,1.09,2.662,2.662,0,0,1-.192.99,1.95,1.95,0,0,1-.554.763,1.766,1.766,0,0,1-.829.38,2.156,2.156,0,0,1-.941-.055,2.912,2.912,0,0,1-.938-.46,3.664,3.664,0,0,1-.82-.835l-.9.743a5.51,5.51,0,0,0,1.235,1.258,4.41,4.41,0,0,0,1.413.695,3.252,3.252,0,0,0,1.417.085,2.644,2.644,0,0,0,1.246-.572,2.843,2.843,0,0,0,.668-.811,3.508,3.508,0,0,0,.369-1.025,4.5,4.5,0,0,0,.069-1.162,5.325,5.325,0,0,0-.23-1.22l2.122-1.752a1.285,1.285,0,0,0,.365-.5,1.752,1.752,0,0,0,.125-.657,2.294,2.294,0,0,0-.115-.724,2.588,2.588,0,0,0-.355-.707l-2.357-3.316-.9.733,2.36,3.318a.654.654,0,0,1,.087.171.57.57,0,0,1,.029.175.434.434,0,0,1-.029.159.307.307,0,0,1-.088.123l-1.9,1.566q-.02-.033-.042-.065l-.042-.063-.043-.062-.042-.059-4.728-6.64" transform="translate(-528.134 2959.615)" fill="#fff"/>
              <path id="Path_17308" data-name="Path 17308" d="M534.8-2851.808a6.909,6.909,0,0,1-1.647,1.019,7.1,7.1,0,0,1-1.829.52,7.987,7.987,0,0,1-1.94.04,9.256,9.256,0,0,1-1.977-.423,10.543,10.543,0,0,1-.219-2.346,9.025,9.025,0,0,1,.318-2.211,7.466,7.466,0,0,1,.851-1.956,6.461,6.461,0,0,1,1.379-1.578,6.1,6.1,0,0,1,1.783-1.021,6.415,6.415,0,0,1,1.984-.381,7.437,7.437,0,0,1,2.074.229,8.915,8.915,0,0,1,2.055.809,10.889,10.889,0,0,1-.091,2.119,9.427,9.427,0,0,1-.5,1.976,8.069,8.069,0,0,1-.914,1.754,7.226,7.226,0,0,1-1.326,1.451m-5.975-8.183a2.5,2.5,0,0,1-1.125.526,2.95,2.95,0,0,1-1.266-.045,3.808,3.808,0,0,1-1.256-.579,4.637,4.637,0,0,1-1.093-1.077,4.882,4.882,0,0,1-.709-1.388,4.369,4.369,0,0,1-.213-1.432,3.461,3.461,0,0,1,.278-1.309,2.691,2.691,0,0,1,.767-1.019,2.511,2.511,0,0,1,1.132-.521,2.974,2.974,0,0,1,1.268.051,3.82,3.82,0,0,1,1.252.582,4.638,4.638,0,0,1,1.086,1.073,4.9,4.9,0,0,1,.706,1.385,4.349,4.349,0,0,1,.214,1.426,3.461,3.461,0,0,1-.277,1.306,2.713,2.713,0,0,1-.764,1.022m-6.821-9.34a7.483,7.483,0,0,0-2.14,2.827,9.62,9.62,0,0,0-.785,3.643,12.138,12.138,0,0,0,.59,3.989,13.512,13.512,0,0,0,1.975,3.865,13.413,13.413,0,0,0,1.273,1.5,12.418,12.418,0,0,0,1.41,1.232,11.4,11.4,0,0,0,1.509.956,10.3,10.3,0,0,0,1.57.669,9.256,9.256,0,0,0,1.977.423,7.987,7.987,0,0,0,1.94-.04,7.1,7.1,0,0,0,1.829-.52,6.909,6.909,0,0,0,1.647-1.019,7.226,7.226,0,0,0,1.326-1.451,8.069,8.069,0,0,0,.914-1.754,9.427,9.427,0,0,0,.5-1.976,10.889,10.889,0,0,0,.091-2.119,11.855,11.855,0,0,0-.224-1.762,12.72,12.72,0,0,0-.495-1.769,13.388,13.388,0,0,0-.766-1.735,13.707,13.707,0,0,0-1.038-1.662,12.841,12.841,0,0,0-3-2.969,10.6,10.6,0,0,0-3.46-1.615,8.223,8.223,0,0,0-3.51-.148,6.967,6.967,0,0,0-3.14,1.437" transform="translate(-504.453 2944.978)" fill="#434446"/>
              <path id="Path_17309" data-name="Path 17309" d="M525.895-2864.656a2.691,2.691,0,0,0-.767,1.019,3.461,3.461,0,0,0-.278,1.309,4.369,4.369,0,0,0,.213,1.432,4.882,4.882,0,0,0,.709,1.388,4.637,4.637,0,0,0,1.093,1.077,3.808,3.808,0,0,0,1.256.579,2.95,2.95,0,0,0,1.266.045,2.5,2.5,0,0,0,1.125-.526,2.713,2.713,0,0,0,.764-1.022,3.461,3.461,0,0,0,.277-1.306,4.349,4.349,0,0,0-.214-1.426,4.9,4.9,0,0,0-.706-1.385,4.638,4.638,0,0,0-1.086-1.073,3.82,3.82,0,0,0-1.252-.582,2.974,2.974,0,0,0-1.268-.051,2.511,2.511,0,0,0-1.132.521" transform="translate(-506.141 2943.321)" fill="#8b8b8c"/>
              <path id="Path_17310" data-name="Path 17310" d="M533.085-2854.307a6.461,6.461,0,0,0-1.379,1.578,7.464,7.464,0,0,0-.851,1.956,9.025,9.025,0,0,0-.318,2.211,10.54,10.54,0,0,0,.219,2.346,9.254,9.254,0,0,0,1.977.423,7.987,7.987,0,0,0,1.94-.04,7.1,7.1,0,0,0,1.829-.52,6.908,6.908,0,0,0,1.647-1.019,7.224,7.224,0,0,0,1.326-1.451,8.067,8.067,0,0,0,.914-1.754,9.427,9.427,0,0,0,.5-1.976,10.9,10.9,0,0,0,.091-2.119,8.915,8.915,0,0,0-2.055-.809,7.438,7.438,0,0,0-2.074-.229,6.415,6.415,0,0,0-1.984.381,6.1,6.1,0,0,0-1.783,1.021" transform="translate(-507.802 2940.541)" fill="#8b8b8c"/>
              <path id="Path_17311" data-name="Path 17311" d="M632.291-2796.659a3.024,3.024,0,0,1-1.334.766,3.269,3.269,0,0,1-1.524.028,4.267,4.267,0,0,1-1.529-.673,5.579,5.579,0,0,1-1.347-1.335l-7.238-10.021a6.413,6.413,0,0,1-.9-1.778,6.059,6.059,0,0,1-.3-1.865,4.923,4.923,0,0,1,.3-1.73,3.648,3.648,0,0,1,.9-1.379,3.033,3.033,0,0,1,1.351-.746,3.317,3.317,0,0,1,1.533-.005,4.343,4.343,0,0,1,1.53.689,5.639,5.639,0,0,1,1.345,1.343l7.185,9.978a6.43,6.43,0,0,1,.892,1.762,6.131,6.131,0,0,1,.3,1.852,4.977,4.977,0,0,1-.287,1.727,3.693,3.693,0,0,1-.881,1.388m-14.245,7.553a3.126,3.126,0,0,1-1.367.783,3.354,3.354,0,0,1-1.558.037,4.332,4.332,0,0,1-1.56-.674,5.587,5.587,0,0,1-1.372-1.347L590.5-2820.152a6.438,6.438,0,0,1-.919-1.81,6.044,6.044,0,0,1-.3-1.892,4.882,4.882,0,0,1,.326-1.751,3.693,3.693,0,0,1,.943-1.39,3.173,3.173,0,0,1,1.408-.744,3.522,3.522,0,0,1,1.592.006,4.553,4.553,0,0,1,1.583.711,5.8,5.8,0,0,1,1.385,1.371l21.532,29.718a6.363,6.363,0,0,1,.9,1.783,6.134,6.134,0,0,1,.3,1.877,5.023,5.023,0,0,1-.3,1.754,3.783,3.783,0,0,1-.906,1.413m20.606-25.461a2.929,2.929,0,0,1-1.314.739,3.225,3.225,0,0,1-1.5.009,4.265,4.265,0,0,1-1.508-.68,5.572,5.572,0,0,1-1.328-1.33l-21.1-29.385a6.444,6.444,0,0,1-.9-1.774,5.974,5.974,0,0,1-.3-1.844,4.711,4.711,0,0,1,.3-1.7,3.47,3.47,0,0,1,.9-1.335,2.949,2.949,0,0,1,1.351-.7,3.383,3.383,0,0,1,1.533.034,4.5,4.5,0,0,1,1.531.718,5.791,5.791,0,0,1,1.343,1.356l20.943,29.26a6.386,6.386,0,0,1,.88,1.746,6.049,6.049,0,0,1,.3,1.828,4.858,4.858,0,0,1-.281,1.7,3.55,3.55,0,0,1-.864,1.355m-53.8,7.727a3.274,3.274,0,0,1-1.427.775,3.592,3.592,0,0,1-1.62.019,4.591,4.591,0,0,1-1.616-.7,5.766,5.766,0,0,1-1.416-1.381l-7.576-10.357a6.434,6.434,0,0,1-.935-1.834,6.057,6.057,0,0,1-.294-1.917,4.907,4.907,0,0,1,.343-1.775,3.759,3.759,0,0,1,.974-1.408,3.277,3.277,0,0,1,1.449-.756,3.66,3.66,0,0,1,1.634,0,4.692,4.692,0,0,1,1.622.719,5.852,5.852,0,0,1,1.415,1.388l7.519,10.312a6.429,6.429,0,0,1,.924,1.817,6.049,6.049,0,0,1,.294,1.9,4.941,4.941,0,0,1-.332,1.771,3.812,3.812,0,0,1-.957,1.419m71.9-59.9a2.674,2.674,0,0,1-1.259.661,3.1,3.1,0,0,1-1.442-.045,4.291,4.291,0,0,1-1.452-.706,5.7,5.7,0,0,1-1.282-1.322l-20.4-28.917a6.5,6.5,0,0,1-.87-1.732,5.827,5.827,0,0,1-.293-1.779,4.412,4.412,0,0,1,.283-1.615,3.145,3.145,0,0,1,.859-1.249,2.707,2.707,0,0,1,1.3-.624,3.265,3.265,0,0,1,1.473.085,4.542,4.542,0,0,1,1.473.742,5.917,5.917,0,0,1,1.3,1.347l20.253,28.8a6.413,6.413,0,0,1,.854,1.7,5.917,5.917,0,0,1,.3,1.764,4.579,4.579,0,0,1-.263,1.619,3.235,3.235,0,0,1-.826,1.27m-27.45,12.716a2.85,2.85,0,0,1-1.317.688,3.291,3.291,0,0,1-1.505-.033,4.455,4.455,0,0,1-1.51-.714,5.765,5.765,0,0,1-1.33-1.35l-21.061-29.514a6.515,6.515,0,0,1-.895-1.772,5.887,5.887,0,0,1-.292-1.823,4.518,4.518,0,0,1,.308-1.662,3.286,3.286,0,0,1,.905-1.287,2.9,2.9,0,0,1,1.358-.653,3.449,3.449,0,0,1,1.538.074,4.672,4.672,0,0,1,1.531.748,5.991,5.991,0,0,1,1.342,1.372l20.909,29.388a6.444,6.444,0,0,1,.88,1.747,5.943,5.943,0,0,1,.3,1.811,4.652,4.652,0,0,1-.287,1.666,3.383,3.383,0,0,1-.872,1.313m-3.291-30.678a2.789,2.789,0,0,1-1.314.651,3.3,3.3,0,0,1-1.5-.066,4.544,4.544,0,0,1-1.5-.735,5.9,5.9,0,0,1-1.321-1.355l-7.112-10.025a6.526,6.526,0,0,1-.884-1.754,5.835,5.835,0,0,1-.293-1.8,4.438,4.438,0,0,1,.3-1.636,3.21,3.21,0,0,1,.887-1.265,2.81,2.81,0,0,1,1.332-.633,3.373,3.373,0,0,1,1.51.085,4.65,4.65,0,0,1,1.507.75,6,6,0,0,1,1.323,1.365l7.061,9.982a6.461,6.461,0,0,1,.872,1.737,5.88,5.88,0,0,1,.293,1.789,4.5,4.5,0,0,1-.288,1.635,3.249,3.249,0,0,1-.87,1.275m-1.679-38.5-82.18,69.368a3.77,3.77,0,0,0-1.03,1.412,4.851,4.851,0,0,0-.374,1.795,6.013,6.013,0,0,0,.29,1.951,6.578,6.578,0,0,0,.958,1.876l61.119,83.33a5.571,5.571,0,0,0,1.408,1.36,4.352,4.352,0,0,0,1.6.664,3.47,3.47,0,0,0,1.6-.068,3.314,3.314,0,0,0,1.41-.834l75.807-74.588a3.317,3.317,0,0,0,.795-1.294,4.752,4.752,0,0,0,.243-1.635,6.084,6.084,0,0,0-.3-1.769,6.468,6.468,0,0,0-.849-1.7l-54.9-78.236a6.069,6.069,0,0,0-1.31-1.368,4.683,4.683,0,0,0-1.49-.763,3.335,3.335,0,0,0-1.492-.106,2.7,2.7,0,0,0-1.312.606" transform="translate(-510.786 2960.456)" fill="#434446"/>
              <path id="Path_17312" data-name="Path 17312" d="M666.05-2712.79l-20.4,20.351a4.055,4.055,0,0,0-.931,1.483,5.319,5.319,0,0,0-.312,1.825,6.311,6.311,0,0,0,.307,1.939,6.4,6.4,0,0,0,.928,1.823l21.051,28.7a5.3,5.3,0,0,0,1.376,1.323,4.044,4.044,0,0,0,1.557.615,3.252,3.252,0,0,0,1.55-.119,3.286,3.286,0,0,0,1.356-.88l19.709-20.887a3.966,3.966,0,0,0,.858-1.454,5.351,5.351,0,0,0,.272-1.776,6.344,6.344,0,0,0-.311-1.879,6.344,6.344,0,0,0-.892-1.764L671.81-2711.65a5.5,5.5,0,0,0-1.35-1.332,4.185,4.185,0,0,0-1.533-.66,3.249,3.249,0,0,0-1.531.052,3.1,3.1,0,0,0-1.346.8" transform="translate(-541.087 2899.035)" fill="#434446"/>
              <path id="Path_17313" data-name="Path 17313" d="M711.823-2650.126l-19.555,21.007a4.2,4.2,0,0,0-.887,1.514,5.545,5.545,0,0,0-.287,1.838,6.486,6.486,0,0,0,.314,1.932,6.343,6.343,0,0,0,.914,1.8l20.616,28.107a5.049,5.049,0,0,0,1.343,1.284,3.767,3.767,0,0,0,1.513.571,3.068,3.068,0,0,0,1.5-.164,3.253,3.253,0,0,0,1.3-.921l18.893-21.517a4.125,4.125,0,0,0,.817-1.484,5.579,5.579,0,0,0,.246-1.789,6.508,6.508,0,0,0-.319-1.875,6.285,6.285,0,0,0-.879-1.742l-19.951-27.594a5.222,5.222,0,0,0-1.318-1.293,3.876,3.876,0,0,0-1.488-.614,3.053,3.053,0,0,0-1.482.1,3.077,3.077,0,0,0-1.3.844" transform="translate(-554.732 2880.74)" fill="#434446"/>
              <path id="Path_17314" data-name="Path 17314" d="M756.671-2588.722l-18.745,21.632a4.378,4.378,0,0,0-.846,1.543,5.8,5.8,0,0,0-.262,1.849,6.621,6.621,0,0,0,.32,1.924,6.237,6.237,0,0,0,.9,1.769l20.194,27.532a4.807,4.807,0,0,0,1.311,1.246,3.491,3.491,0,0,0,1.47.527,2.9,2.9,0,0,0,1.451-.209,3.264,3.264,0,0,0,1.255-.961l18.105-22.118a4.292,4.292,0,0,0,.778-1.512,5.8,5.8,0,0,0,.224-1.8,6.658,6.658,0,0,0-.325-1.868,6.223,6.223,0,0,0-.866-1.719l-19.552-27.043a4.971,4.971,0,0,0-1.284-1.253,3.6,3.6,0,0,0-1.445-.568,2.879,2.879,0,0,0-1.433.144,3.06,3.06,0,0,0-1.247.884" transform="translate(-568.096 2862.813)" fill="#434446"/>
              <path id="Path_17315" data-name="Path 17315" d="M741.017-2780.827,699.954-2739.4a4.011,4.011,0,0,0-.922,1.508,5.523,5.523,0,0,0-.3,1.875,6.762,6.762,0,0,0,.332,2.005,6.9,6.9,0,0,0,.958,1.9,5.84,5.84,0,0,0,1.427,1.416,4.389,4.389,0,0,0,1.612.7,3.357,3.357,0,0,0,1.6-.057,3.189,3.189,0,0,0,1.394-.848L746.8-2772.6a3.646,3.646,0,0,0,.836-1.41,5.225,5.225,0,0,0,.249-1.765,6.628,6.628,0,0,0-.331-1.9,6.908,6.908,0,0,0-.907-1.815,5.868,5.868,0,0,0-1.336-1.381,4.264,4.264,0,0,0-1.5-.713,3.063,3.063,0,0,0-1.492,0,2.81,2.81,0,0,0-1.3.757" transform="translate(-556.965 2918.901)" fill="#f0b90b"/>
              <path id="Path_17316" data-name="Path 17316" d="M640.814-2822.453a3.469,3.469,0,0,0-.9,1.335,4.71,4.71,0,0,0-.3,1.7,5.971,5.971,0,0,0,.3,1.844,6.447,6.447,0,0,0,.9,1.774l21.1,29.385a5.572,5.572,0,0,0,1.328,1.33,4.273,4.273,0,0,0,1.508.68,3.225,3.225,0,0,0,1.5-.009,2.933,2.933,0,0,0,1.314-.739,3.551,3.551,0,0,0,.864-1.355,4.858,4.858,0,0,0,.281-1.7,6.048,6.048,0,0,0-.3-1.828,6.386,6.386,0,0,0-.88-1.746l-20.943-29.26a5.794,5.794,0,0,0-1.343-1.356,4.5,4.5,0,0,0-1.531-.718,3.38,3.38,0,0,0-1.533-.034,2.949,2.949,0,0,0-1.351.7" transform="translate(-539.683 2931.045)" fill="#f0b90b"/>
              <path id="Path_17317" data-name="Path 17317" d="M627.648-2878.418a3.287,3.287,0,0,0-.905,1.287,4.519,4.519,0,0,0-.309,1.662,5.887,5.887,0,0,0,.292,1.823,6.517,6.517,0,0,0,.895,1.772l21.061,29.514a5.77,5.77,0,0,0,1.331,1.35,4.464,4.464,0,0,0,1.51.714,3.291,3.291,0,0,0,1.505.033,2.848,2.848,0,0,0,1.317-.688,3.382,3.382,0,0,0,.872-1.313,4.651,4.651,0,0,0,.287-1.666,5.945,5.945,0,0,0-.3-1.811,6.441,6.441,0,0,0-.88-1.747l-20.909-29.388a5.985,5.985,0,0,0-1.343-1.372,4.677,4.677,0,0,0-1.531-.748,3.452,3.452,0,0,0-1.538-.074,2.9,2.9,0,0,0-1.358.653" transform="translate(-535.833 2947.384)" fill="#f0b90b"/>
              <path id="Path_17318" data-name="Path 17318" d="M667.658-2895.294a3.147,3.147,0,0,0-.859,1.249,4.415,4.415,0,0,0-.283,1.616,5.828,5.828,0,0,0,.293,1.778,6.505,6.505,0,0,0,.87,1.733l20.4,28.917a5.7,5.7,0,0,0,1.282,1.322,4.291,4.291,0,0,0,1.452.707,3.1,3.1,0,0,0,1.442.044,2.672,2.672,0,0,0,1.259-.661,3.233,3.233,0,0,0,.826-1.27,4.579,4.579,0,0,0,.263-1.619,5.921,5.921,0,0,0-.3-1.764,6.413,6.413,0,0,0-.854-1.7l-20.253-28.8a5.921,5.921,0,0,0-1.3-1.347,4.542,4.542,0,0,0-1.473-.742,3.265,3.265,0,0,0-1.473-.085,2.708,2.708,0,0,0-1.3.624" transform="translate(-547.548 2952.306)" fill="#f0b90b"/>
              <path id="Path_17319" data-name="Path 17319" d="M610.6-2787.338a3.69,3.69,0,0,0-.943,1.39,4.881,4.881,0,0,0-.326,1.751,6.04,6.04,0,0,0,.3,1.892,6.433,6.433,0,0,0,.919,1.81l21.693,29.846a5.586,5.586,0,0,0,1.372,1.347,4.328,4.328,0,0,0,1.56.674,3.36,3.36,0,0,0,1.558-.037,3.127,3.127,0,0,0,1.367-.783,3.783,3.783,0,0,0,.906-1.413,5.025,5.025,0,0,0,.3-1.754,6.136,6.136,0,0,0-.3-1.877,6.357,6.357,0,0,0-.9-1.783l-21.532-29.718a5.8,5.8,0,0,0-1.385-1.371,4.557,4.557,0,0,0-1.582-.711,3.526,3.526,0,0,0-1.592-.006,3.171,3.171,0,0,0-1.408.745" transform="translate(-530.832 2920.799)" fill="#f0b90b"/>
              <path id="Path_17320" data-name="Path 17320" d="M583.351-2785.117a3.759,3.759,0,0,0-.974,1.408,4.907,4.907,0,0,0-.343,1.775,6.057,6.057,0,0,0,.294,1.917,6.434,6.434,0,0,0,.935,1.834l7.576,10.357a5.766,5.766,0,0,0,1.416,1.381,4.592,4.592,0,0,0,1.616.7,3.592,3.592,0,0,0,1.62-.019,3.274,3.274,0,0,0,1.427-.775,3.812,3.812,0,0,0,.957-1.419,4.943,4.943,0,0,0,.332-1.771,6.051,6.051,0,0,0-.294-1.9,6.429,6.429,0,0,0-.924-1.817l-7.519-10.312a5.852,5.852,0,0,0-1.415-1.388,4.692,4.692,0,0,0-1.622-.719,3.66,3.66,0,0,0-1.634,0,3.277,3.277,0,0,0-1.449.756" transform="translate(-522.855 2920.154)" fill="#f0b90b"/>
              <path id="Path_17321" data-name="Path 17321" d="M651.275-2769.892a3.648,3.648,0,0,0-.9,1.379,4.923,4.923,0,0,0-.3,1.73,6.059,6.059,0,0,0,.3,1.865,6.413,6.413,0,0,0,.9,1.778l7.238,10.021a5.579,5.579,0,0,0,1.347,1.335,4.267,4.267,0,0,0,1.529.673,3.269,3.269,0,0,0,1.524-.028,3.024,3.024,0,0,0,1.334-.766,3.693,3.693,0,0,0,.881-1.388,4.977,4.977,0,0,0,.287-1.727,6.131,6.131,0,0,0-.3-1.852,6.43,6.43,0,0,0-.892-1.762l-7.185-9.978a5.639,5.639,0,0,0-1.345-1.343,4.343,4.343,0,0,0-1.53-.689,3.317,3.317,0,0,0-1.533.005,3.033,3.033,0,0,0-1.351.746" transform="translate(-542.743 2915.702)" fill="#f0b90b"/>
              <path id="Path_17322" data-name="Path 17322" d="M642.731-2894.228a3.211,3.211,0,0,0-.887,1.265,4.44,4.44,0,0,0-.3,1.636,5.835,5.835,0,0,0,.293,1.8,6.521,6.521,0,0,0,.884,1.754l7.112,10.026a5.9,5.9,0,0,0,1.321,1.355,4.543,4.543,0,0,0,1.5.735,3.3,3.3,0,0,0,1.5.066,2.788,2.788,0,0,0,1.314-.651,3.248,3.248,0,0,0,.87-1.275,4.5,4.5,0,0,0,.288-1.635,5.881,5.881,0,0,0-.293-1.789,6.466,6.466,0,0,0-.872-1.737l-7.061-9.982a6,6,0,0,0-1.323-1.365,4.65,4.65,0,0,0-1.507-.75,3.367,3.367,0,0,0-1.51-.085,2.81,2.81,0,0,0-1.332.632" transform="translate(-540.25 2951.998)" fill="#f0b90b"/>
              <path id="Path_17323" data-name="Path 17323" d="M762.9-2761.148l-21.645,22.373a3.893,3.893,0,0,0-.874,1.472,5.453,5.453,0,0,0-.27,1.83,6.73,6.73,0,0,0,.332,1.958,6.852,6.852,0,0,0,.93,1.852,5.76,5.76,0,0,0,1.379,1.388,4.207,4.207,0,0,0,1.55.688,3.161,3.161,0,0,0,1.534-.051,3.017,3.017,0,0,0,1.331-.825l21.475-22.514a3.69,3.69,0,0,0,.824-1.42,5.312,5.312,0,0,0,.241-1.769,6.652,6.652,0,0,0-.333-1.9,6.86,6.86,0,0,0-.9-1.808,5.75,5.75,0,0,0-1.324-1.365,4.148,4.148,0,0,0-1.489-.7,3.005,3.005,0,0,0-1.476.015,2.8,2.8,0,0,0-1.282.771" transform="translate(-569.059 2913.155)" fill="#434446"/>
              <path id="Path_17324" data-name="Path 17324" d="M783.885-2720.869l-39.4,42.785a4.183,4.183,0,0,0-.881,1.539,5.77,5.77,0,0,0-.271,1.886,6.871,6.871,0,0,0,.338,2,6.805,6.805,0,0,0,.943,1.87,5.57,5.57,0,0,0,1.394,1.376,4.053,4.053,0,0,0,1.567.65,3.152,3.152,0,0,0,1.549-.105,3.167,3.167,0,0,0,1.342-.892l39.091-43.038a3.8,3.8,0,0,0,.8-1.439,5.449,5.449,0,0,0,.226-1.778,6.789,6.789,0,0,0-.337-1.895,6.85,6.85,0,0,0-.894-1.792,5.586,5.586,0,0,0-1.306-1.343,3.931,3.931,0,0,0-1.461-.666,2.88,2.88,0,0,0-1.443.047,2.794,2.794,0,0,0-1.25.8" transform="translate(-569.999 2901.396)" fill="#f0b90b"/>
              <path id="Path_17325" data-name="Path 17325" d="M805.174-2701.576,784.4-2678.484a4.054,4.054,0,0,0-.834,1.5,5.722,5.722,0,0,0-.245,1.844,6.878,6.878,0,0,0,.34,1.953,6.807,6.807,0,0,0,.919,1.832,5.47,5.47,0,0,0,1.348,1.349,3.9,3.9,0,0,0,1.507.642,2.957,2.957,0,0,0,1.486-.1,2.985,2.985,0,0,0,1.282-.868l20.609-23.226A3.853,3.853,0,0,0,811.6-2695a5.526,5.526,0,0,0,.219-1.78,6.812,6.812,0,0,0-.339-1.893,6.791,6.791,0,0,0-.89-1.785,5.5,5.5,0,0,0-1.3-1.331,3.865,3.865,0,0,0-1.45-.655,2.812,2.812,0,0,0-1.43.06,2.782,2.782,0,0,0-1.236.812" transform="translate(-581.688 2895.762)" fill="#434446"/>
              <path id="Path_17326" data-name="Path 17326" d="M826.678-2661l-37.772,44.1a4.356,4.356,0,0,0-.838,1.57,6.012,6.012,0,0,0-.244,1.9,7.049,7.049,0,0,0,.345,1.991,6.738,6.738,0,0,0,.93,1.846,5.3,5.3,0,0,0,1.361,1.335,3.776,3.776,0,0,0,1.522.6,2.969,2.969,0,0,0,1.5-.154,3.152,3.152,0,0,0,1.291-.935l37.47-44.346a3.966,3.966,0,0,0,.761-1.468,5.714,5.714,0,0,0,.2-1.789,6.934,6.934,0,0,0-.343-1.889,6.757,6.757,0,0,0-.88-1.769,5.354,5.354,0,0,0-1.277-1.306,3.673,3.673,0,0,0-1.422-.624,2.7,2.7,0,0,0-1.4.09,2.781,2.781,0,0,0-1.2.84" transform="translate(-583.004 2883.917)" fill="#f0b90b"/>
              <path id="Path_17327" data-name="Path 17327" d="M847.383-2642.082l-19.914,23.791a4.217,4.217,0,0,0-.794,1.532,5.927,5.927,0,0,0-.221,1.855,7.02,7.02,0,0,0,.345,1.947,6.715,6.715,0,0,0,.905,1.807,5.235,5.235,0,0,0,1.316,1.311,3.634,3.634,0,0,0,1.465.6,2.793,2.793,0,0,0,1.437-.144,3,3,0,0,0,1.234-.909l19.756-23.919a4.019,4.019,0,0,0,.749-1.476,5.813,5.813,0,0,0,.2-1.793,6.994,6.994,0,0,0-.345-1.888,6.742,6.742,0,0,0-.877-1.761,5.267,5.267,0,0,0-1.268-1.294,3.585,3.585,0,0,0-1.41-.611,2.665,2.665,0,0,0-1.384.1,2.78,2.78,0,0,0-1.19.853" transform="translate(-594.294 2878.392)" fill="#434446"/>
            </g>
          </g>
        </g>
      </g>
    </g>
    <g id="Group_8705" data-name="Group 8705" transform="translate(439.305 -2760.888)">
      <g id="Group_8695" data-name="Group 8695">
        <g id="Group_8694" data-name="Group 8694" style="isolation: isolate">
          <g id="Group_8692" data-name="Group 8692" transform="translate(14.384 29.781)" style="isolation: isolate">
            <g id="Group_8691" data-name="Group 8691" clip-path="url(#clip-path-3)">
              <g id="Group_8690" data-name="Group 8690" style="isolation: isolate">
                <path id="Path_17329" data-name="Path 17329" d="M538.343-2575.264l-1.284,1.753a32.94,32.94,0,0,1-19.8,12.548c-21.365,4.745-45.77-8.727-54.507-30.089-5.241-12.813-3.655-25.557,3.064-34.728l1.284-1.753c-6.719,9.171-8.3,21.915-3.064,34.728,8.737,21.362,33.142,34.834,54.507,30.089a32.934,32.934,0,0,0,19.8-12.548" transform="translate(-459.63 2627.534)" fill="#775c06"/>
              </g>
            </g>
          </g>
          <g id="Group_8693" data-name="Group 8693">
            <ellipse id="Ellipse_1520" data-name="Ellipse 1520" cx="36.951" cy="44.179" rx="36.951" ry="44.179" transform="matrix(0.591, -0.807, 0.807, 0.591, 0, 59.615)" fill="#d8a70a"/>
          </g>
        </g>
      </g>
      <g id="Group_8701" data-name="Group 8701" transform="translate(10.677 12.774)">
        <g id="Group_8700" data-name="Group 8700" style="isolation: isolate">
          <g id="Group_8698" data-name="Group 8698" transform="translate(0 14.697)" style="isolation: isolate">
            <g id="Group_8697" data-name="Group 8697" clip-path="url(#clip-path-4)">
              <g id="Group_8696" data-name="Group 8696" style="isolation: isolate">
                <path id="Path_17331" data-name="Path 17331" d="M539.966-2573.9l-1.284,1.753a35.853,35.853,0,0,1-21.556,13.658c-23.258,5.166-49.827-9.5-59.338-32.751-5.7-13.948-3.977-27.817,3.336-37.8l1.284-1.753c-7.314,9.983-9.041,23.853-3.336,37.8,9.511,23.255,36.08,37.917,59.338,32.751a35.854,35.854,0,0,0,21.555-13.658" transform="translate(-454.392 2630.798)" fill="#c09409"/>
              </g>
            </g>
          </g>
          <g id="Group_8699" data-name="Group 8699" transform="translate(1.284)">
            <path id="Path_17333" data-name="Path 17333" d="M484.5-2650.529c23.258-5.166,49.821,9.5,59.332,32.753s-1.631,46.293-24.889,51.459-49.827-9.5-59.338-32.751S461.24-2645.363,484.5-2650.529Zm31.215,76.321c18.9-4.2,27.953-22.921,20.225-41.815s-29.316-30.812-48.212-26.615-27.953,22.921-20.225,41.816,29.316,30.811,48.212,26.614" transform="translate(-456.206 2651.565)" fill="#efb90b"/>
          </g>
        </g>
      </g>
      <g id="Group_8704" data-name="Group 8704" transform="translate(37.99 31.699)">
        <g id="Group_8703" data-name="Group 8703" style="isolation: isolate">
          <g id="Group_8702" data-name="Group 8702">
            <path id="Path_17334" data-name="Path 17334" d="M527.938-2609.3c.989,3.883-.352,6.171-2.86,7.424,4.609,1.137,7.786,3.737,8.094,9.407.28,5.1-2.377,7.435-6.822,8.422a31.471,31.471,0,0,1-5.784.621l1.116,7.414-4.669-.115-1.1-7.313c-1.212-.031-2.449-.069-3.732-.125l1.11,7.347-4.668-.115-1.122-7.425c-1.092-.037-2.208-.082-3.338-.111l-6.08-.149.122-5.316,3.395.084a2.176,2.176,0,0,0,.524-.047,1.28,1.28,0,0,0,1-1.389l-1.769-11.725c.172,0,.337.007.494.006-.195-.025-.369-.035-.5-.039l-1.268-8.368a2.945,2.945,0,0,0-2.984-2.029c.05-.059-3.214-.079-3.386-.079l-.725-4.773,6.438.158c.974.05,1.965.054,2.974.055l-1.107-7.34,4.662.117,1.091,7.2c1.242,0,2.493.012,3.718.041l-1.076-7.149,4.669.115,1.11,7.346C521.565-2616.5,526.606-2614.607,527.938-2609.3Zm-4.126,15.727c-.878-5.8-10.669-5.168-13.834-5.242l1.488,9.838a36.2,36.2,0,0,0,8.408-.327c2.45-.544,4.321-1.74,3.938-4.27m-4.272-13.943c-.8-5.268-8.958-4.67-11.6-4.738l1.355,8.928a28.754,28.754,0,0,0,6.8-.258c2.134-.473,3.795-1.558,3.438-3.933" transform="translate(-492.985 2624.824)" fill="#fefefe"/>
          </g>
        </g>
      </g>
    </g>
    <path id="Path_17335" data-name="Path 17335" d="M700.833-2788.578a11.424,11.424,0,0,1-2.826-.365,14.061,14.061,0,0,1-7.765-5.413,14.063,14.063,0,0,1-2.807-9.04,9.97,9.97,0,0,1,3.964-7.671c4.8-3.516,12.107-1.74,16.276,3.959h0a14.066,14.066,0,0,1,2.807,9.041,9.968,9.968,0,0,1-3.963,7.671A9.524,9.524,0,0,1,700.833-2788.578Zm-3.728-21.476a6.753,6.753,0,0,0-4.035,1.272,7.192,7.192,0,0,0-2.808,5.549,11.229,11.229,0,0,0,2.266,7.206,11.226,11.226,0,0,0,6.181,4.341,7.188,7.188,0,0,0,6.139-1,7.191,7.191,0,0,0,2.809-5.548,11.229,11.229,0,0,0-2.266-7.206A10.65,10.65,0,0,0,697.1-2810.054Z" transform="translate(-72.519 -49.401)" fill="#f0b90b"/>
    <path id="Path_17336" data-name="Path 17336" d="M700.642-2812.383l3.64,5.258s17.413-17.325,53.081-15.717c17.966.811,49.212,11.575,49.212,11.575l6.168-31.823s-18.5-11.532-58.564-2.146C715.665-2836.211,700.642-2812.383,700.642-2812.383Z" transform="translate(-76.385 -38.866)" fill="url(#linear-gradient)"/>
    <g id="Group_8711" data-name="Group 8711" transform="translate(790.155 -2751.093)">
      <g id="Group_8710" data-name="Group 8710" transform="translate(0 0)" style="isolation: isolate">
        <g id="Group_8708" data-name="Group 8708" transform="translate(13.458 3.75)" style="isolation: isolate">
          <g id="Group_8707" data-name="Group 8707" clip-path="url(#clip-path-5)">
            <g id="Group_8706" data-name="Group 8706" style="isolation: isolate">
              <path id="Path_17337" data-name="Path 17337" d="M989.191-2650.475l3.74,2.241c10.192,6.107,15.606,18.919,12.657,32.825-3.853,18.165-20.5,31.314-37.186,29.376a26.416,26.416,0,0,1-10.59-3.562l-3.74-2.241a26.424,26.424,0,0,0,10.59,3.563c16.684,1.938,33.333-11.211,37.185-29.376,2.949-13.906-2.465-26.718-12.657-32.825" transform="translate(-954.073 2650.475)" fill="#545556"/>
            </g>
          </g>
        </g>
        <g id="Group_8709" data-name="Group 8709">
          <path id="Path_17339" data-name="Path 17339" d="M973.05-2655.584c16.684,1.938,27.09,18.23,23.239,36.386s-20.5,31.313-37.185,29.376-27.1-18.231-23.246-36.4S956.358-2657.524,973.05-2655.584Z" transform="translate(-935.056 2655.774)" fill="#8c8e90"/>
        </g>
      </g>
    </g>
    <g id="Group_8717" data-name="Group 8717" transform="translate(787.978 -2754.018)">
      <g id="Group_8716" data-name="Group 8716" style="isolation: isolate">
        <g id="Group_8714" data-name="Group 8714" transform="translate(15.765 3.702)" style="isolation: isolate">
          <g id="Group_8713" data-name="Group 8713" clip-path="url(#clip-path-6)">
            <g id="Group_8712" data-name="Group 8712" style="isolation: isolate">
              <path id="Path_17340" data-name="Path 17340" d="M990.969-2654.677l1.886,1.053c11.645,6.5,18.057,20.774,15.009,36.39-3.926,20.117-22.048,34.854-40.47,32.917a29.241,29.241,0,0,1-11.253-3.532l-1.885-1.053a29.221,29.221,0,0,0,11.253,3.532c18.422,1.937,36.544-12.8,40.471-32.917,3.047-15.616-3.364-29.888-15.01-36.39" transform="translate(-954.256 2654.677)" fill="#8c8e90"/>
            </g>
          </g>
        </g>
        <g id="Group_8715" data-name="Group 8715">
          <path id="Path_17342" data-name="Path 17342" d="M973.213-2659.737c18.422,1.937,30.179,19.814,26.255,39.921S977.419-2584.962,959-2586.9s-30.188-19.814-26.262-39.93S954.782-2661.674,973.213-2659.737Zm-12.881,66c14.967,1.573,29.694-10.394,32.883-26.739s-6.367-30.866-21.334-32.439-29.695,10.4-32.883,26.74,6.359,30.864,21.334,32.438" transform="translate(-931.98 2659.908)" fill="#a5a7a9"/>
        </g>
      </g>
    </g>
    <g id="Layer_1" transform="translate(807.412 -2741.327)">
      <g id="Group_8724" data-name="Group 8724" transform="translate(0 0)" style="isolation: isolate">
        <g id="Group_8718" data-name="Group 8718" transform="translate(0.573 17.209)">
          <path id="Path_17343" data-name="Path 17343" d="M974.756-2617.658l-3.167,14.933-11.339-9.966Z" transform="translate(-960.25 2617.658)" fill="#d3d4d4"/>
        </g>
        <g id="Group_8719" data-name="Group 8719" transform="translate(11.912 17.209)">
          <path id="Path_17344" data-name="Path 17344" d="M979.439-2617.658l11.743,8.016-14.91,6.917Z" transform="translate(-976.272 2617.658)" fill="#bcbdbd"/>
        </g>
        <g id="Group_8720" data-name="Group 8720" transform="translate(0.573)">
          <path id="Path_17345" data-name="Path 17345" d="M974.756-2624.766l3.65-17.209L960.25-2619.8l14.506-4.967Z" transform="translate(-960.25 2641.975)" fill="#dfdfdf"/>
        </g>
        <g id="Group_8721" data-name="Group 8721" transform="translate(0 24.878)">
          <path id="Path_17346" data-name="Path 17346" d="M959.44-2606.823l11.339,9.966-2.48,11.692Z" transform="translate(-959.44 2606.823)" fill="#dfdfdf"/>
        </g>
        <g id="Group_8722" data-name="Group 8722" transform="translate(15.079)">
          <path id="Path_17347" data-name="Path 17347" d="M984.4-2641.975l8.093,25.226-11.743-8.016Z" transform="translate(-980.747 2641.975)" fill="#c8c8c8"/>
        </g>
        <g id="Group_8723" data-name="Group 8723" transform="translate(8.859 27.928)">
          <path id="Path_17348" data-name="Path 17348" d="M989.357-2602.513l-17.4,18.608,2.48-11.692Z" transform="translate(-971.958 2602.513)" fill="#c8c8c8"/>
        </g>
      </g>
    </g>
    <path id="Path_17349" data-name="Path 17349" d="M803.229-2971.757H749.012a11.666,11.666,0,0,0-11.666,11.666v34.125a11.666,11.666,0,0,0,11.666,11.666h44.549l7.392,7.392a1.333,1.333,0,0,0,2.276-.943v-6.449a11.666,11.666,0,0,0,11.666-11.666v-34.125A11.666,11.666,0,0,0,803.229-2971.757Z" transform="translate(-87.113 -2.961)" fill="#f0b90b"/>
    <g id="Group_8725" data-name="Group 8725" transform="translate(861.438 -2829.869)">
      <path id="Path_17350" data-name="Path 17350" d="M1061.328-2757.475c2.393,4.9-5.786,9.61-11.094,9.61a9.61,9.61,0,0,1-9.609-9.61,9.61,9.61,0,0,1,9.609-9.61C1055.541-2767.085,1058.95-2762.345,1061.328-2757.475Z" transform="translate(-1037.195 2767.085)"/>
      <path id="Path_17351" data-name="Path 17351" d="M1072.4-2730.825h-31.775v-22.681h20.7Z" transform="translate(-1037.195 2763.116)"/>
      <circle id="Ellipse_1521" data-name="Ellipse 1521" cx="7.076" cy="7.076" r="7.076" transform="translate(5.79 2.738)" fill="#f0b90b"/>
      <path id="Rectangle_1921" data-name="Rectangle 1921" d="M11.853,0h3.538A11.853,11.853,0,0,1,27.243,11.853v10.5a0,0,0,0,1,0,0H0a0,0,0,0,1,0,0v-10.5A11.853,11.853,0,0,1,11.853,0Z" transform="translate(0 19.198)" fill="#f0b90b"/>
    </g>
    <circle id="Ellipse_1522" data-name="Ellipse 1522" cx="11.484" cy="11.484" r="11.484" transform="translate(672.765 -2965.502)" fill="#333436"/>
    <path id="Rectangle_1922" data-name="Rectangle 1922" d="M16.158,0h6.816A16.158,16.158,0,0,1,39.132,16.158V28.923a0,0,0,0,1,0,0H0a0,0,0,0,1,0,0V16.158A16.158,16.158,0,0,1,16.158,0Z" transform="translate(662.557 -2938.28)" fill="#333436"/>
    <g id="Group_8728" data-name="Group 8728" transform="translate(701.481 -2915.708)" style="isolation: isolate">
      <g id="Group_8727" data-name="Group 8727" transform="translate(0)" clip-path="url(#clip-path-7)">
        <g id="Group_8726" data-name="Group 8726" transform="translate(3.084 1.298)">
          <path id="Path_17352" data-name="Path 17352" d="M894.5-2844.45c-5.294-.8-9.69,1.6-13.041,4.427l9,9.18,12.913-7.481C903.054-2838.8,901.267-2843.424,894.5-2844.45Z" transform="translate(-833.801 2874.285)" fill="#c79a09"/>
          <path id="Path_17353" data-name="Path 17353" d="M901.817-2834.579c-.33-.865-1.936-1.471-2.425-2.205l-10.2,5.734-7.79-7.095c-.831.638-6.146,3.753-7.534,7.069-1.512,3.614-4.321,18.679,5.15,21.423,10.994,3.184,17.042-2.881,20.951-8.912C904.291-2825.233,902.149-2833.709,901.817-2834.579Z" transform="translate(-831.116 2872.396)" fill="#d8a70a"/>
          <path id="Path_17354" data-name="Path 17354" d="M846.269-2873.579l18.116,19.384,7.352,3.814a3.569,3.569,0,0,0,2.695-.194,2.119,2.119,0,0,0,.49-2.085l-5.011-7.621-23.643-13.3" transform="translate(-823.515 2882.753)" fill="#bcbdbe"/>
          <path id="Path_17355" data-name="Path 17355" d="M970.017-2883.757l-44.628,16.7-16.019,10.849c-.536,1.876-.053,2.686.292,3.039a5.476,5.476,0,0,0,3.832,1.186l14.163-5.979,42.36-25.791" transform="translate(-841.889 2885.728)" fill="#bcbdbe"/>
          <path id="Path_17356" data-name="Path 17356" d="M952.411-2883.068c-.121-.082-.235-.161-.357-.236s-.243-.155-.365-.229-.25-.148-.379-.224l-56.518,31.769a3,3,0,0,0-.941,2.024c.1.193.939.3,2.091.274l15.309-4.386,41.5-28.742C952.639-2882.9,952.525-2882.988,952.411-2883.068Zm-106.469,6.511-.2.154c-.069.058-.137.11-.2.161s-.137.11-.205.16-.13.11-.192.168l9.8,19.349,13.562,6.149a4.927,4.927,0,0,0,2.547-.629,2.85,2.85,0,0,0,.355-2.31Z" transform="translate(-823.186 2885.728)" fill="#cccdce"/>
          <path id="Path_17357" data-name="Path 17357" d="M836.072-2872.675a17.615,17.615,0,0,0-1.756,1.735,18.912,18.912,0,0,0-1.546,2.015,18.731,18.731,0,0,0-1.282,2.243,17.727,17.727,0,0,0-.961,2.42L815-2814.616a19.721,19.721,0,0,0-.655,2.773,17.507,17.507,0,0,0-.224,2.672,15,15,0,0,0,.191,2.5,12.136,12.136,0,0,0,.592,2.263l.053.155-.053-.155,26.982-9.222,12.007-15.562c.829-1.966,5.65-16.97,5.55-17.988l-23.368-25.5" transform="translate(-814.118 2882.489)" fill="#d9d9da"/>
          <path id="Path_17358" data-name="Path 17358" d="M972.23-2882.429l-56.812,33.123c-.083,1.252-3.556,19.727-3.641,20.74l6.688,20.144,35.3,28.313.006.011,1.5,1.588a18.449,18.449,0,0,0,3.479-2.424,18.734,18.734,0,0,0,2.881-3.208,19.107,19.107,0,0,0,2.123-3.88,19.826,19.826,0,0,0,1.215-4.429l12-77.971a13.729,13.729,0,0,0,.085-3.647,12.222,12.222,0,0,0-.839-3.278,11.852,11.852,0,0,0-1.646-2.813,12.364,12.364,0,0,0-2.333-2.267" transform="translate(-842.662 2885.339)" fill="#d9d9da"/>
          <path id="Path_17359" data-name="Path 17359" d="M854.214-2811.23l-38.989,24.785.053.155a9.605,9.605,0,0,0,.8,1.614,7.815,7.815,0,0,0,1.059,1.347,6.571,6.571,0,0,0,1.309,1.028,6.155,6.155,0,0,0,1.55.657l93.775,25.45a18.276,18.276,0,0,0,3.413.589,17.9,17.9,0,0,0,3.388-.065,17.944,17.944,0,0,0,3.285-.693,19.375,19.375,0,0,0,3.187-1.338l-1.5-1.588-.006-.011-41.985-48.457c-2.335,1.2-12.377,8.171-18,7.4-5.916-1.406-10.263-9.085-11.339-10.874" transform="translate(-814.441 2864.529)" fill="#e5e6e6"/>
          <path id="Path_17360" data-name="Path 17360" d="M885.293-2836.337l-.678,2.618a3.934,3.934,0,0,0-1.193.446,4.942,4.942,0,0,0-1.068.82,5.536,5.536,0,0,0-.855,1.115,5.428,5.428,0,0,0-.555,1.338,4.572,4.572,0,0,0-.143,1.569,3.43,3.43,0,0,0,.389,1.327,2.663,2.663,0,0,0,.852.949,2.6,2.6,0,0,0,1.248.428,3.331,3.331,0,0,0,1.429-.209,4.526,4.526,0,0,0,1.333-.786,5.421,5.421,0,0,0,1.083-1.244,5.425,5.425,0,0,0,.68-1.571,4.6,4.6,0,0,0,.141-1.4,3.551,3.551,0,0,0-.281-1.21,2.824,2.824,0,0,0-.646-.93,2.532,2.532,0,0,0-.954-.566l.413-1.606-.369-1.019-.825-.069" transform="translate(-833.604 2871.867)" fill="#c09409"/>
          <path id="Path_17361" data-name="Path 17361" d="M900.4-2831.787l-4.848,2.385c-.063.108-.123.219-.179.331s-.109.228-.157.344-.093.237-.133.357-.075.243-.106.368a4.563,4.563,0,0,0-.117,1.631,3.552,3.552,0,0,0,.451,1.382,2.915,2.915,0,0,0,.941.991,2.934,2.934,0,0,0,1.355.45,3.67,3.67,0,0,0,1.536-.213,4.753,4.753,0,0,0,1.419-.814,5.5,5.5,0,0,0,1.139-1.292,5.387,5.387,0,0,0,.7-1.634,4.589,4.589,0,0,0,.118-1.464,3.671,3.671,0,0,0-.336-1.265,3.032,3.032,0,0,0-.726-.971,2.835,2.835,0,0,0-1.052-.586" transform="translate(-837.709 2870.538)" fill="#c09409"/>
          <path id="Path_17362" data-name="Path 17362" d="M878.687-2840.8q-.389.331-.765.683c-.251.232-.5.473-.739.717s-.479.5-.712.753-.461.519-.684.786a25.192,25.192,0,0,0-1.581,2.112,25.3,25.3,0,0,0-1.369,2.3,24.913,24.913,0,0,0-1.131,2.461,24.662,24.662,0,0,0-.868,2.612q-.3,1.114-.485,2.207t-.258,2.162a20.412,20.412,0,0,0-.037,2.1,19.064,19.064,0,0,0,.179,2.033,16.826,16.826,0,0,0,1.226,4.362,14.2,14.2,0,0,0,2.314,3.67,12.682,12.682,0,0,0,3.353,2.722,12.965,12.965,0,0,0,4.334,1.481,14.951,14.951,0,0,0,4.863-.055,18.107,18.107,0,0,0,4.847-1.59,21.889,21.889,0,0,0,4.524-2.969,24.646,24.646,0,0,0,3.881-4.147,25.4,25.4,0,0,0,1.411-2.118,25.435,25.435,0,0,0,1.2-2.272,24.922,24.922,0,0,0,.97-2.4,24.363,24.363,0,0,0,.713-2.51,22.482,22.482,0,0,0,.486-3.132,20.3,20.3,0,0,0,.03-2.979A18.163,18.163,0,0,0,904-2834.6a16.448,16.448,0,0,0-.781-2.542q-.122-.305-.255-.6c-.089-.2-.181-.392-.277-.583s-.2-.379-.3-.565-.209-.366-.319-.544l-2.684.163-.646,1.708a12.024,12.024,0,0,1,1.233,2.4,13.683,13.683,0,0,1,.73,2.779,15.787,15.787,0,0,1,.166,3.083,18.059,18.059,0,0,1-.456,3.311,20.167,20.167,0,0,1-2.642,6.271,20.124,20.124,0,0,1-4.36,4.888,16.8,16.8,0,0,1-5.364,2.933,12.664,12.664,0,0,1-5.651.528,10.371,10.371,0,0,1-4.815-1.967,10.9,10.9,0,0,1-3.178-3.852,13.71,13.71,0,0,1-1.38-5.115,17.528,17.528,0,0,1,.58-5.859,20.076,20.076,0,0,1,1.148-3.186,20.473,20.473,0,0,1,1.622-2.891,20.5,20.5,0,0,1,2.022-2.546,19.486,19.486,0,0,1,2.354-2.142l-.217-1.369-1.846-.51" transform="translate(-830.465 2873.172)" fill="#f0b90b"/>
          <path id="Path_17363" data-name="Path 17363" d="M889.528-2841.282q-.214.092-.427.188c-.142.065-.282.132-.423.2s-.28.14-.418.213-.276.149-.413.226l-.692,2.672,1.195,1.087,1.178-4.586h0" transform="translate(-835.465 2873.313)" fill="#b18808"/>
          <path id="Path_17364" data-name="Path 17364" d="M896.134-2839.228l-1.659.753-.048-.035-.691,2.737,2.049,3.41c-.051.061-.1.123-.15.187s-.1.127-.142.193-.091.132-.135.2-.086.137-.127.207l.231.21,4.616-2.595c-.058-.018-.118-.034-.178-.048s-.122-.027-.185-.038-.125-.02-.19-.027-.129-.013-.195-.016a3.4,3.4,0,0,0-.551.017,3.86,3.86,0,0,0-.546.1,4.3,4.3,0,0,0-.534.18,4.8,4.8,0,0,0-.515.252l-1.757-2.878.7-2.81" transform="translate(-837.389 2872.712)" fill="#b18808"/>
          <path id="Path_17365" data-name="Path 17365" d="M885.44-2844.258q-.417.245-.826.512t-.807.551q-.4.286-.787.589t-.765.626l2.063,1.879c.168-.129.338-.255.51-.378s.345-.243.519-.359.352-.229.529-.338.357-.215.539-.317c.137-.078.275-.153.413-.226s.278-.145.418-.213.281-.136.423-.2.284-.127.427-.187l-2.655-1.938m16.074-.577-4.419,2.007a10.224,10.224,0,0,1,1.533.684,10.125,10.125,0,0,1,1.391.918,10.415,10.415,0,0,1,1.232,1.14,10.93,10.93,0,0,1,1.057,1.346l3.33-1.872a13.883,13.883,0,0,0-.868-1.251,13.22,13.22,0,0,0-.982-1.125,12.948,12.948,0,0,0-1.088-.994,12.529,12.529,0,0,0-1.186-.854" transform="translate(-834.033 2874.351)" fill="#ddaa0a"/>
          <path id="Path_17366" data-name="Path 17366" d="M942.2-2886.486l-90.211,6.741a8.482,8.482,0,0,0-1.46.242,10.186,10.186,0,0,0-1.454.493,12.2,12.2,0,0,0-1.426.719,14.322,14.322,0,0,0-1.38.923l28.653,20.919,2.655,1.938h0l2.975,2.171.048.035,1.659-.754,4.318-1.961,4.419-2.007,60.647-27.546a14.378,14.378,0,0,0-2.089-.964,15.758,15.758,0,0,0-2.291-.651,17.409,17.409,0,0,0-2.461-.322,19.267,19.267,0,0,0-2.6.022" transform="translate(-823.515 2886.542)" fill="#f2f2f3"/>
        </g>
      </g>
    </g>
  </g>
</svg>
