<svg width="20" height="20" viewBox="0 0 20 20" fill="none" xmlns="http://www.w3.org/2000/svg">
<g id="List &#226;&#134;&#146; Item &#226;&#134;&#146; Link &#226;&#134;&#146; SVG" clip-path="url(#clip0_1_2815)">
<path id="Icon awesome-instagram" d="M10.1156 4.77139C9.12193 4.77139 8.15054 5.066 7.3243 5.61794C6.49807 6.16989 5.8541 6.9544 5.47382 7.87226C5.09355 8.79011 4.99405 9.8001 5.18792 10.7745C5.38178 11.7489 5.86029 12.6439 6.56295 13.3464C7.2656 14.0489 8.16084 14.5273 9.13545 14.7211C10.1101 14.915 11.1203 14.8155 12.0383 14.4353C12.9564 14.0551 13.7411 13.4113 14.2931 12.5852C14.8452 11.7592 15.1399 10.788 15.1399 9.79452C15.1409 9.13458 15.0117 8.48092 14.7596 7.87101C14.5075 7.2611 14.1374 6.70694 13.6707 6.24029C13.2039 5.77364 12.6496 5.40368 12.0396 5.15161C11.4295 4.89955 10.7757 4.77034 10.1156 4.77139ZM10.1156 13.0634C9.46957 13.0634 8.83801 12.8718 8.30082 12.513C7.76364 12.1541 7.34496 11.6441 7.09772 11.0473C6.85048 10.4505 6.78579 9.7939 6.91183 9.16039C7.03787 8.52688 7.34898 7.94496 7.80582 7.48823C8.26266 7.03149 8.8447 6.72045 9.47836 6.59444C10.112 6.46843 10.7688 6.5331 11.3657 6.78028C11.9626 7.02747 12.4727 7.44606 12.8317 7.98312C13.1906 8.52018 13.3822 9.1516 13.3822 9.79752C13.3796 10.6625 13.0344 11.4912 12.4223 12.1025C11.8101 12.7137 10.9808 13.0578 10.1156 13.0594V13.0634ZM16.5169 4.57159C16.5169 4.80336 16.4481 5.02993 16.3193 5.22264C16.1905 5.41535 16.0075 5.56555 15.7933 5.65425C15.5791 5.74295 15.3434 5.76615 15.1161 5.72094C14.8887 5.67572 14.6798 5.56411 14.5159 5.40022C14.352 5.23633 14.2404 5.02753 14.1951 4.80021C14.1499 4.57289 14.1731 4.33727 14.2618 4.12314C14.3505 3.90901 14.5008 3.72599 14.6935 3.59722C14.8863 3.46845 15.1129 3.39973 15.3447 3.39973C15.4986 3.3988 15.6511 3.42826 15.7936 3.4864C15.9361 3.54454 16.0656 3.63023 16.1749 3.73854C16.2842 3.84685 16.371 3.97566 16.4303 4.11759C16.4897 4.25951 16.5205 4.41176 16.5209 4.56559L16.5169 4.57159ZM19.8474 5.75544C19.8801 4.23227 19.3114 2.75751 18.2646 1.65042C17.1548 0.60756 15.6814 0.0396663 14.1586 0.0679566C12.5408 -0.0239543 7.69144 -0.0239543 6.07364 0.0679566C4.55131 0.0377356 3.07759 0.604286 1.9677 1.64643C0.923834 2.75487 0.356278 4.22832 0.386881 5.75045C0.294949 7.36788 0.294949 12.2162 0.386881 13.8336C0.354182 15.3568 0.922823 16.8315 1.9697 17.9386C3.07988 18.9808 4.55306 19.5485 6.07564 19.5211C7.69344 19.613 12.5428 19.613 14.1606 19.5211C15.6841 19.5538 17.1592 18.9853 18.2666 17.9386C19.3097 16.8292 19.8777 15.356 19.8494 13.8336C19.9413 12.2162 19.9413 7.37287 19.8494 5.75544H19.8474ZM17.7569 15.5689C17.5907 15.9904 17.3395 16.3731 17.0191 16.6935C16.6987 17.0138 16.3159 17.2649 15.8943 17.4311C14.6043 17.9426 11.5436 17.8247 10.1186 17.8247C8.69369 17.8247 5.62798 17.9386 4.34293 17.4311C3.92159 17.2648 3.53893 17.0136 3.2187 16.6933C2.89846 16.373 2.64748 15.9903 2.48132 15.5689C1.9697 14.2792 2.08761 11.2191 2.08761 9.79452C2.08761 8.36991 1.9737 5.30488 2.48132 4.02012C2.64771 3.59888 2.89889 3.2163 3.2193 2.89614C3.53971 2.57598 3.9225 2.32505 4.34393 2.15893C5.63297 1.64543 8.69369 1.75932 10.1156 1.75932C11.5376 1.75932 14.6063 1.64543 15.8913 2.15293C16.3129 2.31917 16.6957 2.57025 17.0161 2.89059C17.3365 3.21093 17.5877 3.5937 17.7539 4.01513C18.2656 5.30488 18.1476 8.36491 18.1476 9.78953C18.1476 11.2141 18.2686 14.2832 17.7569 15.5689Z" fill="#FFB115"/>
</g>
<defs>
<clipPath id="clip0_1_2815">
<rect width="19.61" height="19.59" fill="white" transform="translate(0.312622 -0.000976562)"/>
</clipPath>
</defs>
</svg>
