<svg width="21" height="21" viewBox="0 0 21 21" fill="none" xmlns="http://www.w3.org/2000/svg">
<g id="List &#226;&#134;&#146; Item &#226;&#134;&#146; Link &#226;&#134;&#146; SVG" clip-path="url(#clip0_2_4072)">
<path id="Icon awesome-instagram" d="M10.3231 5.36148C9.32939 5.36148 8.358 5.65608 7.53176 6.20803C6.70553 6.75998 6.06156 7.54449 5.68128 8.46234C5.30101 9.3802 5.20151 10.3902 5.39537 11.3646C5.58924 12.339 6.06775 13.234 6.7704 13.9365C7.47306 14.639 8.3683 15.1174 9.34291 15.3112C10.3175 15.505 11.3277 15.4056 12.2458 15.0254C13.1639 14.6452 13.9485 14.0014 14.5006 13.1753C15.0527 12.3493 15.3473 11.3781 15.3473 10.3846C15.3484 9.72467 15.2192 9.07101 14.967 8.4611C14.7149 7.85119 14.3449 7.29703 13.8781 6.83038C13.4114 6.36373 12.8571 5.99376 12.247 5.7417C11.637 5.48964 10.9832 5.36043 10.3231 5.36148ZM10.3231 13.6534C9.67702 13.6534 9.04547 13.4619 8.50828 13.103C7.9711 12.7442 7.55242 12.2341 7.30518 11.6374C7.05794 11.0406 6.99325 10.384 7.11929 9.75048C7.24533 9.11697 7.55644 8.53505 8.01328 8.07832C8.47012 7.62158 9.05216 7.31054 9.68581 7.18453C10.3195 7.05852 10.9763 7.12319 11.5732 7.37037C12.17 7.61756 12.6802 8.03615 13.0391 8.57321C13.3981 9.11027 13.5897 9.74169 13.5897 10.3876C13.587 11.2526 13.2419 12.0813 12.6297 12.6926C12.0176 13.3038 11.1883 13.6479 10.3231 13.6494V13.6534ZM16.7243 5.16168C16.7243 5.39345 16.6556 5.62002 16.5268 5.81273C16.398 6.00544 16.2149 6.15564 16.0007 6.24434C15.7866 6.33303 15.5509 6.35624 15.3235 6.31102C15.0962 6.26581 14.8873 6.1542 14.7234 5.99031C14.5595 5.82642 14.4478 5.61762 14.4026 5.3903C14.3574 5.16298 14.3806 4.92735 14.4693 4.71322C14.558 4.49909 14.7082 4.31607 14.901 4.18731C15.0938 4.05854 15.3204 3.98981 15.5522 3.98981C15.7061 3.98889 15.8586 4.01835 16.0011 4.07649C16.1435 4.13463 16.2731 4.22031 16.3824 4.32863C16.4916 4.43694 16.5784 4.56575 16.6378 4.70768C16.6972 4.8496 16.7279 5.00185 16.7283 5.15568L16.7243 5.16168ZM20.0548 6.34553C20.0875 4.82236 19.5189 3.3476 18.472 2.24051C17.3623 1.19765 15.8888 0.629754 14.3661 0.658044C12.7483 0.566134 7.8989 0.566134 6.2811 0.658044C4.75877 0.627824 3.28505 1.19437 2.17516 2.23651C1.13129 3.34495 0.563736 4.8184 0.594339 6.34053C0.502408 7.95796 0.502408 12.8063 0.594339 14.4237C0.561641 15.9469 1.13028 17.4216 2.17716 18.5287C3.28734 19.5708 4.76051 20.1386 6.2831 20.1112C7.9009 20.2031 12.7503 20.2031 14.3681 20.1112C15.8916 20.1439 17.3667 19.5754 18.474 18.5287C19.5171 17.4192 20.0851 15.9461 20.0568 14.4237C20.1488 12.8063 20.1488 7.96296 20.0568 6.34553H20.0548ZM17.9644 16.159C17.7981 16.5804 17.547 16.9632 17.2266 17.2835C16.9062 17.6039 16.5233 17.855 16.1018 18.0212C14.8117 18.5327 11.751 18.4148 10.3261 18.4148C8.90115 18.4148 5.83543 18.5287 4.55039 18.0212C4.12905 17.8549 3.74639 17.6037 3.42616 17.2834C3.10592 16.9631 2.85494 16.5803 2.68878 16.159C2.17716 14.8693 2.29507 11.8092 2.29507 10.3846C2.29507 8.95999 2.18116 5.89497 2.68878 4.61021C2.85516 4.18896 3.10635 3.80639 3.42676 3.48623C3.74717 3.16606 4.12996 2.91514 4.55139 2.74902C5.84043 2.23551 8.90115 2.3494 10.3231 2.3494C11.745 2.3494 14.8137 2.23551 16.0988 2.74302C16.5203 2.90926 16.9032 3.16034 17.2236 3.48068C17.544 3.80102 17.7951 4.18378 17.9614 4.60522C18.473 5.89497 18.3551 8.955 18.3551 10.3796C18.3551 11.8042 18.476 14.8733 17.9644 16.159Z" fill="#FFB115"/>
</g>
<defs>
<clipPath id="clip0_2_4072">
<rect width="19.61" height="19.59" fill="white" transform="translate(0.52002 0.589111)"/>
</clipPath>
</defs>
</svg>
