<svg xmlns="http://www.w3.org/2000/svg" width="153.064" height="199.152"><defs><clipPath id="a"><rect data-name="Rectangle 4" width="90.2" height="181.571" rx="8.591" transform="rotate(180 45.1 90.7855)" fill="none"/></clipPath><clipPath id="b"><path data-name="Path 15309" d="M322.317 164.636c3.915-7.05 4.147-16.38-.168-24.672-6.507-12.506-20.881-17.909-32.105-12.069a21.038 21.038 0 0 0-8.63 8.41c-9.76-.043-19.083 3.541-25.741 10.814-13.582 14.839-10.929 39.375 5.926 54.8s41.53 15.9 55.111 1.065c9.362-10.227 11.008-25.064 5.607-38.348Z" transform="translate(-246.997 -125.541)" fill="#f78690"/></clipPath></defs><g data-name="Group 4118"><g data-name="Group 4089"><g data-name="Group 4086"><g data-name="Group 11" transform="translate(51.15 8.209)"><rect data-name="Rectangle 2" width="99.571" height="190.943" rx="9.257" transform="rotate(180 50.445 95.4715)" fill="#193c7d"/><rect data-name="Rectangle 3" width="90.2" height="181.571" rx="8.591" transform="rotate(180 48.102 93.1285)" fill="#fff"/><path data-name="Path 19" d="M100.743 52.79a1.17 1.17 0 0 0 1.171-1.171V38.657a1.171 1.171 0 0 0-1.171-1.171 1.172 1.172 0 0 0-1.172 1.171v12.962a1.171 1.171 0 0 0 1.172 1.171Z" fill="#193c7d"/><path data-name="Path 20" d="M100.743 69.115a1.171 1.171 0 0 0 1.171-1.172V54.982a1.17 1.17 0 0 0-1.171-1.171 1.171 1.171 0 0 0-1.172 1.171v12.961a1.172 1.172 0 0 0 1.172 1.172Z" fill="#193c7d"/><path data-name="Path 21" d="M1.172 53.886a1.171 1.171 0 0 0 1.171-1.172V41a1.171 1.171 0 0 0-1.171-1.171A1.172 1.172 0 0 0 0 41v11.714a1.172 1.172 0 0 0 1.172 1.172Z" fill="#193c7d"/><g data-name="Group 6"><g data-name="Group 4" transform="translate(53.124 1.171)"><circle data-name="Ellipse 1" cx="1.171" cy="1.171" r="1.171" fill="#10193d"/></g><g data-name="Group 5"><path data-name="Path 22" d="M47.136 2.343a1.171 1.171 0 1 0 1.172-1.172 1.172 1.172 0 0 0-1.172 1.172Z" fill="#10193d"/></g></g><g data-name="Group 10"><g data-name="Group 9" transform="translate(6.004 4.686)" clip-path="url(#a)"><path data-name="Path 23" d="M-5.972 73.919c2.044 2.242-3.229 65.919 30.845 78.045 41.561 14.79 53.495-44.109 125.13-13.916s-52.966 99.6-52.966 99.6l-86.248-22.519-92.857-47.107-4.469-28.2Z" fill="#fed7b1"/><ellipse data-name="Ellipse 2" cx="28.511" cy="21.696" rx="28.511" ry="21.696" transform="rotate(-33.28 45.10253 83.18728)" fill="#fed7b1"/><ellipse data-name="Ellipse 3" cx="17.845" cy="23.451" rx="17.845" ry="23.451" transform="rotate(-57.178 26.33345 -43.33162)" fill="#fed7b1"/><g data-name="Group 8"><path data-name="Path 24" d="M66.27 137.527H23.964a8.869 8.869 0 0 1-8.868-8.868 8.868 8.868 0 0 1 8.868-8.868H66.27a8.867 8.867 0 0 1 8.868 8.868 8.868 8.868 0 0 1-8.868 8.868Z" fill="#ff8915"/><g data-name="Group 7" fill="#fff"><path data-name="Path 25" d="M31.389 130.195h-1.4v3.113h-1.752v-8.5h3.16a3.569 3.569 0 0 1 2.325.672 2.318 2.318 0 0 1 .818 1.9 2.618 2.618 0 0 1-.377 1.451 2.564 2.564 0 0 1-1.142.926l1.84 3.475v.082h-1.882Zm-1.4-1.42h1.413a1.446 1.446 0 0 0 1.022-.336 1.2 1.2 0 0 0 .363-.925 1.286 1.286 0 0 0-.342-.947 1.42 1.42 0 0 0-1.048-.344h-1.408Z"/><path data-name="Path 26" d="M40.987 129.619h-3.368v2.278h3.948v1.407h-5.7v-8.5h5.689v1.415h-3.937v2.026h3.364Z"/><path data-name="Path 27" d="M47.717 129.833h-3.365v3.475H42.6v-8.5h5.537v1.411h-3.785v2.2h3.365Z"/><path data-name="Path 28" d="M54.269 129.619h-3.367v2.278h3.948v1.407h-5.7v-8.5h5.689v1.415h-3.937v2.026h3.364Z"/><path data-name="Path 29" d="M59.03 130.195h-1.4v3.113h-1.752v-8.5h3.16a3.566 3.566 0 0 1 2.324.672 2.314 2.314 0 0 1 .819 1.9 2.61 2.61 0 0 1-.377 1.451 2.551 2.551 0 0 1-1.143.926l1.84 3.475v.082h-1.88Zm-1.4-1.42h1.413a1.451 1.451 0 0 0 1.023-.336 1.2 1.2 0 0 0 .361-.925 1.285 1.285 0 0 0-.341-.947 1.42 1.42 0 0 0-1.049-.344H57.63Z"/></g></g></g></g></g></g><g data-name="Group 4087"><path data-name="Path 50" d="M138.233 79.917c3.915-7.05 4.147-16.38-.168-24.672-6.507-12.506-20.881-17.909-32.105-12.069a21.038 21.038 0 0 0-8.63 8.41c-9.76-.043-19.083 3.541-25.741 10.814-13.582 14.839-10.929 39.375 5.926 54.8s41.53 15.9 55.111 1.065c9.362-10.227 11.008-25.064 5.607-38.348Z" fill="#ff8915"/></g><g data-name="Mask Group 12" transform="translate(62.913 40.822)" clip-path="url(#b)"><g data-name="Group 4082"><g data-name="Group 84"><g data-name="Group 79"><path data-name="Path 188" d="M49.775 65.721c-3.263-1.78-2.374-10.385-2.374-10.385l-4.888.315v-.314l-.523.157-.523-.157v.314l-4.888-.315s.89 8.6-2.374 10.385-22.548 2.67-20.471 22.548h56.51c2.078-19.878-17.205-20.768-20.469-22.548Z" fill="#ffb287"/><path data-name="Path 189" d="M35.895 63.501q5.856-.873 11.7-1.8a26.1 26.1 0 0 1-.2-6.364l-4.888.315v-.314l-.523.157-.523-.157v.314l-4.888-.315s.522 4.999-.678 8.164Z" fill="#cf9879"/></g><g data-name="Group 83"><g data-name="Group 80"><path data-name="Path 190" d="M53.881 66.542a12.935 12.935 0 0 1-23.779 0c-6.722 1.844-18.54 5.792-16.875 21.727h57.529c1.665-15.935-10.153-19.883-16.875-21.727Z" fill="#fdedee"/><path data-name="Path 191" d="M66.164 72.787c-7.211 4.666-15.909 6.495-24 9.071-7.583 2.415-15.26 4.505-22.984 6.411h51.573c.78-7.438-1.381-12.262-4.589-15.482Z" fill="#352c38" opacity=".1"/></g><g data-name="Group 82"><g data-name="Group 81" fill="#6f96bd"><path data-name="Path 192" d="M55.019 66.864v21.405h15.74c1.571-15.07-8.912-19.418-15.74-21.405Z"/><path data-name="Path 193" d="M28.856 66.895c-6.831 2-17.2 6.383-15.629 21.374h15.629Z"/></g><path data-name="Path 194" d="M29.044 66.895v21.374s-7.887-13.447-7.5-18.064 6.73-4.889 7.5-3.31Z" fill="#88bbe5"/><path data-name="Path 195" d="M54.621 66.895v21.374s7.887-13.447 7.5-18.064-6.73-4.889-7.5-3.31Z" fill="#88bbe5"/></g></g></g><g data-name="Group 88"><g data-name="Group 85"><path data-name="Path 196" d="M32.437 42.741c-.961-2.983-3.238-2.292-3.452-2.22-.224.026-2.577.376-2.17 3.483.409 3.127 2.223 4.821 3.924 4.323 1.748-.278 2.663-2.586 1.698-5.586Z" fill="#f6ab81"/><path data-name="Path 197" d="M51.635 42.741c.961-2.983 3.238-2.292 3.452-2.22.224.026 2.577.376 2.17 3.483-.409 3.127-2.223 4.821-3.924 4.323-1.75-.278-2.665-2.586-1.698-5.586Z" fill="#f6ab81"/><path data-name="Path 198" d="M30.102 38.221c1.192-13.078 11.134-12.345 12.072-12.247.938-.1 10.88-.831 12.072 12.247 1.2 13.156-4.661 21.748-12.072 21.276-7.41.473-13.27-8.119-12.072-21.276Z" fill="#ffb287"/></g><g data-name="Group 86"><path data-name="Path 200" d="M47.246 50.996c-2.367 3.047-6.377 2.878-9.413.163" fill="#fff"/><path data-name="Path 15312" d="m38.251 37.825-.148-.068a3.528 3.528 0 0 0-3.1.274c-.231.154-1.122.889-.858 1.18a11.61 11.61 0 0 0 1.237-.53 3.31 3.31 0 0 1 1.155-.154 3.155 3.155 0 0 1 1.056.222c.033.017.066.017.083.034.742.376.676.616 1.171.257.807-.427.015-.89-.596-1.215Z" fill="#261d1b" fill-rule="evenodd"/><path data-name="Path 15313" d="m46.601 37.825.148-.068a3.528 3.528 0 0 1 3.1.274c.231.154 1.122.889.858 1.18a11.617 11.617 0 0 1-1.237-.53 3.31 3.31 0 0 0-1.155-.154 3.155 3.155 0 0 0-1.056.222c-.033.017-.066.017-.082.034-.742.376-.676.616-1.171.257-.808-.427-.016-.89.595-1.215Z" fill="#261d1b" fill-rule="evenodd"/><path data-name="Path 15315" d="M37.598 42.386a1.135 1.135 0 0 0-1.179-1.14 1.266 1.266 0 0 0-.921 1.447 1.135 1.135 0 0 0 1.178 1.14 1.265 1.265 0 0 0 .922-1.447Z" fill="#0e1a30"/><path data-name="Path 15316" d="M49.35 42.386a1.135 1.135 0 0 0-1.179-1.14 1.266 1.266 0 0 0-.921 1.447 1.135 1.135 0 0 0 1.178 1.14 1.265 1.265 0 0 0 .922-1.447Z" fill="#0e1a30"/><path data-name="Path 15317" d="M41.467 48.713a6.069 6.069 0 0 0 2.378-.374c.185-.114.278-.171-1.333-6.921a.236.236 0 0 0-.459.109c.527 2.21 1.342 5.748 1.433 6.467a7.079 7.079 0 0 1-2.119.247.236.236 0 0 0 0 .471Z" fill="#9c5f3e"/></g><g data-name="Group 87" fill="#6f6f6f"><path data-name="Path 205" d="M54.762 28.138c-.671-2.683-2.271-3.361-3.038-3.532-.442-6.911-18.909-8.178-19.149-6.856-.257 1.411 6.541 3.719 6.541 3.719s-12.184-3.206-11.543-.385c.521 2.292 5.442 2.045 7.271 1.872-2.572.321-11.362 1.733-7.4 5.7a6.462 6.462 0 0 0 1.047.842c-.369 4.913 1.088 16.472 1.088 16.472h1.025l-.385-7.952c1.988-.4 2.9-5.108 3.206-7.208a23.515 23.515 0 0 0 8-1.568c-.755.351-1.945 1.155-.644 2.363 1.328 1.233 6.092-.269 8.483-1.135.44 1.873 1.853 7.127 3.958 7.548l-.385 7.952h1.031s1.792-14.241.894-17.832Z"/><path data-name="Path 206" d="M54.763 28.139c-.671-2.683-2.271-3.361-3.038-3.532a4.662 4.662 0 0 0-1.829-3.242c-.574 4.686-4 8.671-8.357 10.6 1.874.455 5.674-.754 7.729-1.5.44 1.873 1.853 7.127 3.958 7.548l-.385 7.952h1.025s1.795-14.235.897-17.826Z"/></g></g></g></g></g><g data-name="Group 4097"><path data-name="Path 15323" d="M76.191 0H2.959C1.325 0 0 3.051 0 6.816v31.09c0 3.764 1.325 6.816 2.959 6.816H72.39l6.76 11.844V6.816C79.149 3.051 77.825 0 76.191 0Z" fill="#73ade7"/><g data-name="Group 4095" fill="none" stroke="#fff" stroke-linecap="round" stroke-linejoin="round" stroke-width="1.5"><path data-name="Path 14730" d="M16.782 38.595a6.975 6.975 0 1 0-6.975-6.976 6.975 6.975 0 0 0 6.975 6.976Z"/><path data-name="Path 14731" d="m13.93276 32.02356 1.7992 2.29458a11.35796 11.35796 0 0 1 4.11914-5.17924" stroke-width="1.5007800000000002"/></g><rect data-name="Rectangle 808" width="36.786" height="36.786" rx="3.684" transform="translate(36.745 4.17)" fill="#fff"/><g data-name="Group 4083"><g data-name="Group 92"><g data-name="Group 90"><path data-name="Path 207" d="M52.041 24.482s-3.356 2.115-1.532 5.325 14.443 2.334 7.951-5.325c-5.363-6.327-6.419 0-6.419 0Z" fill="#76413b"/></g><g data-name="Group 91"><path data-name="Path 208" d="M64.321 16.312a5.1 5.1 0 0 0-1.167 3.5c.42 2.52-3.429 5.836-7.368 4.742s.292-8.462.292-8.462Z" fill="#76413b"/><path data-name="Path 209" d="M45.913 16.312a5.1 5.1 0 0 1 1.167 3.5c-.42 2.52 3.429 5.836 7.368 4.742s-.292-8.462-.292-8.462Z" fill="#76413b"/><path data-name="Path 210" d="M55.924 21.822a11.112 11.112 0 0 0 5.252-1.133 5.613 5.613 0 0 0 1.965-1.731 5.807 5.807 0 0 1 1.18-2.646l-8.243-.219a16.236 16.236 0 0 0-1.956 5.612 17.64 17.64 0 0 0 1.802.117Z" fill="#965450"/><path data-name="Path 211" d="M47.113 19.505a19.783 19.783 0 0 0 8.812 2.315h.195a15.942 15.942 0 0 0-1.963-5.727l-8.243.219a5.36 5.36 0 0 1 1.199 3.193Z" fill="#965450"/></g></g><g data-name="Group 96"><g data-name="Group 93"><path data-name="Path 212" d="M59.526 28.132c-1.856-1.013-1.35-5.907-1.35-5.907l-2.78.179v-.178l-.3.089-.3-.089v.178l-2.78-.179s.506 4.894-1.35 5.907-13.263 1.519-12.081 12.825h33.022c1.181-11.307-10.225-11.813-12.081-12.825Z" fill="#ffb287"/><path data-name="Path 213" d="M51.631 26.869q3.331-.5 6.657-1.024a14.843 14.843 0 0 1-.112-3.62l-2.78.179v-.178l-.3.089-.3-.089v.178l-2.78-.179a12.571 12.571 0 0 1-.385 4.644Z" fill="#cf9879"/></g><g data-name="Group 95"><path data-name="Path 214" d="M63.301 29.002a11.79 11.79 0 0 1-6.76 2.756l-1.475 5.308-.78-5.266a11.978 11.978 0 0 1-7.312-2.8c-3.855 1.235-9.485 3.913-8.645 11.954h33.617c.84-8.039-4.789-10.717-8.645-11.952Z" fill="#5d8584"/><g data-name="Group 94" fill="#78a8a5"><path data-name="Path 215" d="m54.487 33.15-.2-1.35a11.978 11.978 0 0 1-7.312-2.8 19.59 19.59 0 0 0-2.045.775c1.366 1.86 5.088 3.228 9.557 3.375Z"/><path data-name="Path 216" d="M65.573 29.88a19.1 19.1 0 0 0-2.272-.878 11.79 11.79 0 0 1-6.76 2.756l-.386 1.39c4.359-.155 7.998-1.471 9.418-3.268Z"/></g><path data-name="Path 217" d="M54.732 38.349a.613.613 0 1 0 .613-.613.613.613 0 0 0-.613.613Z" fill="#78a8a5"/></g></g><g data-name="Group 106"><g data-name="Group 99"><g data-name="Group 97"><path data-name="Path 218" d="M49.663 15.062c-.547-1.7-1.842-1.3-1.963-1.263-.127.015-1.466.214-1.234 1.981s1.264 2.742 2.232 2.459c.995-.158 1.512-1.47.965-3.177Z" fill="#f6ab81"/><path data-name="Path 219" d="M60.584 15.062c.547-1.7 1.842-1.3 1.963-1.263.127.015 1.466.214 1.234 1.981s-1.264 2.742-2.232 2.459c-.995-.158-1.516-1.47-.965-3.177Z" fill="#f6ab81"/><path data-name="Path 220" d="M48.337 12.49c.678-7.438 6.333-7.022 6.866-6.966.533-.056 6.188-.473 6.866 6.966.682 7.483-2.651 12.37-6.866 12.1-4.215.27-7.549-4.617-6.866-12.1Z" fill="#ffb287"/></g><g data-name="Group 98"><path data-name="Path 221" d="M48.102 13.904s-.365 9.775 5.4 10.869 9.337-3.72 8.827-11.38l-.73-.073s-.474 7.732-2.225 7.805.839-2.407-2.517-2.553-5.016-1.264-5.289 1.568c-.182 1.9-2.517-1.349-2.808-6.383s-.658.147-.658.147Z" fill="#965450"/><path data-name="Path 222" d="M49.034 16.005a17.428 17.428 0 0 1-.276-2.246c-.292-5.033-.657.146-.657.146a19.778 19.778 0 0 0 .113 2.523c.277-.139.548-.282.82-.423Z" fill="#76413b"/><path data-name="Path 223" d="M62.333 16.07a20.164 20.164 0 0 0-.007-2.676l-.73-.073s-.065 1.059-.235 2.4q.483.169.972.349Z" fill="#76413b"/></g></g><g data-name="Group 100"><path data-name="Path 224" d="m56.177 12.421.462 4.17-1.293.887" fill="none" stroke="#cc887f" stroke-miterlimit="10" stroke-width=".5"/><path data-name="Path 229" d="M58.085 19.756c-1.346 1.637-3.627 1.546-5.354.087" fill="#fff"/><path data-name="Path 15324" d="m52.604 11.656-.1-.045a2.323 2.323 0 0 0-2.042.18c-.152.1-.739.586-.565.777a7.643 7.643 0 0 0 .815-.349 2.179 2.179 0 0 1 .76-.1 2.077 2.077 0 0 1 .7.146c.022.011.043.011.054.023.489.248.445.405.771.169.53-.283.009-.587-.393-.801Z" fill="#261d1b" fill-rule="evenodd"/><path data-name="Path 15325" d="m58.101 11.656.1-.045a2.322 2.322 0 0 1 2.042.18c.152.1.739.586.565.777a7.643 7.643 0 0 1-.815-.349 2.179 2.179 0 0 0-.76-.1 2.078 2.078 0 0 0-.7.146c-.022.011-.043.011-.054.023-.489.248-.445.405-.771.169-.531-.283-.009-.587.393-.801Z" fill="#261d1b" fill-rule="evenodd"/><path data-name="Path 15326" d="M52.174 14.933a.747.747 0 0 0-.776-.751.834.834 0 0 0-.607.953.748.748 0 0 0 .776.751.833.833 0 0 0 .607-.953Z" fill="#0e1a30"/><path data-name="Path 15327" d="M59.911 14.933a.747.747 0 0 0-.776-.751.834.834 0 0 0-.607.953.748.748 0 0 0 .776.751.833.833 0 0 0 .607-.953Z" fill="#0e1a30"/></g><g data-name="Group 105"><g data-name="Group 101"><path data-name="Path 230" d="M55.303 6.61s-4.085-.729-4.742 1.824.292 5.982-2.7 5.471c0 0-2.169.438-.783 3.866 0 0-4.1-3.939-1.7-6.784 1.964-2.321 1.167-7.368 5.982-8.17s3.943 2.844 3.943 3.793Z" fill="#76413b"/></g><g data-name="Group 102"><path data-name="Path 231" d="M55.303 6.61s-4.085-.729-4.742 1.824.292 5.982-2.7 5.471c0 0-2.169.438-.783 3.866 0 0-4.1-3.939-1.7-6.784 1.964-2.321 1.167-7.368 5.982-8.17s3.943 2.844 3.943 3.793Z" fill="#965450"/></g><g data-name="Group 103"><path data-name="Path 232" d="M54.931 6.61s4.085-.729 4.742 1.824-.292 5.982 2.7 5.471c0 0 2.169.438.783 3.866 0 0 4.1-3.939 1.7-6.784-1.964-2.321-1.167-7.368-5.982-8.17s-3.943 2.844-3.943 3.793Z" fill="#965450"/></g><g data-name="Group 104"><path data-name="Path 233" d="M54.875 6.304s4.256-.164 4.684 2.437-.82 5.933 2.2 5.688c0 0 1.308.116 1.29 1.14" fill="none" stroke="#965450" stroke-miterlimit="10" stroke-width=".5"/></g></g></g></g><g data-name="Group 4100" fill="#fff"><path data-name="Path 312" d="M10.738 16.405a.679.679 0 0 0-.282-.58 2.71 2.71 0 0 0-.983-.356 4.606 4.606 0 0 1-1.112-.36 1.568 1.568 0 0 1-.609-.5 1.187 1.187 0 0 1-.2-.689 1.4 1.4 0 0 1 .561-1.121 2.191 2.191 0 0 1 1.434-.459 2.256 2.256 0 0 1 1.488.474 1.5 1.5 0 0 1 .571 1.211h-.928a.834.834 0 0 0-.321-.654 1.208 1.208 0 0 0-.81-.274 1.256 1.256 0 0 0-.788.22.689.689 0 0 0-.285.573.56.56 0 0 0 .265.5 3.239 3.239 0 0 0 .954.325 4.88 4.88 0 0 1 1.119.369 1.623 1.623 0 0 1 .636.515 1.265 1.265 0 0 1 .207.736 1.38 1.38 0 0 1-.578 1.159 2.423 2.423 0 0 1-1.5.436 2.716 2.716 0 0 1-1.146-.229 1.862 1.862 0 0 1-.781-.641 1.546 1.546 0 0 1-.282-.89h.922a.955.955 0 0 0 .372.736 1.436 1.436 0 0 0 .915.271 1.5 1.5 0 0 0 .84-.211.654.654 0 0 0 .321-.561Z"/><path data-name="Path 313" d="M15.099 17.936a2.36 2.36 0 0 1-1.785-.72 2.678 2.678 0 0 1-.688-1.927v-.17a3.228 3.228 0 0 1 .307-1.434 2.381 2.381 0 0 1 .857-.986 2.15 2.15 0 0 1 1.194-.357 2.021 2.021 0 0 1 1.636.693 3 3 0 0 1 .583 1.985v.383h-3.655a1.918 1.918 0 0 0 .466 1.289 1.464 1.464 0 0 0 1.134.491 1.594 1.594 0 0 0 .827-.2 2.047 2.047 0 0 0 .593-.528l.564.439a2.266 2.266 0 0 1-2.033 1.042Zm-.115-4.837a1.231 1.231 0 0 0-.937.407 1.975 1.975 0 0 0-.468 1.139h2.7v-.07a1.765 1.765 0 0 0-.38-1.09 1.159 1.159 0 0 0-.913-.386Z"/><path data-name="Path 314" d="m19.144 12.442.03.678a1.962 1.962 0 0 1 1.615-.778q1.71 0 1.725 1.93v3.565h-.922V14.27a1.239 1.239 0 0 0-.267-.862 1.062 1.062 0 0 0-.815-.28 1.33 1.33 0 0 0-.788.239 1.607 1.607 0 0 0-.528.628v3.845h-.922v-5.4Z"/><path data-name="Path 315" d="M25.158 11.135v1.309h1.007v.713h-1.007v3.35a.743.743 0 0 0 .135.486.565.565 0 0 0 .459.162 2.168 2.168 0 0 0 .438-.059v.744a2.722 2.722 0 0 1-.707.1 1.15 1.15 0 0 1-.933-.373 1.611 1.611 0 0 1-.314-1.063v-3.345h-.983v-.715h.983v-1.307Z"/></g></g></g></svg>