<svg width="17" height="23" viewBox="0 0 17 23" fill="none" xmlns="http://www.w3.org/2000/svg">
<g id="Link &#226;&#134;&#146; SVG" clip-path="url(#clip0_1_2817)">
<path id="phone" d="M11.4578 8.01456C14.4237 9.72952 9.9 18.2184 6.6535 16.3435L3.64667 21.5594C5.01777 22.3509 6.17318 22.8496 7.76098 21.9422C12.1689 19.4207 17.0201 11.0148 16.8823 6.00177C16.8354 4.25982 15.8078 3.57623 14.4687 2.8037C13.8905 3.7981 12.035 7.01516 11.4578 8.01456ZM10.2156 7.87364C10.3703 7.96277 10.554 7.98683 10.7264 7.94055C10.8989 7.89427 11.0459 7.78143 11.1353 7.62679L13.9704 2.70975C14.0594 2.55491 14.0835 2.37105 14.0372 2.19849C13.991 2.02593 13.8782 1.87877 13.7237 1.78931L12.2318 0.927825C12.0771 0.838701 11.8933 0.81464 11.7209 0.860918C11.5485 0.907196 11.4014 1.02004 11.3121 1.17468L8.47498 6.09172C8.43083 6.16813 8.40217 6.25251 8.39067 6.34002C8.37917 6.42754 8.38505 6.51646 8.40797 6.6017C8.43088 6.68693 8.47039 6.7668 8.52422 6.83672C8.57804 6.90665 8.64513 6.96525 8.72164 7.00917L10.2156 7.87364ZM2.46531 21.3076C2.62003 21.3967 2.80376 21.4207 2.97618 21.3745C3.14861 21.3282 3.29565 21.2153 3.38504 21.0607L6.2201 16.1437C6.30915 15.9888 6.3332 15.805 6.28696 15.6324C6.24072 15.4598 6.12797 15.3127 5.97345 15.2232L4.48151 14.3617C4.32679 14.2726 4.14308 14.2485 3.97065 14.2948C3.79823 14.3411 3.65119 14.4539 3.5618 14.6086L0.724727 19.5256C0.635673 19.6805 0.611622 19.8643 0.657864 20.0369C0.704106 20.2095 0.816857 20.3566 0.971379 20.4461L2.46531 21.3076Z" fill="#FFB115"/>
</g>
<defs>
<clipPath id="clip0_1_2817">
<rect width="16.25" height="21.59" fill="white" transform="translate(0.632599 0.838867)"/>
</clipPath>
</defs>
</svg>
