<svg width="24" height="27" viewBox="0 0 24 27" fill="none" xmlns="http://www.w3.org/2000/svg">
<g id="SVG" clip-path="url(#clip0_1_2400)">
<g id="Group 1467">
<path id="brand-android-robot" d="M12.0854 9.22621H19.242C19.4418 9.22621 19.4418 9.22621 19.4418 9.42615V19.807C19.4463 20.0438 19.4041 20.279 19.3175 20.4994C19.2309 20.7198 19.1018 20.9209 18.9374 21.0912C18.773 21.2615 18.5766 21.3977 18.3595 21.492C18.1424 21.5862 17.9088 21.6367 17.6722 21.6405C17.3274 21.6515 16.9807 21.6405 16.6339 21.6405C16.4511 21.6405 16.4481 21.6405 16.4481 21.8204C16.4481 22.9387 16.4497 24.0577 16.4531 25.1774C16.4608 25.5881 16.3144 25.9868 16.0427 26.2948C15.7711 26.6029 15.3939 26.7979 14.9857 26.8415C14.5774 26.885 14.1676 26.7739 13.8371 26.5301C13.5067 26.2863 13.2796 25.9274 13.2006 25.5243C13.1789 25.4046 13.1692 25.283 13.1716 25.1614C13.1716 24.0457 13.1716 22.9311 13.1716 21.8174C13.1716 21.6395 13.1716 21.6395 12.9967 21.6395C12.3712 21.6395 11.7467 21.6395 11.1241 21.6395C11.0052 21.6395 10.9732 21.6715 10.9732 21.7904C10.9786 22.9274 10.9802 24.0641 10.9782 25.2004C10.9791 25.5285 10.8817 25.8493 10.6986 26.1214C10.5155 26.3936 10.2551 26.6046 9.95094 26.7273C9.6468 26.8499 9.3129 26.8786 8.99231 26.8096C8.67173 26.7406 8.37918 26.577 8.15239 26.34C7.85629 26.0371 7.69242 25.6291 7.69674 25.2054C7.69674 24.0684 7.69674 22.9317 7.69674 21.7954C7.69674 21.6735 7.66476 21.6395 7.54086 21.6395C7.11448 21.6557 6.68754 21.6493 6.26183 21.6205C5.84156 21.5649 5.45505 21.3607 5.17224 21.0448C4.88943 20.7288 4.729 20.322 4.72 19.898C4.72 18.8853 4.72 17.8756 4.72 16.8639V9.40916C4.72 9.22621 4.72 9.22621 4.90286 9.22621H12.0834H12.0854ZM12.0614 8.66438C9.65925 8.66438 7.25607 8.66438 4.8519 8.66438C4.74598 8.66438 4.70102 8.64339 4.70402 8.52443C4.72486 7.77322 4.8774 7.03151 5.15467 6.33309C5.55341 5.34079 6.18386 4.45845 6.99328 3.75986C7.40863 3.39418 7.8666 3.08 8.35724 2.82415C8.44717 2.77616 8.45716 2.73917 8.4052 2.6522C8.06845 2.05238 7.73771 1.44156 7.40596 0.834747L7.33601 0.718782C7.31811 0.691472 7.30606 0.660741 7.30065 0.628533C7.29523 0.596325 7.29655 0.563342 7.30453 0.531673C7.31252 0.500003 7.32699 0.470338 7.34703 0.444554C7.36707 0.41877 7.39224 0.397429 7.42095 0.381883C7.45001 0.36655 7.48198 0.357542 7.51476 0.355452C7.54755 0.353362 7.5804 0.358237 7.61117 0.369756C7.64194 0.381276 7.66993 0.399179 7.69328 0.42229C7.71664 0.4454 7.73485 0.473195 7.7467 0.503847L8.07745 1.10367C8.31627 1.54053 8.55908 1.9754 8.78991 2.41827C8.85386 2.54023 8.91182 2.55623 9.03872 2.50324C10.012 2.10088 11.0555 1.89607 12.1086 1.9007C13.1617 1.90533 14.2034 2.11932 15.1731 2.53023C15.273 2.57022 15.295 2.53523 15.3349 2.46126C15.6797 1.82545 16.0294 1.19164 16.3761 0.561829C16.4181 0.481853 16.4561 0.394879 16.554 0.370887C16.5973 0.356431 16.644 0.355275 16.688 0.367568C16.732 0.379861 16.7713 0.40504 16.8008 0.439866C16.8342 0.477105 16.8544 0.524352 16.8582 0.574254C16.862 0.624156 16.8492 0.673913 16.8218 0.715783C16.6339 1.05768 16.4458 1.40024 16.2572 1.74347C16.0904 2.04338 15.9315 2.35329 15.7576 2.6522C15.6997 2.75217 15.7156 2.79016 15.8136 2.84314C16.9572 3.4465 17.9109 4.35567 18.5685 5.46935C19.0954 6.35372 19.3932 7.35575 19.4348 8.38447C19.4478 8.67638 19.4458 8.67638 19.143 8.67638C16.7802 8.66838 14.4203 8.66572 12.0634 8.66838L12.0614 8.66438ZM8.72896 4.76556C8.64688 4.76395 8.56531 4.77884 8.48908 4.80934C8.41286 4.83984 8.34353 4.88534 8.2852 4.94314C8.22687 5.00094 8.18072 5.06986 8.1495 5.14582C8.11828 5.22178 8.10262 5.30324 8.10343 5.38537C8.10304 5.50827 8.13905 5.62853 8.20693 5.73096C8.27481 5.83339 8.37151 5.9134 8.48481 5.96088C8.59811 6.00837 8.72293 6.0212 8.84352 5.99775C8.9641 5.97431 9.07504 5.91564 9.16232 5.82916C9.2496 5.74268 9.3093 5.63226 9.3339 5.51185C9.35849 5.39144 9.34687 5.26644 9.3005 5.15264C9.25413 5.03883 9.17509 4.94133 9.07337 4.87243C8.97164 4.80354 8.8518 4.76635 8.72896 4.76556ZM14.8053 5.36538C14.8029 5.44627 14.8166 5.52684 14.8455 5.60243C14.8744 5.67802 14.918 5.74714 14.9737 5.80579C15.0294 5.86443 15.0963 5.91146 15.1703 5.94414C15.2443 5.97682 15.324 5.99451 15.4049 5.99619C15.5658 5.99669 15.7205 5.93433 15.8362 5.8224C15.9518 5.71046 16.0192 5.55779 16.024 5.39688C16.0289 5.23597 15.9707 5.07954 15.862 4.96087C15.7532 4.84221 15.6025 4.7707 15.4418 4.76156C15.36 4.75751 15.2781 4.7701 15.2012 4.79859C15.1243 4.82708 15.054 4.87086 14.9945 4.9273C14.935 4.98374 14.8876 5.05165 14.8551 5.12695C14.8226 5.20225 14.8056 5.28336 14.8053 5.36538ZM4.13944 13.9908V17.3897C4.14413 17.7866 4.00466 18.1717 3.74694 18.4735C3.48923 18.7752 3.13079 18.9731 2.73822 19.0304C2.34565 19.0877 1.94563 19.0005 1.61249 18.785C1.27935 18.5695 1.03573 18.2403 0.926891 17.8586C0.880447 17.6941 0.858888 17.5236 0.862936 17.3528V10.6158C0.855728 10.3991 0.891574 10.183 0.968394 9.98024C1.04521 9.77746 1.16148 9.59193 1.31046 9.43441C1.45945 9.27689 1.63819 9.15051 1.83634 9.06258C2.03449 8.97465 2.2481 8.92692 2.46481 8.92216C2.68152 8.9174 2.89703 8.9557 3.09884 9.03485C3.30065 9.11399 3.48477 9.2324 3.64052 9.38323C3.79627 9.53405 3.92056 9.71429 4.00621 9.91351C4.09185 10.1127 4.13714 10.327 4.13944 10.5438C4.13944 11.6935 4.13944 12.8431 4.13944 13.9938V13.9908ZM23.2769 13.9828C23.2769 15.1564 23.2899 16.3281 23.2719 17.5017C23.2526 17.9353 23.0618 18.3435 22.7417 18.6365C22.4215 18.9294 21.9981 19.0831 21.5647 19.0637C21.1313 19.0444 20.7233 18.8536 20.4305 18.5333C20.1377 18.2129 19.984 17.7894 20.0034 17.3558V10.5578C19.9988 10.3392 20.0379 10.1218 20.1185 9.91857C20.1991 9.71531 20.3196 9.53023 20.4728 9.37424C20.6259 9.21824 20.8088 9.09448 21.0105 9.01024C21.2122 8.92599 21.4287 8.88297 21.6473 8.88371C21.8658 8.88444 22.0821 8.92891 22.2832 9.01451C22.4843 9.1001 22.6663 9.22509 22.8185 9.38211C22.9706 9.53913 23.0898 9.72501 23.169 9.92881C23.2483 10.1326 23.286 10.3502 23.2799 10.5688C23.2799 11.7055 23.2799 12.8421 23.2799 13.9788L23.2769 13.9828Z" fill="#C9C9C9"/>
<path id="brand-android-robot_2" d="M11.3769 9.22621H18.5334C18.7333 9.22621 18.7333 9.22621 18.7333 9.42615V19.807C18.7378 20.0438 18.6955 20.279 18.609 20.4994C18.5224 20.7198 18.3932 20.9209 18.2288 21.0912C18.0644 21.2615 17.8681 21.3977 17.6509 21.492C17.4338 21.5862 17.2003 21.6367 16.9636 21.6405C16.6189 21.6515 16.2722 21.6405 15.9254 21.6405C15.7426 21.6405 15.7396 21.6405 15.7396 21.8204C15.7396 22.9387 15.7412 24.0577 15.7446 25.1774C15.7523 25.5881 15.6058 25.9868 15.3342 26.2948C15.0626 26.6029 14.6854 26.7979 14.2771 26.8415C13.8688 26.885 13.4591 26.7739 13.1286 26.5301C12.7982 26.2863 12.571 25.9274 12.492 25.5243C12.4703 25.4046 12.4606 25.283 12.4631 25.1614C12.4631 24.0457 12.4631 22.9311 12.4631 21.8174C12.4631 21.6395 12.463 21.6395 12.2882 21.6395C11.6627 21.6395 11.0381 21.6395 10.4156 21.6395C10.2967 21.6395 10.2647 21.6715 10.2647 21.7904C10.27 22.9274 10.2717 24.0641 10.2697 25.2004C10.2706 25.5285 10.1732 25.8493 9.99009 26.1214C9.80697 26.3936 9.54655 26.6046 9.24241 26.7273C8.93827 26.8499 8.60437 26.8786 8.28379 26.8096C7.96321 26.7406 7.67065 26.577 7.44387 26.34C7.14777 26.0371 6.98389 25.6291 6.98821 25.2054C6.98821 24.0684 6.98821 22.9317 6.98821 21.7954C6.98821 21.6735 6.95624 21.6395 6.83233 21.6395C6.40595 21.6557 5.97902 21.6493 5.5533 21.6205C5.13303 21.5649 4.74652 21.3607 4.46371 21.0448C4.1809 20.7288 4.02048 20.322 4.01148 19.898C4.01148 18.8853 4.01148 17.8756 4.01148 16.8639V9.40916C4.01148 9.22621 4.01148 9.22621 4.19434 9.22621H11.3749H11.3769ZM11.3529 8.66438C8.95072 8.66438 6.54755 8.66438 4.14337 8.66438C4.03745 8.66438 3.99249 8.64339 3.99549 8.52443C4.01634 7.77322 4.16887 7.03151 4.44615 6.33309C4.84488 5.34079 5.47533 4.45845 6.28475 3.75986C6.70011 3.39418 7.15807 3.08 7.64871 2.82415C7.73864 2.77616 7.74863 2.73917 7.69667 2.6522C7.35993 2.05238 7.02918 1.44156 6.69743 0.834747L6.62748 0.718782C6.60958 0.691472 6.59754 0.660741 6.59212 0.628533C6.5867 0.596325 6.58802 0.563342 6.59601 0.531673C6.60399 0.500003 6.61846 0.470338 6.6385 0.444554C6.65854 0.41877 6.68372 0.397429 6.71243 0.381883C6.74148 0.36655 6.77345 0.357542 6.80624 0.355452C6.83902 0.353362 6.87188 0.358237 6.90264 0.369756C6.93341 0.381276 6.9614 0.399179 6.98476 0.42229C7.00812 0.4454 7.02632 0.473195 7.03818 0.503847L7.36893 1.10367C7.60774 1.54053 7.85056 1.9754 8.08138 2.41827C8.14533 2.54023 8.20329 2.55623 8.33019 2.50324C9.30347 2.10088 10.347 1.89607 11.4001 1.9007C12.4532 1.90533 13.4948 2.11932 14.4645 2.53023C14.5645 2.57022 14.5864 2.53523 14.6264 2.46126C14.9711 1.82545 15.3209 1.19164 15.6676 0.561829C15.7096 0.481853 15.7476 0.394879 15.8455 0.370887C15.8888 0.356431 15.9355 0.355275 15.9794 0.367568C16.0234 0.379861 16.0627 0.40504 16.0923 0.439866C16.1257 0.477105 16.1459 0.524352 16.1497 0.574254C16.1535 0.624156 16.1407 0.673913 16.1133 0.715783C15.9254 1.05768 15.7372 1.40024 15.5487 1.74347C15.3818 2.04338 15.223 2.35329 15.0491 2.6522C14.9911 2.75217 15.0071 2.79016 15.105 2.84314C16.2487 3.4465 17.2024 4.35567 17.86 5.46935C18.3869 6.35372 18.6846 7.35575 18.7263 8.38447C18.7393 8.67638 18.7373 8.67638 18.4345 8.67638C16.0716 8.66838 13.7118 8.66572 11.3549 8.66838L11.3529 8.66438ZM8.02043 4.76556C7.93835 4.76395 7.85678 4.77884 7.78055 4.80934C7.70433 4.83984 7.635 4.88534 7.57667 4.94314C7.51834 5.00094 7.4722 5.06986 7.44098 5.14582C7.40975 5.22178 7.39409 5.30324 7.39491 5.38537C7.39451 5.50827 7.43053 5.62853 7.4984 5.73096C7.56628 5.83339 7.66298 5.9134 7.77629 5.96088C7.88959 6.00837 8.01441 6.0212 8.13499 5.99775C8.25558 5.97431 8.36652 5.91564 8.45379 5.82916C8.54107 5.74268 8.60078 5.63226 8.62537 5.51185C8.64996 5.39144 8.63834 5.26644 8.59197 5.15264C8.5456 5.03883 8.46657 4.94133 8.36484 4.87243C8.26312 4.80354 8.14327 4.76635 8.02043 4.76556ZM14.0968 5.36538C14.0944 5.44627 14.1081 5.52684 14.137 5.60243C14.1659 5.67802 14.2094 5.74714 14.2652 5.80579C14.3209 5.86443 14.3877 5.91146 14.4617 5.94414C14.5357 5.97682 14.6155 5.99451 14.6964 5.99619C14.8573 5.99669 15.012 5.93433 15.1276 5.8224C15.2433 5.71046 15.3107 5.55779 15.3155 5.39688C15.3203 5.23597 15.2622 5.07954 15.1535 4.96087C15.0447 4.84221 14.894 4.7707 14.7333 4.76156C14.6514 4.75751 14.5696 4.7701 14.4927 4.79859C14.4158 4.82708 14.3455 4.87086 14.286 4.9273C14.2265 4.98374 14.1791 5.05165 14.1466 5.12695C14.114 5.20225 14.0971 5.28336 14.0968 5.36538ZM3.43092 13.9908V17.3897C3.4356 17.7866 3.29613 18.1717 3.03842 18.4735C2.7807 18.7752 2.42226 18.9731 2.02969 19.0304C1.63712 19.0877 1.2371 19.0005 0.903962 18.785C0.57082 18.5695 0.327204 18.2403 0.218364 17.8586C0.171921 17.6941 0.150361 17.5236 0.15441 17.3528V10.6158C0.147202 10.3991 0.183047 10.183 0.259867 9.98024C0.336687 9.77746 0.452952 9.59193 0.601938 9.43441C0.750923 9.27689 0.929667 9.15051 1.12781 9.06258C1.32596 8.97465 1.53957 8.92692 1.75628 8.92216C1.97299 8.9174 2.1885 8.9557 2.39031 9.03485C2.59212 9.11399 2.77624 9.2324 2.93199 9.38323C3.08774 9.53405 3.21204 9.71429 3.29768 9.91351C3.38332 10.1127 3.42861 10.327 3.43092 10.5438C3.43092 11.6935 3.43092 12.8431 3.43092 13.9938V13.9908ZM22.5684 13.9828C22.5684 15.1564 22.5814 16.3281 22.5634 17.5017C22.544 17.9353 22.3533 18.3435 22.0331 18.6365C21.713 18.9294 21.2896 19.0831 20.8562 19.0637C20.4227 19.0444 20.0147 18.8536 19.7219 18.5333C19.4291 18.2129 19.2755 17.7894 19.2949 17.3558V10.5578C19.2902 10.3392 19.3294 10.1218 19.41 9.91857C19.4906 9.71531 19.6111 9.53023 19.7642 9.37424C19.9174 9.21824 20.1002 9.09448 20.3019 9.01024C20.5037 8.92599 20.7202 8.88297 20.9387 8.88371C21.1573 8.88444 21.3735 8.92891 21.5747 9.01451C21.7758 9.1001 21.9578 9.22509 22.1099 9.38211C22.2621 9.53913 22.3813 9.72501 22.4605 9.92881C22.5398 10.1326 22.5774 10.3502 22.5714 10.5688C22.5714 11.7055 22.5714 12.8421 22.5714 13.9788L22.5684 13.9828Z" fill="white"/>
</g>
</g>
<defs>
<clipPath id="clip0_1_2400">
<rect width="23.13" height="26.5" fill="white" transform="translate(0.152649 0.358887)"/>
</clipPath>
</defs>
</svg>
