<svg width="25" height="29" viewBox="0 0 25 29" fill="none" xmlns="http://www.w3.org/2000/svg">
<g id="SVG" clip-path="url(#clip0_1_2413)">
<g id="Group 1468">
<path id="brand-apple" d="M14.1648 2.59736C15.2249 1.37911 16.7112 0.612578 18.3189 0.455078C18.4439 2.09624 17.9156 3.72037 16.8489 4.97433C16.3529 5.60712 15.7175 6.11707 14.9922 6.46454C14.2669 6.81201 13.4712 6.98764 12.6669 6.97779C12.6116 6.18469 12.7157 5.38856 12.9729 4.63627C13.2302 3.88397 13.6354 3.19073 14.1648 2.59736ZM22.2351 25.2396C21.0569 26.9634 19.8368 28.6782 17.9202 28.7152C16.0285 28.7521 15.422 27.5916 13.2655 27.5916C11.109 27.5916 10.4285 28.6782 8.64477 28.7521C6.79009 28.823 5.38008 26.8875 4.19393 25.1727C1.76965 21.6611 -0.0790374 15.2453 2.4072 10.9158C2.98787 9.86963 3.83105 8.99258 4.85377 8.37092C5.87649 7.74926 7.04352 7.4044 8.24006 7.37029C10.0638 7.33633 11.7825 8.60172 12.8947 8.60172C14.007 8.60172 16.1005 7.08166 18.2909 7.30337C19.3087 7.33954 20.3042 7.61139 21.199 8.09753C22.0938 8.58367 22.8634 9.2708 23.4472 10.1048C22.5252 10.6734 21.7624 11.4663 21.2302 12.4095C20.6979 13.3526 20.4134 14.4152 20.4034 15.498C20.4063 16.7169 20.7664 17.9084 21.4391 18.9252C22.1117 19.942 23.0676 20.7396 24.1887 21.2197C23.73 22.6466 23.0712 24.0014 22.2321 25.2436L22.2351 25.2396Z" fill="black"/>
<path id="brand-apple_2" d="M13.2154 2.59736C14.2755 1.37911 15.7618 0.612578 17.3695 0.455078C17.4945 2.09624 16.9662 3.72037 15.8995 4.97433C15.4035 5.60712 14.7681 6.11707 14.0428 6.46454C13.3175 6.81201 12.5218 6.98764 11.7175 6.97779C11.6622 6.18469 11.7663 5.38856 12.0235 4.63627C12.2808 3.88397 12.686 3.19073 13.2154 2.59736ZM21.2857 25.2396C20.1075 26.9634 18.8874 28.6782 16.9708 28.7152C15.0791 28.7521 14.4725 27.5916 12.3161 27.5916C10.1596 27.5916 9.4791 28.6782 7.69537 28.7521C5.84068 28.823 4.43068 26.8875 3.24453 25.1727C0.820249 21.6611 -1.02844 15.2453 1.45779 10.9158C2.03847 9.86963 2.88164 8.99258 3.90437 8.37092C4.92709 7.74926 6.09412 7.4044 7.29065 7.37029C9.11436 7.33633 10.8331 8.60172 11.9453 8.60172C13.0576 8.60172 15.1511 7.08166 17.3415 7.30337C18.3593 7.33954 19.3548 7.61139 20.2496 8.09753C21.1444 8.58367 21.914 9.2708 22.4978 10.1048C21.5758 10.6734 20.813 11.4663 20.2808 12.4095C19.7485 13.3526 19.464 14.4152 19.454 15.498C19.4569 16.7169 19.817 17.9084 20.4896 18.9252C21.1623 19.942 22.1182 20.7396 23.2393 21.2197C22.7806 22.6466 22.1218 24.0014 21.2827 25.2436L21.2857 25.2396Z" fill="#464749"/>
</g>
</g>
<defs>
<clipPath id="clip0_1_2413">
<rect width="23.92" height="28.31" fill="white" transform="translate(0.272614 0.44873)"/>
</clipPath>
</defs>
</svg>
