<svg width="55" height="56" viewBox="0 0 55 56" fill="none" xmlns="http://www.w3.org/2000/svg">
<g id="SVG" clip-path="url(#clip0_2_3847)">
<g id="Group 4107">
<g id="Rectangle 54">
<path id="Vector" d="M45.0822 0.930634H9.91825C4.93863 0.930634 0.901855 4.96741 0.901855 9.94703V45.111C0.901855 50.0906 4.93863 54.1274 9.91825 54.1274H45.0822C50.0618 54.1274 54.0986 50.0906 54.0986 45.111V9.94703C54.0986 4.96741 50.0618 0.930634 45.0822 0.930634Z" stroke="#FFB115" stroke-width="1.80328"/>
</g>
<g id="Icon feather-user">
<g id="Group 4109">
<path id="Path 14876" d="M18.9018 27.529C17.8946 27.53 16.9188 27.1779 16.1445 26.5337C15.3701 25.8896 14.8462 24.9943 14.6639 24.0037C14.4816 23.0131 14.6524 21.9899 15.1467 21.1123C15.641 20.2346 16.4274 19.5581 17.369 19.2005" stroke="#FFB115" stroke-width="1.80328" stroke-linecap="round" stroke-linejoin="round"/>
<path id="Path 14878" d="M19.7621 37.6823H14.8689C12.3398 37.6823 10.9179 34.9774 13.0233 33.5754C13.6076 33.1861 14.2252 32.8494 14.8689 32.5691" stroke="#FFB115" stroke-width="1.80328" stroke-linecap="round"/>
<g id="Group 3366">
<path id="Path 14870" d="M36.0918 27.529C37.099 27.53 38.0748 27.1779 38.8491 26.5337C39.6235 25.8896 40.1474 24.9943 40.3297 24.0037C40.512 23.0131 40.3412 21.9899 39.8469 21.1123C39.3526 20.2346 38.5662 19.5581 37.6246 19.2005" stroke="#FFB115" stroke-width="1.80328" stroke-linecap="round" stroke-linejoin="round"/>
<path id="Path 14874" d="M35.8501 37.6814H40.1248C42.6539 37.6814 44.0758 34.9765 41.9704 33.5745C41.3861 33.1852 40.7685 32.8485 40.1248 32.5682" stroke="#FFB115" stroke-width="1.80328" stroke-linecap="round"/>
<path id="Path 14872" d="M27.8005 26.6337C28.7896 26.6333 29.7564 26.3397 30.5787 25.79C31.4011 25.2403 32.0419 24.4591 32.4204 23.5452C32.7988 22.6314 32.8978 21.6258 32.7049 20.6557C32.512 19.6855 32.0358 18.7944 31.3365 18.0948C30.6372 17.3953 29.7462 16.9188 28.7761 16.7255C27.8061 16.5322 26.8005 16.6309 25.8865 17.009C24.9725 17.3871 24.1911 18.0277 23.6411 18.8498C23.091 19.6719 22.7971 20.6386 22.7964 21.6277C22.7959 22.2851 22.925 22.9361 23.1763 23.5436C23.4276 24.151 23.7961 24.703 24.2609 25.1679C24.7256 25.6328 25.2775 26.0015 25.8848 26.253C26.4922 26.5046 27.1431 26.6339 27.8005 26.6337Z" stroke="#FFB115" stroke-width="1.80328" stroke-linecap="round" stroke-linejoin="round"/>
<path id="Path 14873" d="M35.4634 33.6592C37.9104 35.2894 36.2577 38.4325 33.3184 38.4325H22.2778C19.3375 38.4325 17.6857 35.2894 20.1328 33.6592C22.4042 32.1511 25.0702 31.3466 27.7967 31.3466C30.5233 31.3466 33.1892 32.1511 35.4606 33.6592H35.4634Z" stroke="#FFB115" stroke-width="1.80328"/>
</g>
</g>
</g>
</g>
</g>
<defs>
<clipPath id="clip0_2_3847">
<rect width="55" height="55" fill="white" transform="translate(0 0.0289917)"/>
</clipPath>
</defs>
</svg>
