<svg width="13" height="13" viewBox="0 0 13 13" fill="none" xmlns="http://www.w3.org/2000/svg">
<g id="SVG" clip-path="url(#clip0_2_3871)">
<g id="Group 4110">
<path id="Path 14730" d="M6.88981 12.1718C7.98015 12.1718 9.046 11.8485 9.95259 11.2427C10.8592 10.637 11.5658 9.77596 11.983 8.76862C12.4003 7.76128 12.5094 6.65283 12.2967 5.58344C12.084 4.51405 11.559 3.53175 10.788 2.76077C10.017 1.98978 9.0347 1.46473 7.96531 1.25202C6.89592 1.0393 5.78747 1.14848 4.78013 1.56573C3.77279 1.98299 2.9118 2.68958 2.30604 3.59617C1.70028 4.50275 1.37695 5.5686 1.37695 6.65894C1.37695 8.12104 1.95777 9.52326 2.99163 10.5571C4.02549 11.591 5.42771 12.1718 6.88981 12.1718Z" stroke="#FFAE44" stroke-width="1.19418" stroke-linecap="round" stroke-linejoin="round"/>
<path id="Path 14731" d="M4.63834 6.97815L6.06043 8.79221C6.71513 7.13485 7.84837 5.70988 9.31577 4.69884" stroke="#FFAE44" stroke-width="1.1948" stroke-linecap="round" stroke-linejoin="round"/>
</g>
</g>
<defs>
<clipPath id="clip0_2_3871">
<rect width="12.22" height="12.22" fill="white" transform="translate(0.779785 0.549011)"/>
</clipPath>
</defs>
</svg>
