<svg width="24" height="19" viewBox="0 0 24 19" fill="none" xmlns="http://www.w3.org/2000/svg">
<g id="List &#226;&#134;&#146; Item &#226;&#134;&#146; Link &#226;&#134;&#146; SVG" clip-path="url(#clip0_2_4068)">
<path id="Icon awesome-twitter" d="M20.7993 4.83242C20.8133 5.03233 20.8133 5.23225 20.8133 5.43217C20.8249 7.15005 20.4952 8.8531 19.8435 10.4424C19.1917 12.0318 18.2309 13.4757 17.0168 14.6903C15.8027 15.905 14.3595 16.8662 12.7711 17.5181C11.1826 18.17 9.48056 18.4996 7.76373 18.4877C5.2665 18.4943 2.82053 17.7789 0.719971 16.4276C1.08783 16.4682 1.45775 16.4872 1.82783 16.4846C3.89214 16.4893 5.89791 15.7984 7.52198 14.5234C6.56491 14.5059 5.63717 14.1898 4.86832 13.6192C4.09947 13.0487 3.52789 12.2521 3.23339 11.3407C3.5199 11.3861 3.80942 11.4098 4.0995 11.4117C4.5067 11.4106 4.91214 11.3582 5.30626 11.2557C4.2676 11.0454 3.33377 10.4817 2.66343 9.66041C1.99309 8.83915 1.62759 7.81099 1.62904 6.75062V6.69464C2.26447 7.04957 2.97472 7.24924 3.70191 7.2774C2.72847 6.62735 2.03959 5.63015 1.77579 4.48926C1.512 3.34837 1.69318 2.14976 2.28237 1.13796C3.43487 2.556 4.87231 3.71589 6.50151 4.54244C8.13072 5.36899 9.91532 5.84375 11.7396 5.93596C11.6659 5.59024 11.6278 5.23789 11.6258 4.8844C11.6287 3.96482 11.9071 3.06725 12.425 2.30762C12.943 1.54798 13.6766 0.961198 14.5313 0.623054C15.3859 0.284911 16.3222 0.210946 17.2193 0.410714C18.1164 0.610482 18.933 1.0748 19.5636 1.7437C20.5908 1.54568 21.5758 1.17059 22.4746 0.635165C22.1324 1.69573 21.4153 2.59494 20.4577 3.16411C21.3676 3.06207 22.2572 2.82455 23.097 2.45941C22.4699 3.37402 21.6931 4.17627 20.7993 4.83242Z" fill="#FFB115"/>
</g>
<defs>
<clipPath id="clip0_2_4068">
<rect width="22.38" height="18.19" fill="white" transform="translate(0.719971 0.299072)"/>
</clipPath>
</defs>
</svg>
