<svg width="20" height="17" viewBox="0 0 20 17" fill="none" xmlns="http://www.w3.org/2000/svg">
<g id="List &#226;&#134;&#146; Item &#226;&#134;&#146; Link &#226;&#134;&#146; SVG" clip-path="url(#clip0_2_4070)">
<path id="Icon awesome-telegram-plane" d="M19.6639 1.6685L16.7075 15.6145C16.4847 16.5993 15.903 16.8442 15.0764 16.3803L10.572 13.0601L8.3992 15.1506C8.29265 15.2892 8.15544 15.4013 7.99834 15.4779C7.84123 15.5546 7.6685 15.5938 7.49371 15.5925L7.81752 11.0035L16.1658 3.45712C16.5286 3.13319 16.0869 2.95722 15.6022 3.27816L5.28195 9.77676L0.837442 8.38806C-0.129015 8.08812 -0.147005 7.42126 1.03733 6.95736L18.4186 0.259805C19.2231 -0.04013 19.9277 0.438767 19.6649 1.6685H19.6639Z" fill="#FFB115"/>
</g>
<defs>
<clipPath id="clip0_2_4070">
<rect width="19.59" height="16.44" fill="white" transform="translate(0.129883 0.169067)"/>
</clipPath>
</defs>
</svg>
