<svg width="21" height="18" viewBox="0 0 21 18" fill="none" xmlns="http://www.w3.org/2000/svg">
<g id="List &#226;&#134;&#146; Item &#226;&#134;&#146; Link &#226;&#134;&#146; SVG" clip-path="url(#clip0_1_2813)">
<path id="Icon awesome-telegram-plane" d="M20.4566 2.07854L17.5003 16.0245C17.2774 17.0093 16.6957 17.2543 15.8692 16.7904L11.3647 13.4701L9.19195 15.5606C9.08541 15.6993 8.9482 15.8113 8.79109 15.888C8.63399 15.9647 8.46126 16.0039 8.28646 16.0025L8.61028 11.4135L16.9586 3.86715C17.3214 3.54322 16.8796 3.36726 16.3949 3.68819L6.0747 10.1868L1.6302 8.79809C0.66374 8.49815 0.64575 7.8313 1.83009 7.3674L19.2113 0.66984C20.0159 0.369904 20.7205 0.848801 20.4576 2.07854H20.4566Z" fill="#FFB115"/>
</g>
<defs>
<clipPath id="clip0_1_2813">
<rect width="19.59" height="16.44" fill="white" transform="translate(0.922607 0.579102)"/>
</clipPath>
</defs>
</svg>
